{
.appVersion = "1225";
copyright = "Copyright 2018 Google Inc. All Rights Reserved.";
customParameters = (
{
name = description;
value = "Designed by Monotype design team.";
},
{
name = license;
value = "This Font Software is licensed under the SIL Open Font License, Version 1.1. This Font Software is distributed on an \"AS IS\" BASIS, WITHOUT WARRANTIES OR CONDITIONS OF ANY KIND, either express or implied. See the SIL Open Font License for the specific language, permissions and limitations governing your use of this Font Software.";
},
{
name = licenseURL;
value = "http://scripts.sil.org/OFL";
},
{
name = vendorID;
value = GOOG;
},
{
name = glyphOrder;
value = (
.notdef,
NULL,
CR,
space,
Omega,
carriagereturn,
universal,
partialdiff,
existential,
emptyset,
Delta,
gradient,
element,
notelement,
suchthat,
product,
summation,
minus,
asteriskmath,
radical,
proportional,
infinity,
orthogonal,
angle,
logicaland,
logicalor,
intersection,
union,
integral,
therefore,
similar,
congruent,
approxequal,
notequal,
equivalence,
lessequal,
greaterequal,
notsubset,
reflexsubset,
reflexsuperset,
perpendicular,
dotmath,
integraltp,
integralbt,
lozenge,
u1D56C,
"BBold-fraktur",
u1D56E,
u1D56F,
u1D570,
u1D571,
u1D572,
u1D573,
u1D574,
u1D575,
u1D576,
u1D577,
u1D578,
"NBold-fraktur",
u1D57A,
u1D57B,
u1D57C,
"RBold-fraktur",
u1D57E,
u1D57F,
u1D580,
u1D581,
u1D582,
u1D583,
u1D584,
"ZBold-fraktur",
u1D586,
u1D587,
u1D588,
u1D589,
u1D58A,
u1D58B,
u1D58C,
u1D58D,
u1D58E,
u1D58F,
u1D590,
u1D591,
u1D592,
u1D593,
u1D594,
u1D595,
u1D596,
u1D597,
u1D598,
u1D599,
u1D59A,
u1D59B,
u1D59C,
u1D59D,
u1D59E,
u1D59F,
u1D5A0,
u1D5A1,
u1D5A2,
u1D5A3,
u1D5A4,
u1D5A5,
u1D5A6,
u1D5A7,
u1D5A8,
u1D5A9,
u1D5AA,
u1D5AB,
u1D5AC,
u1D5AD,
u1D5AE,
u1D5AF,
u1D5B0,
u1D5B1,
u1D5B2,
u1D5B3,
u1D5B4,
u1D5B5,
u1D5B6,
u1D5B7,
u1D5B8,
u1D5B9,
u1D5BA,
u1D5BB,
u1D5BC,
u1D5BD,
u1D5BE,
u1D5BF,
u1D5C0,
u1D5C1,
u1D5C2,
u1D5C3,
u1D5C4,
u1D5C5,
u1D5C6,
u1D5C7,
u1D5C8,
u1D5C9,
u1D5CA,
u1D5CB,
u1D5CC,
u1D5CD,
u1D5CE,
u1D5CF,
u1D5D0,

glyphs = (
{
glyphname = .notdef;
lastChange = "2019-05-10 14:47:10 +0000";
layers = (
{
layerId = "9166331D-2337-4AD9-B82D-8EEBFFA66093";
paths = (
{
closed = 1;
nodes = (
"505 0 LINE",
"505 714 LINE",
"95 714 LINE",
"95 0 LINE"
);
},
{
closed = 1;
nodes = (
"146 663 LINE",
"455 663 LINE",
"455 51 LINE",
"146 51 LINE"
);
}
);
width = 600;
}
);
note = .notdef;
script = "";
category = Separator;
subCategory = Other;
},
{
glyphname = Omega;
production = uni03A9;
lastChange = "2019-05-10 14:47:10 +0000";
layers = (
{
anchors = (
{
name = bottom;
position = "{391, 0}";
},
{
name = top;
position = "{391, 714}";
},
{
name = topleft;
position = "{20, 714}";
}
);
layerId = "9166331D-2337-4AD9-B82D-8EEBFFA66093";
paths = (
{
closed = 1;
nodes = (
"326 0 LINE",
"326 72 LINE",
"202 161 OFFCURVE",
"159 268 OFFCURVE",
"159 401 CURVE SMOOTH",
"159 553 OFFCURVE",
"231 646 OFFCURVE",
"391 646 CURVE SMOOTH",
"552 646 OFFCURVE",
"625 553 OFFCURVE",
"625 401 CURVE SMOOTH",
"625 269 OFFCURVE",
"581 160 OFFCURVE",
"457 72 CURVE",
"457 0 LINE",
"745 0 LINE",
"745 79 LINE",
"568 79 LINE",
"653 144 OFFCURVE",
"719 255 OFFCURVE",
"719 405 CURVE SMOOTH",
"719 601 OFFCURVE",
"603 725 OFFCURVE",
"391 725 CURVE SMOOTH",
"182 725 OFFCURVE",
"64 600 OFFCURVE",
"64 404 CURVE SMOOTH",
"64 255 OFFCURVE",
"131 144 OFFCURVE",
"216 79 CURVE",
"38 79 LINE",
"38 0 LINE"
);
}
);
width = 782;
}
);
rightKerningGroup = uni03A9;
unicode = 03A9;
script = greek;
category = Letter;
subCategory = Uppercase;
},
{
glyphname = carriagereturn;
lastChange = "2019-05-10 14:47:23 +0000";
layers = (
{
layerId = "9166331D-2337-4AD9-B82D-8EEBFFA66093";
paths = (
{
closed = 1;
nodes = (
"489 235 LINE",
"489 576 LINE",
"435 576 LINE",
"435 289 LINE",
"178 289 LINE",
"178 235 LINE"
);
},
{
closed = 1;
nodes = (
"326 114 LINE",
"299 172 OFFCURVE",
"272 216 OFFCURVE",
"246 242 CURVE",
"246 282 LINE",
"272 308 OFFCURVE",
"299 352 OFFCURVE",
"326 410 CURVE",
"282 410 LINE",
"229 348 OFFCURVE",
"173 302 OFFCURVE",
"115 273 CURVE",
"115 251 LINE",
"173 222 OFFCURVE",
"229 176 OFFCURVE",
"282 114 CURVE"
);
}
);
width = 604;
}
);
note = carriagereturn;
unicode = 21B5;
script = "";
category = Symbol;
subCategory = Arrow;
},
{
glyphname = universal;
lastChange = "2019-05-10 14:47:10 +0000";
layers = (
{
layerId = "9166331D-2337-4AD9-B82D-8EEBFFA66093";
paths = (
{
closed = 1;
nodes = (
"414 -4 LINE",
"699 715 LINE",
"602 715 LINE",
"516 492 LINE",
"230 492 LINE",
"148 715 LINE",
"51 715 LINE",
"332 -4 LINE"
);
},
{
closed = 1;
nodes = (
"374 89 OFFCURVE",
"369 106 OFFCURVE",
"360 132 CURVE SMOOTH",
"351 158 OFFCURVE",
"319 250 OFFCURVE",
"262 410 CURVE",
"488 410 LINE",
"440 282 OFFCURVE",
"411 199 OFFCURVE",
"398 161 CURVE SMOOTH",
"385 124 OFFCURVE",
"378 97 OFFCURVE",
"375 82 CURVE"
);
}
);
width = 750;
}
);
note = universal;
unicode = 2200;
script = "";
category = Symbol;
subCategory = Math;
},
{
glyphname = partialdiff;
lastChange = "2019-05-10 14:47:10 +0000";
layers = (
{
layerId = "9166331D-2337-4AD9-B82D-8EEBFFA66093";
paths = (
{
closed = 1;
nodes = (
"286 -10 OFFCURVE",
"337 9 OFFCURVE",
"382 47 CURVE SMOOTH",
"472 123 OFFCURVE",
"531 284 OFFCURVE",
"531 455 CURVE SMOOTH",
"531 632 OFFCURVE",
"458 722 OFFCURVE",
"321 722 CURVE SMOOTH",
"277 722 OFFCURVE",
"223 711 OFFCURVE",
"183 692 CURVE",
"183 608 LINE",
"222 634 OFFCURVE",
"271 648 OFFCURVE",
"309 648 CURVE SMOOTH",
"397 648 OFFCURVE",
"440 584 OFFCURVE",
"443 458 CURVE SMOOTH",
"443 446 OFFCURVE",
"442 433 OFFCURVE",
"441 421 CURVE",
"411 466 OFFCURVE",
"364 494 OFFCURVE",
"306 494 CURVE SMOOTH",
"257 494 OFFCURVE",
"213 481 OFFCURVE",
"175 455 CURVE SMOOTH",
"98 402 OFFCURVE",
"51 293 OFFCURVE",
"51 183 CURVE SMOOTH",
"51 58 OFFCURVE",
"113 -10 OFFCURVE",
"228 -10 CURVE SMOOTH"
);
},
{
closed = 1;
nodes = (
"174 64 OFFCURVE",
"142 107 OFFCURVE",
"142 182 CURVE SMOOTH",
"142 307 OFFCURVE",
"214 426 OFFCURVE",
"316 426 CURVE SMOOTH",
"368 426 OFFCURVE",
"413 387 OFFCURVE",
"426 331 CURVE",
"403 179 OFFCURVE",
"325 64 OFFCURVE",
"233 64 CURVE SMOOTH"
);
}
);
width = 582;
}
);
note = partialdiff;
unicode = 2202;
script = "";
category = Symbol;
subCategory = Math;
},
{
glyphname = existential;
lastChange = "2019-05-10 14:47:10 +0000";
layers = (
{
layerId = "9166331D-2337-4AD9-B82D-8EEBFFA66093";
paths = (
{
closed = 1;
nodes = (
"523 0 LINE",
"523 715 LINE",
"59 715 LINE",
"59 635 LINE",
"440 635 LINE",
"440 411 LINE",
"80 411 LINE",
"80 331 LINE",
"440 331 LINE",
"440 80 LINE",
"51 80 LINE",
"51 0 LINE"
);
}
);
width = 574;
}
);
note = existential;
unicode = 2203;
script = "";
category = Symbol;
subCategory = Math;
},
{
glyphname = emptyset;
lastChange = "2019-05-10 14:47:23 +0000";
layers = (
{
layerId = "9166331D-2337-4AD9-B82D-8EEBFFA66093";
paths = (
{
closed = 1;
nodes = (
"787 680 LINE",
"742 725 LINE",
"51 34 LINE",
"96 -11 LINE"
);
},
{
closed = 1;
nodes = (
"620 -10 OFFCURVE",
"786 154 OFFCURVE",
"786 357 CURVE SMOOTH",
"786 560 OFFCURVE",
"622 724 OFFCURVE",
"419 724 CURVE SMOOTH",
"216 724 OFFCURVE",
"52 560 OFFCURVE",
"52 357 CURVE SMOOTH",
"52 154 OFFCURVE",
"216 -10 OFFCURVE",
"419 -10 CURVE SMOOTH"
);
},
{
closed = 1;
nodes = (
"256 62 OFFCURVE",
"124 194 OFFCURVE",
"124 357 CURVE SMOOTH",
"124 520 OFFCURVE",
"256 652 OFFCURVE",
"419 652 CURVE SMOOTH",
"582 652 OFFCURVE",
"714 520 OFFCURVE",
"714 357 CURVE SMOOTH",
"714 194 OFFCURVE",
"582 62 OFFCURVE",
"419 62 CURVE SMOOTH"
);
}
);
width = 838;
}
);
note = emptyset;
unicode = 2205;
script = "";
category = Symbol;
subCategory = Math;
},
{
glyphname = Delta;
production = uni0394;
lastChange = "2019-05-10 14:47:10 +0000";
layers = (
{
anchors = (
{
name = bottom;
position = "{291, 0}";
},
{
name = top;
position = "{291, 714}";
}
);
layerId = "9166331D-2337-4AD9-B82D-8EEBFFA66093";
paths = (
{
closed = 1;
nodes = (
"561 0 LINE",
"561 54 LINE",
"335 714 LINE",
"245 714 LINE",
"20 55 LINE",
"20 0 LINE"
);
},
{
closed = 1;
nodes = (
"243 455 LINE SMOOTH",
"262 511 OFFCURVE",
"277 568 OFFCURVE",
"289 616 CURVE",
"300 568 OFFCURVE",
"317 511 OFFCURVE",
"337 451 CURVE SMOOTH",
"462 79 LINE",
"116 79 LINE"
);
}
);
width = 581;
}
);
leftKerningGroup = Alpha;
rightKerningGroup = Alpha;
unicode = 0394;
script = greek;
category = Letter;
subCategory = Uppercase;
},
{
glyphname = gradient;
lastChange = "2019-05-10 14:47:10 +0000";
layers = (
{
layerId = "9166331D-2337-4AD9-B82D-8EEBFFA66093";
paths = (
{
closed = 1;
nodes = (
"336 0 LINE",
"561 659 LINE",
"561 714 LINE",
"20 714 LINE",
"20 660 LINE",
"246 0 LINE"
);
},
{
closed = 1;
nodes = (
"282 144 OFFCURVE",
"266 197 OFFCURVE",
"245 259 CURVE SMOOTH",
"119 635 LINE",
"465 635 LINE",
"338 259 LINE SMOOTH",
"325 220 OFFCURVE",
"310 167 OFFCURVE",
"292 98 CURVE"
);
}
);
width = 581;
}
);
note = gradient;
unicode = 2207;
script = "";
category = Symbol;
subCategory = Math;
},
{
glyphname = element;
lastChange = "2019-05-10 14:47:23 +0000";
layers = (
{
layerId = "9166331D-2337-4AD9-B82D-8EEBFFA66093";
paths = (
{
closed = 1;
nodes = (
"648 61 LINE",
"648 132 LINE",
"382 132 LINE SMOOTH",
"214 132 OFFCURVE",
"123 208 OFFCURVE",
"123 352 CURVE SMOOTH",
"123 496 OFFCURVE",
"212 572 OFFCURVE",
"382 572 CURVE SMOOTH",
"648 572 LINE",
"648 643 LINE",
"394 643 LINE SMOOTH",
"169 643 OFFCURVE",
"51 543 OFFCURVE",
"51 352 CURVE SMOOTH",
"51 161 OFFCURVE",
"171 61 OFFCURVE",
"394 61 CURVE SMOOTH"
);
},
{
closed = 1;
nodes = (
"648 317 LINE",
"648 388 LINE",
"87 388 LINE",
"87 317 LINE"
);
}
);
width = 699;
}
);
note = element;
unicode = 2208;
script = "";
category = Symbol;
subCategory = Math;
},
{
glyphname = notelement;
lastChange = "2019-05-10 14:47:10 +0000";
layers = (
{
layerId = "9166331D-2337-4AD9-B82D-8EEBFFA66093";
paths = (
{
closed = 1;
nodes = (
"336 63 LINE",
"354 62 OFFCURVE",
"374 61 OFFCURVE",
"394 61 CURVE SMOOTH",
"648 61 LINE",
"648 132 LINE",
"362 132 LINE",
"433 317 LINE",
"648 317 LINE",
"648 388 LINE",
"461 388 LINE",
"531 572 LINE",
"648 572 LINE",
"648 643 LINE",
"559 643 LINE",
"595 736 LINE",
"534 762 LINE",
"488 643 LINE",
"394 643 LINE SMOOTH",
"169 643 OFFCURVE",
"51 543 OFFCURVE",
"51 352 CURVE SMOOTH",
"51 201 OFFCURVE",
"125 106 OFFCURVE",
"269 73 CURVE",
"234 -17 LINE",
"295 -43 LINE"
);
},
{
closed = 1;
nodes = (
"188 163 OFFCURVE",
"135 223 OFFCURVE",
"125 317 CURVE",
"362 317 LINE",
"295 141 LINE"
);
},
{
closed = 1;
nodes = (
"138 511 OFFCURVE",
"228 572 OFFCURVE",
"394 572 CURVE SMOOTH",
"461 572 LINE",
"390 388 LINE",
"125 388 LINE"
);
}
);
width = 699;
}
);
note = notelement;
unicode = 2209;
script = "";
category = Symbol;
subCategory = Math;
},
{
glyphname = suchthat;
lastChange = "2019-05-10 14:47:23 +0000";
layers = (
{
layerId = "9166331D-2337-4AD9-B82D-8EEBFFA66093";
paths = (
{
closed = 1;
nodes = (
"305 61 LINE SMOOTH",
"528 61 OFFCURVE",
"648 161 OFFCURVE",
"648 352 CURVE SMOOTH",
"648 543 OFFCURVE",
"530 643 OFFCURVE",
"305 643 CURVE SMOOTH",
"51 643 LINE",
"51 572 LINE",
"317 572 LINE SMOOTH",
"487 572 OFFCURVE",
"576 496 OFFCURVE",
"576 352 CURVE SMOOTH",
"576 208 OFFCURVE",
"485 132 OFFCURVE",
"317 132 CURVE SMOOTH",
"51 132 LINE",
"51 61 LINE"
);
},
{
closed = 1;
nodes = (
"612 317 LINE",
"612 388 LINE",
"51 388 LINE",
"51 317 LINE"
);
}
);
width = 699;
}
);
note = suchthat;
unicode = 220B;
script = "";
category = Symbol;
subCategory = Math;
},
{
glyphname = product;
lastChange = "2019-05-10 14:47:10 +0000";
layers = (
{
layerId = "9166331D-2337-4AD9-B82D-8EEBFFA66093";
paths = (
{
closed = 1;
nodes = (
"141 -240 LINE",
"141 634 LINE",
"508 634 LINE",
"508 -240 LINE",
"598 -240 LINE",
"598 714 LINE",
"51 714 LINE",
"51 -240 LINE"
);
}
);
width = 649;
}
);
note = product;
unicode = 220F;
script = "";
category = Symbol;
subCategory = Math;
},
{
glyphname = summation;
lastChange = "2019-05-10 14:47:10 +0000";
layers = (
{
layerId = "9166331D-2337-4AD9-B82D-8EEBFFA66093";
paths = (
{
closed = 1;
nodes = (
"626 -240 LINE",
"626 -161 LINE",
"173 -161 LINE",
"463 264 LINE",
"185 635 LINE",
"594 635 LINE",
"594 714 LINE",
"59 714 LINE",
"59 658 LINE",
"357 262 LINE",
"51 -185 LINE",
"51 -240 LINE"
);
}
);
width = 677;
}
);
note = summation;
unicode = 2211;
script = "";
category = Symbol;
subCategory = Math;
},
{
glyphname = minus;
lastChange = "2019-05-10 14:47:23 +0000";
layers = (
{
layerId = "9166331D-2337-4AD9-B82D-8EEBFFA66093";
paths = (
{
closed = 1;
nodes = (
"521 317 LINE",
"521 388 LINE",
"51 388 LINE",
"51 317 LINE"
);
}
);
width = 572;
}
);
note = minus;
unicode = 2212;
script = "";
category = Symbol;
subCategory = Math;
},
{
glyphname = asteriskmath;
lastChange = "2019-05-10 14:47:23 +0000";
layers = (
{
layerId = "9166331D-2337-4AD9-B82D-8EEBFFA66093";
paths = (
{
closed = 1;
nodes = (
"264 169 LINE",
"259 300 LINE",
"369 230 LINE",
"405 292 LINE",
"290 353 LINE",
"405 414 LINE",
"369 476 LINE",
"259 406 LINE",
"264 537 LINE",
"192 537 LINE",
"197 406 LINE",
"87 476 LINE",
"51 414 LINE",
"166 353 LINE",
"51 292 LINE",
"87 230 LINE",
"197 300 LINE",
"192 169 LINE"
);
}
);
width = 456;
}
);
note = asteriskmath;
unicode = 2217;
script = "";
category = Symbol;
subCategory = Math;
},
{
glyphname = radical;
lastChange = "2019-05-10 14:47:23 +0000";
layers = (
{
layerId = "9166331D-2337-4AD9-B82D-8EEBFFA66093";
paths = (
{
closed = 1;
nodes = (
"339 -7 LINE",
"636 850 LINE",
"565 850 LINE",
"307 114 LINE",
"194 443 LINE",
"51 443 LINE",
"51 373 LINE",
"139 373 LINE",
"274 -7 LINE"
);
}
);
width = 605;
}
);
note = radical;
unicode = 221A;
script = "";
category = Symbol;
subCategory = Math;
},
{
glyphname = proportional;
lastChange = "2019-05-10 14:47:10 +0000";
layers = (
{
layerId = "9166331D-2337-4AD9-B82D-8EEBFFA66093";
paths = (
{
closed = 1;
nodes = (
"254 198 OFFCURVE",
"305 235 OFFCURVE",
"344 302 CURVE",
"383 235 OFFCURVE",
"431 200 OFFCURVE",
"489 198 CURVE",
"489 261 LINE",
"446 263 OFFCURVE",
"413 291 OFFCURVE",
"380 351 CURVE",
"416 415 OFFCURVE",
"447 441 OFFCURVE",
"489 444 CURVE",
"489 507 LINE",
"433 503 OFFCURVE",
"385 469 OFFCURVE",
"345 402 CURVE",
"306 472 OFFCURVE",
"257 507 OFFCURVE",
"198 507 CURVE SMOOTH",
"112 507 OFFCURVE",
"51 442 OFFCURVE",
"51 353 CURVE SMOOTH",
"51 261 OFFCURVE",
"110 198 OFFCURVE",
"198 198 CURVE SMOOTH"
);
},
{
closed = 1;
nodes = (
"150 261 OFFCURVE",
"116 300 OFFCURVE",
"116 353 CURVE SMOOTH",
"116 406 OFFCURVE",
"151 444 OFFCURVE",
"201 444 CURVE SMOOTH",
"246 444 OFFCURVE",
"278 414 OFFCURVE",
"311 353 CURVE",
"276 290 OFFCURVE",
"243 261 OFFCURVE",
"202 261 CURVE SMOOTH"
);
}
);
width = 540;
}
);
note = proportional;
unicode = 221D;
script = "";
category = Symbol;
subCategory = Math;
},
{
glyphname = infinity;
lastChange = "2019-05-10 14:47:23 +0000";
layers = (
{
layerId = "9166331D-2337-4AD9-B82D-8EEBFFA66093";
paths = (
{
closed = 1;
nodes = (
"626 153 OFFCURVE",
"688 238 OFFCURVE",
"688 348 CURVE SMOOTH",
"688 459 OFFCURVE",
"625 535 OFFCURVE",
"533 535 CURVE SMOOTH",
"467 535 OFFCURVE",
"417 496 OFFCURVE",
"376 419 CURVE",
"331 504 OFFCURVE",
"269 538 OFFCURVE",
"208 538 CURVE SMOOTH",
"113 538 OFFCURVE",
"51 455 OFFCURVE",
"51 345 CURVE SMOOTH",
"51 229 OFFCURVE",
"119 156 OFFCURVE",
"205 156 CURVE SMOOTH",
"270 156 OFFCURVE",
"322 198 OFFCURVE",
"363 275 CURVE",
"411 189 OFFCURVE",
"471 153 OFFCURVE",
"532 153 CURVE SMOOTH"
);
},
{
closed = 1;
nodes = (
"148 223 OFFCURVE",
"116 279 OFFCURVE",
"116 345 CURVE SMOOTH",
"116 414 OFFCURVE",
"151 471 OFFCURVE",
"209 471 CURVE SMOOTH",
"259 471 OFFCURVE",
"297 429 OFFCURVE",
"331 347 CURVE",
"294 263 OFFCURVE",
"256 223 OFFCURVE",
"207 223 CURVE SMOOTH"
);
},
{
closed = 1;
nodes = (
"479 220 OFFCURVE",
"443 261 OFFCURVE",
"408 344 CURVE",
"446 428 OFFCURVE",
"482 468 OFFCURVE",
"530 468 CURVE SMOOTH",
"586 468 OFFCURVE",
"624 414 OFFCURVE",
"624 344 CURVE SMOOTH",
"624 276 OFFCURVE",
"588 220 OFFCURVE",
"529 220 CURVE SMOOTH"
);
}
);
width = 739;
}
);
note = infinity;
unicode = 221E;
script = "";
category = Symbol;
subCategory = Math;
},
{
glyphname = orthogonal;
lastChange = "2019-05-10 14:47:10 +0000";
layers = (
{
layerId = "9166331D-2337-4AD9-B82D-8EEBFFA66093";
paths = (
{
closed = 1;
nodes = (
"601 0 LINE",
"601 71 LINE",
"122 71 LINE",
"122 550 LINE",
"51 550 LINE",
"51 0 LINE"
);
}
);
width = 652;
}
);
note = orthogonal;
unicode = 221F;
script = "";
category = Symbol;
subCategory = Math;
},
{
glyphname = angle;
lastChange = "2019-05-10 14:47:10 +0000";
layers = (
{
layerId = "9166331D-2337-4AD9-B82D-8EEBFFA66093";
paths = (
{
closed = 1;
nodes = (
"601 0 LINE",
"601 71 LINE",
"166 71 LINE",
"511 464 LINE",
"461 515 LINE",
"51 50 LINE",
"51 0 LINE"
);
}
);
width = 652;
}
);
note = angle;
unicode = 2220;
script = "";
category = Symbol;
subCategory = Math;
},
{
glyphname = logicaland;
lastChange = "2019-05-10 14:47:23 +0000";
layers = (
{
layerId = "9166331D-2337-4AD9-B82D-8EEBFFA66093";
paths = (
{
closed = 1;
nodes = (
"134 0 LINE",
"357 478 LINE",
"580 0 LINE",
"663 0 LINE",
"382 580 LINE",
"332 580 LINE",
"51 0 LINE"
);
}
);
width = 714;
}
);
note = logicaland;
unicode = 2227;
script = "";
category = Symbol;
subCategory = Math;
},
{
glyphname = logicalor;
lastChange = "2019-05-10 14:47:23 +0000";
layers = (
{
layerId = "9166331D-2337-4AD9-B82D-8EEBFFA66093";
paths = (
{
closed = 1;
nodes = (
"382 0 LINE",
"663 580 LINE",
"580 580 LINE",
"357 102 LINE",
"134 580 LINE",
"51 580 LINE",
"332 0 LINE"
);
}
);
width = 714;
}
);
note = logicalor;
unicode = 2228;
script = "";
category = Symbol;
subCategory = Math;
},
{
glyphname = intersection;
lastChange = "2019-05-10 14:47:10 +0000";
layers = (
{
layerId = "9166331D-2337-4AD9-B82D-8EEBFFA66093";
paths = (
{
closed = 1;
nodes = (
"122 0 LINE",
"122 321 LINE SMOOTH",
"122 504 OFFCURVE",
"194 592 OFFCURVE",
"342 592 CURVE SMOOTH",
"490 592 OFFCURVE",
"562 503 OFFCURVE",
"562 321 CURVE SMOOTH",
"562 0 LINE",
"633 0 LINE",
"633 321 LINE SMOOTH",
"633 545 OFFCURVE",
"534 664 OFFCURVE",
"342 664 CURVE SMOOTH",
"151 664 OFFCURVE",
"51 545 OFFCURVE",
"51 321 CURVE SMOOTH",
"51 0 LINE"
);
}
);
width = 684;
}
);
note = intersection;
unicode = 2229;
script = "";
category = Symbol;
subCategory = Math;
},
{
glyphname = union;
lastChange = "2019-05-10 14:47:23 +0000";
layers = (
{
layerId = "9166331D-2337-4AD9-B82D-8EEBFFA66093";
paths = (
{
closed = 1;
nodes = (
"534 0 OFFCURVE",
"633 119 OFFCURVE",
"633 343 CURVE SMOOTH",
"633 664 LINE",
"562 664 LINE",
"562 343 LINE SMOOTH",
"562 161 OFFCURVE",
"490 72 OFFCURVE",
"342 72 CURVE SMOOTH",
"194 72 OFFCURVE",
"122 160 OFFCURVE",
"122 343 CURVE SMOOTH",
"122 664 LINE",
"51 664 LINE",
"51 343 LINE SMOOTH",
"51 119 OFFCURVE",
"151 0 OFFCURVE",
"342 0 CURVE SMOOTH"
);
}
);
width = 684;
}
);
note = union;
unicode = 222A;
script = "";
category = Symbol;
subCategory = Math;
},
{
glyphname = integral;
lastChange = "2019-05-10 14:47:23 +0000";
layers = (
{
layerId = "9166331D-2337-4AD9-B82D-8EEBFFA66093";
paths = (
{
closed = 1;
nodes = (
"181 -240 OFFCURVE",
"236 -179 OFFCURVE",
"236 -62 CURVE SMOOTH",
"236 701 LINE SMOOTH",
"236 777 OFFCURVE",
"264 815 OFFCURVE",
"319 815 CURVE SMOOTH",
"337 815 OFFCURVE",
"356 811 OFFCURVE",
"375 803 CURVE",
"375 876 LINE",
"360 882 OFFCURVE",
"339 885 OFFCURVE",
"312 885 CURVE SMOOTH",
"205 885 OFFCURVE",
"151 826 OFFCURVE",
"151 707 CURVE SMOOTH",
"151 -56 LINE SMOOTH",
"151 -132 OFFCURVE",
"122 -170 OFFCURVE",
"65 -170 CURVE SMOOTH",
"45 -170 OFFCURVE",
"25 -166 OFFCURVE",
"5 -158 CURVE",
"5 -230 LINE",
"25 -237 OFFCURVE",
"47 -240 OFFCURVE",
"73 -240 CURVE SMOOTH"
);
}
);
width = 387;
}
);
note = integral;
unicode = 222B;
script = "";
category = Symbol;
subCategory = Math;
},
{
glyphname = therefore;
lastChange = "2019-05-10 14:47:23 +0000";
layers = (
{
layerId = "9166331D-2337-4AD9-B82D-8EEBFFA66093";
paths = (
{
closed = 1;
nodes = (
"319 463 OFFCURVE",
"346 490 OFFCURVE",
"346 523 CURVE SMOOTH",
"346 556 OFFCURVE",
"319 583 OFFCURVE",
"286 583 CURVE SMOOTH",
"253 583 OFFCURVE",
"226 556 OFFCURVE",
"226 523 CURVE SMOOTH",
"226 490 OFFCURVE",
"253 463 OFFCURVE",
"286 463 CURVE SMOOTH"
);
},
{
closed = 1;
nodes = (
"144 122 OFFCURVE",
"171 149 OFFCURVE",
"171 182 CURVE SMOOTH",
"171 215 OFFCURVE",
"144 242 OFFCURVE",
"111 242 CURVE SMOOTH",
"78 242 OFFCURVE",
"51 215 OFFCURVE",
"51 182 CURVE SMOOTH",
"51 149 OFFCURVE",
"78 122 OFFCURVE",
"111 122 CURVE SMOOTH"
);
},
{
closed = 1;
nodes = (
"494 122 OFFCURVE",
"521 149 OFFCURVE",
"521 182 CURVE SMOOTH",
"521 215 OFFCURVE",
"494 242 OFFCURVE",
"461 242 CURVE SMOOTH",
"428 242 OFFCURVE",
"401 215 OFFCURVE",
"401 182 CURVE SMOOTH",
"401 149 OFFCURVE",
"428 122 OFFCURVE",
"461 122 CURVE SMOOTH"
);
}
);
width = 571;
}
);
note = therefore;
unicode = 2234;
script = "";
category = Symbol;
subCategory = Math;
},
{
glyphname = similar;
lastChange = "2019-05-10 14:47:23 +0000";
layers = (
{
layerId = "9166331D-2337-4AD9-B82D-8EEBFFA66093";
paths = (
{
closed = 1;
nodes = (
"87 324 OFFCURVE",
"129 346 OFFCURVE",
"164 346 CURVE SMOOTH",
"195 346 OFFCURVE",
"232 336 OFFCURVE",
"274 317 CURVE SMOOTH",
"317 297 OFFCURVE",
"359 287 OFFCURVE",
"401 287 CURVE SMOOTH",
"448 287 OFFCURVE",
"488 305 OFFCURVE",
"521 341 CURVE",
"521 418 LINE",
"486 381 OFFCURVE",
"441 359 OFFCURVE",
"406 359 CURVE SMOOTH",
"377 359 OFFCURVE",
"340 370 OFFCURVE",
"296 389 CURVE SMOOTH",
"252 408 OFFCURVE",
"210 418 OFFCURVE",
"170 418 CURVE SMOOTH",
"123 418 OFFCURVE",
"83 400 OFFCURVE",
"51 365 CURVE",
"51 287 LINE"
);
}
);
width = 572;
}
);
note = similar;
unicode = 223C;
script = "";
category = Symbol;
subCategory = Math;
},
{
glyphname = congruent;
lastChange = "2019-05-10 14:47:23 +0000";
layers = (
{
layerId = "9166331D-2337-4AD9-B82D-8EEBFFA66093";
paths = (
{
closed = 1;
nodes = (
"90 490 OFFCURVE",
"132 510 OFFCURVE",
"164 510 CURVE SMOOTH",
"196 510 OFFCURVE",
"233 500 OFFCURVE",
"275 481 CURVE SMOOTH",
"318 461 OFFCURVE",
"360 451 OFFCURVE",
"401 451 CURVE SMOOTH",
"447 451 OFFCURVE",
"488 469 OFFCURVE",
"521 505 CURVE",
"521 582 LINE",
"484 544 OFFCURVE",
"441 523 OFFCURVE",
"406 523 CURVE SMOOTH",
"375 523 OFFCURVE",
"338 533 OFFCURVE",
"296 552 CURVE SMOOTH",
"253 572 OFFCURVE",
"212 582 OFFCURVE",
"170 582 CURVE SMOOTH",
"123 582 OFFCURVE",
"84 564 OFFCURVE",
"51 529 CURVE",
"51 451 LINE"
);
},
{
closed = 1;
nodes = (
"521 158 LINE",
"521 229 LINE",
"51 229 LINE",
"51 158 LINE"
);
},
{
closed = 1;
nodes = (
"521 318 LINE",
"521 389 LINE",
"51 389 LINE",
"51 318 LINE"
);
}
);
width = 572;
}
);
note = congruent;
unicode = 2245;
script = "";
category = Symbol;
subCategory = Math;
},
{
glyphname = approxequal;
lastChange = "2019-05-10 14:47:23 +0000";
layers = (
{
layerId = "9166331D-2337-4AD9-B82D-8EEBFFA66093";
paths = (
{
closed = 1;
nodes = (
"90 425 OFFCURVE",
"132 445 OFFCURVE",
"164 445 CURVE SMOOTH",
"196 445 OFFCURVE",
"233 435 OFFCURVE",
"275 416 CURVE SMOOTH",
"318 396 OFFCURVE",
"360 386 OFFCURVE",
"401 386 CURVE SMOOTH",
"447 386 OFFCURVE",
"488 404 OFFCURVE",
"521 440 CURVE",
"521 517 LINE",
"484 479 OFFCURVE",
"441 458 OFFCURVE",
"406 458 CURVE SMOOTH",
"375 458 OFFCURVE",
"338 468 OFFCURVE",
"296 487 CURVE SMOOTH",
"253 507 OFFCURVE",
"212 517 OFFCURVE",
"170 517 CURVE SMOOTH",
"123 517 OFFCURVE",
"84 499 OFFCURVE",
"51 464 CURVE",
"51 386 LINE"
);
},
{
closed = 1;
nodes = (
"90 228 OFFCURVE",
"132 248 OFFCURVE",
"164 248 CURVE SMOOTH",
"196 248 OFFCURVE",
"233 238 OFFCURVE",
"275 219 CURVE SMOOTH",
"318 199 OFFCURVE",
"360 189 OFFCURVE",
"401 189 CURVE SMOOTH",
"447 189 OFFCURVE",
"488 207 OFFCURVE",
"521 243 CURVE",
"521 320 LINE",
"484 282 OFFCURVE",
"441 261 OFFCURVE",
"406 261 CURVE SMOOTH",
"375 261 OFFCURVE",
"338 271 OFFCURVE",
"296 290 CURVE SMOOTH",
"253 310 OFFCURVE",
"212 320 OFFCURVE",
"170 320 CURVE SMOOTH",
"123 320 OFFCURVE",
"84 302 OFFCURVE",
"51 267 CURVE",
"51 189 LINE"
);
}
);
width = 572;
}
);
note = approxequal;
unicode = 2248;
script = "";
category = Symbol;
subCategory = Math;
},
{
glyphname = notequal;
lastChange = "2019-05-10 14:47:23 +0000";
layers = (
{
layerId = "9166331D-2337-4AD9-B82D-8EEBFFA66093";
paths = (
{
closed = 1;
nodes = (
"417 598 LINE",
"356 622 LINE",
"155 106 LINE",
"216 82 LINE"
);
},
{
closed = 1;
nodes = (
"521 217 LINE",
"521 288 LINE",
"51 288 LINE",
"51 217 LINE"
);
},
{
closed = 1;
nodes = (
"521 416 LINE",
"521 487 LINE",
"51 487 LINE",
"51 416 LINE"
);
}
);
width = 572;
}
);
note = notequal;
unicode = 2260;
script = "";
category = Symbol;
subCategory = Math;
},
{
glyphname = equivalence;
lastChange = "2019-05-10 14:47:23 +0000";
layers = (
{
layerId = "9166331D-2337-4AD9-B82D-8EEBFFA66093";
paths = (
{
closed = 1;
nodes = (
"521 491 LINE",
"521 562 LINE",
"51 562 LINE",
"51 491 LINE"
);
},
{
closed = 1;
nodes = (
"521 143 LINE",
"521 214 LINE",
"51 214 LINE",
"51 143 LINE"
);
},
{
closed = 1;
nodes = (
"521 317 LINE",
"521 388 LINE",
"51 388 LINE",
"51 317 LINE"
);
}
);
width = 572;
}
);
note = equivalence;
unicode = 2261;
script = "";
category = Symbol;
subCategory = Math;
},
{
glyphname = lessequal;
lastChange = "2019-05-10 14:47:10 +0000";
layers = (
{
layerId = "9166331D-2337-4AD9-B82D-8EEBFFA66093";
paths = (
{
closed = 1;
nodes = (
"521 244 LINE",
"155 412 LINE",
"521 580 LINE",
"521 658 LINE",
"51 437 LINE",
"51 387 LINE",
"521 166 LINE"
);
},
{
closed = 1;
nodes = (
"521 47 LINE",
"521 118 LINE",
"51 118 LINE",
"51 47 LINE"
);
}
);
width = 572;
}
);
note = lessequal;
unicode = 2264;
script = "";
category = Symbol;
subCategory = Math;
},
{
glyphname = greaterequal;
lastChange = "2019-05-10 14:47:10 +0000";
layers = (
{
layerId = "9166331D-2337-4AD9-B82D-8EEBFFA66093";
paths = (
{
closed = 1;
nodes = (
"521 387 LINE",
"521 437 LINE",
"51 658 LINE",
"51 580 LINE",
"417 412 LINE",
"51 244 LINE",
"51 166 LINE"
);
},
{
closed = 1;
nodes = (
"521 47 LINE",
"521 118 LINE",
"51 118 LINE",
"51 47 LINE"
);
}
);
width = 572;
}
);
note = greaterequal;
unicode = 2265;
script = "";
category = Symbol;
subCategory = Math;
},
{
glyphname = notsubset;
lastChange = "2019-05-10 14:47:23 +0000";
layers = (
{
layerId = "9166331D-2337-4AD9-B82D-8EEBFFA66093";
paths = (
{
closed = 1;
nodes = (
"648 62 LINE",
"648 132 LINE",
"379 132 LINE SMOOTH",
"205 132 OFFCURVE",
"123 199 OFFCURVE",
"123 353 CURVE SMOOTH",
"123 507 OFFCURVE",
"206 573 OFFCURVE",
"379 573 CURVE SMOOTH",
"648 573 LINE",
"648 644 LINE",
"379 644 LINE SMOOTH",
"162 644 OFFCURVE",
"51 543 OFFCURVE",
"51 353 CURVE SMOOTH",
"51 164 OFFCURVE",
"162 62 OFFCURVE",
"379 62 CURVE SMOOTH"
);
},
{
closed = 1;
nodes = (
"617 740 LINE",
"555 763 LINE",
"249 -34 LINE",
"311 -57 LINE"
);
}
);
width = 699;
}
);
note = notsubset;
unicode = 2284;
script = "";
category = Symbol;
subCategory = Math;
},
{
glyphname = reflexsubset;
lastChange = "2019-05-10 14:47:23 +0000";
layers = (
{
layerId = "9166331D-2337-4AD9-B82D-8EEBFFA66093";
paths = (
{
closed = 1;
nodes = (
"648 140 LINE",
"648 210 LINE",
"379 210 LINE SMOOTH",
"205 210 OFFCURVE",
"123 277 OFFCURVE",
"123 431 CURVE SMOOTH",
"123 585 OFFCURVE",
"206 651 OFFCURVE",
"379 651 CURVE SMOOTH",
"648 651 LINE",
"648 722 LINE",
"379 722 LINE SMOOTH",
"162 722 OFFCURVE",
"51 621 OFFCURVE",
"51 431 CURVE SMOOTH",
"51 242 OFFCURVE",
"162 140 OFFCURVE",
"379 140 CURVE SMOOTH"
);
},
{
closed = 1;
nodes = (
"648 0 LINE",
"648 71 LINE",
"91 71 LINE",
"91 0 LINE"
);
}
);
width = 699;
}
);
note = reflexsubset;
unicode = 2286;
script = "";
category = Symbol;
subCategory = Math;
},
{
glyphname = reflexsuperset;
lastChange = "2019-05-10 14:47:23 +0000";
layers = (
{
layerId = "9166331D-2337-4AD9-B82D-8EEBFFA66093";
paths = (
{
closed = 1;
nodes = (
"320 140 LINE SMOOTH",
"537 140 OFFCURVE",
"648 242 OFFCURVE",
"648 431 CURVE SMOOTH",
"648 621 OFFCURVE",
"537 722 OFFCURVE",
"320 722 CURVE SMOOTH",
"51 722 LINE",
"51 651 LINE",
"320 651 LINE SMOOTH",
"493 651 OFFCURVE",
"576 585 OFFCURVE",
"576 431 CURVE SMOOTH",
"576 277 OFFCURVE",
"494 210 OFFCURVE",
"320 210 CURVE SMOOTH",
"51 210 LINE",
"51 140 LINE"
);
},
{
closed = 1;
nodes = (
"608 0 LINE",
"608 71 LINE",
"51 71 LINE",
"51 0 LINE"
);
}
);
width = 699;
}
);
note = reflexsuperset;
unicode = 2287;
script = "";
category = Symbol;
subCategory = Math;
},
{
glyphname = perpendicular;
production = uni27C2;
lastChange = "2019-05-10 14:47:10 +0000";
layers = (
{
layerId = "9166331D-2337-4AD9-B82D-8EEBFFA66093";
paths = (
{
closed = 1;
nodes = (
"705 26 LINE",
"705 97 LINE",
"413 97 LINE",
"413 680 LINE",
"342 680 LINE",
"342 97 LINE",
"51 97 LINE",
"51 26 LINE"
);
}
);
width = 756;
}
);
note = uni27C2;
unicode = 27C2;
script = "";
category = Symbol;
subCategory = Math;
},
{
glyphname = dotmath;
lastChange = "2019-05-10 14:47:10 +0000";
layers = (
{
layerId = "9166331D-2337-4AD9-B82D-8EEBFFA66093";
paths = (
{
closed = 1;
nodes = (
"144 292 OFFCURVE",
"171 319 OFFCURVE",
"171 352 CURVE SMOOTH",
"171 387 OFFCURVE",
"142 412 OFFCURVE",
"111 412 CURVE SMOOTH",
"78 412 OFFCURVE",
"51 385 OFFCURVE",
"51 352 CURVE SMOOTH",
"51 320 OFFCURVE",
"77 292 OFFCURVE",
"111 292 CURVE SMOOTH"
);
}
);
width = 222;
}
);
note = dotmath;
unicode = 22C5;
script = "";
category = Symbol;
subCategory = Math;
},
{
glyphname = integraltp;
lastChange = "2019-05-10 14:47:23 +0000";
layers = (
{
layerId = "9166331D-2337-4AD9-B82D-8EEBFFA66093";
paths = (
{
closed = 1;
nodes = (
"236 -293 LINE",
"236 885 LINE SMOOTH",
"236 961 OFFCURVE",
"264 999 OFFCURVE",
"319 999 CURVE SMOOTH",
"337 999 OFFCURVE",
"356 995 OFFCURVE",
"375 987 CURVE",
"375 1060 LINE",
"360 1066 OFFCURVE",
"339 1069 OFFCURVE",
"312 1069 CURVE SMOOTH",
"205 1069 OFFCURVE",
"151 1010 OFFCURVE",
"151 891 CURVE SMOOTH",
"151 -293 LINE"
);
}
);
width = 387;
}
);
note = integraltp;
unicode = 2320;
script = "";
category = Symbol;
subCategory = Math;
},
{
glyphname = integralbt;
lastChange = "2019-05-10 14:47:23 +0000";
layers = (
{
layerId = "9166331D-2337-4AD9-B82D-8EEBFFA66093";
paths = (
{
closed = 1;
nodes = (
"182 -293 OFFCURVE",
"236 -232 OFFCURVE",
"236 -115 CURVE SMOOTH",
"236 1069 LINE",
"151 1069 LINE",
"151 -109 LINE SMOOTH",
"151 -185 OFFCURVE",
"123 -223 OFFCURVE",
"68 -223 CURVE SMOOTH",
"49 -223 OFFCURVE",
"30 -219 OFFCURVE",
"12 -211 CURVE",
"12 -284 LINE",
"28 -290 OFFCURVE",
"49 -293 OFFCURVE",
"75 -293 CURVE SMOOTH"
);
}
);
width = 387;
}
);
note = integralbt;
unicode = 2321;
script = "";
category = Symbol;
subCategory = Math;
},
{
glyphname = lozenge;
lastChange = "2019-05-10 14:47:10 +0000";
layers = (
{
layerId = "9166331D-2337-4AD9-B82D-8EEBFFA66093";
paths = (
{
closed = 1;
nodes = (
"309 0 LINE",
"529 360 LINE",
"309 720 LINE",
"271 720 LINE",
"51 360 LINE",
"271 0 LINE"
);
},
{
closed = 1;
nodes = (
"136 360 LINE",
"290 616 LINE",
"444 360 LINE",
"290 104 LINE"
);
}
);
width = 580;
}
);
unicode = 25CA;
script = "";
category = Symbol;
subCategory = Geometry;
},
{
glyphname = u1D56C;
production = u1D56C;
lastChange = "2019-05-10 14:47:10 +0000";
layers = (
{
layerId = "9166331D-2337-4AD9-B82D-8EEBFFA66093";
paths = (
{
closed = 1;
nodes = (
"529 130 LINE",
"532 90 OFFCURVE",
"549 60 OFFCURVE",
"581 37 CURVE",
"586 33 OFFCURVE",
"589 29 OFFCURVE",
"589 26 CURVE SMOOTH",
"589 21 OFFCURVE",
"586 10 OFFCURVE",
"580 -8 CURVE",
"618 -23 LINE",
"775 141 LINE",
"750 171 LINE",
"727 152 OFFCURVE",
"709 143 OFFCURVE",
"698 143 CURVE SMOOTH",
"688 143 OFFCURVE",
"681 149 OFFCURVE",
"674 162 CURVE SMOOTH",
"667 175 OFFCURVE",
"664 193 OFFCURVE",
"664 218 CURVE SMOOTH",
"664 573 LINE SMOOTH",
"664 644 OFFCURVE",
"682 684 OFFCURVE",
"733 707 CURVE",
"733 747 LINE",
"650 736 OFFCURVE",
"608 700 OFFCURVE",
"575 638 CURVE",
"542 702 LINE",
"506 680 LINE",
"519 648 OFFCURVE",
"526 611 OFFCURVE",
"526 570 CURVE SMOOTH",
"526 182 LINE",
"461 138 OFFCURVE",
"375 93 OFFCURVE",
"355 93 CURVE SMOOTH",
"347 93 OFFCURVE",
"334 102 OFFCURVE",
"318 120 CURVE SMOOTH",
"254 190 LINE",
"378 269 OFFCURVE",
"452 391 OFFCURVE",
"452 507 CURVE SMOOTH",
"452 648 OFFCURVE",
"359 747 OFFCURVE",
"238 747 CURVE SMOOTH",
"114 747 OFFCURVE",
"28 655 OFFCURVE",
"28 522 CURVE SMOOTH",
"28 402 OFFCURVE",
"97 323 OFFCURVE",
"230 305 CURVE",
"238 345 LINE",
"127 364 OFFCURVE",
"72 416 OFFCURVE",
"72 502 CURVE SMOOTH",
"72 576 OFFCURVE",
"127 628 OFFCURVE",
"198 628 CURVE SMOOTH",
"285 628 OFFCURVE",
"337 559 OFFCURVE",
"337 451 CURVE SMOOTH",
"337 295 OFFCURVE",
"248 204 OFFCURVE",
"65 151 CURVE",
"79 113 LINE",
"98 121 OFFCURVE",
"115 125 OFFCURVE",
"128 125 CURVE SMOOTH",
"153 125 OFFCURVE",
"235 38 OFFCURVE",
"235 19 CURVE SMOOTH",
"235 15 OFFCURVE",
"226 7 OFFCURVE",
"208 -3 CURVE",
"236 -32 LINE"
);
}
);
width = 781;
}
);
note = u1D56C;
unicode = 1D56C;
script = "Black Letter";
category = Letter;
subCategory = Uppercase;
},
{
glyphname = "BBold-fraktur";
production = u1D56D;
lastChange = "2019-05-10 14:47:10 +0000";
layers = (
{
layerId = "9166331D-2337-4AD9-B82D-8EEBFFA66093";
paths = (
{
closed = 1;
nodes = (
"460 -22 OFFCURVE",
"523 -9 OFFCURVE",
"594 16 CURVE SMOOTH",
"735 66 OFFCURVE",
"813 148 OFFCURVE",
"813 255 CURVE SMOOTH",
"813 350 OFFCURVE",
"755 428 OFFCURVE",
"665 457 CURVE",
"801 538 LINE",
"779 572 LINE",
"768 566 OFFCURVE",
"761 564 OFFCURVE",
"757 564 CURVE SMOOTH",
"753 564 OFFCURVE",
"747 566 OFFCURVE",
"739 572 CURVE",
"724 582 OFFCURVE",
"684 638 OFFCURVE",
"672 668 CURVE SMOOTH",
"666 683 OFFCURVE",
"663 692 OFFCURVE",
"663 695 CURVE SMOOTH",
"663 702 OFFCURVE",
"667 708 OFFCURVE",
"677 716 CURVE",
"657 751 LINE",
"625 730 OFFCURVE",
"589 712 OFFCURVE",
"550 693 CURVE SMOOTH",
"511 674 OFFCURVE",
"475 656 OFFCURVE",
"441 639 CURVE",
"396 707 OFFCURVE",
"325 746 OFFCURVE",
"249 746 CURVE SMOOTH",
"125 746 OFFCURVE",
"40 651 OFFCURVE",
"40 522 CURVE SMOOTH",
"40 402 OFFCURVE",
"112 323 OFFCURVE",
"245 305 CURVE",
"253 345 LINE",
"140 364 OFFCURVE",
"84 416 OFFCURVE",
"84 502 CURVE SMOOTH",
"84 577 OFFCURVE",
"146 631 OFFCURVE",
"218 631 CURVE SMOOTH",
"309 631 OFFCURVE",
"374 549 OFFCURVE",
"374 446 CURVE SMOOTH",
"374 396 OFFCURVE",
"364 352 OFFCURVE",
"344 318 CURVE SMOOTH",
"303 249 OFFCURVE",
"224 213 OFFCURVE",
"155 203 CURVE SMOOTH",
"86 193 OFFCURVE",
"37 153 OFFCURVE",
"37 100 CURVE SMOOTH",
"37 70 OFFCURVE",
"50 38 OFFCURVE",
"75 3 CURVE",
"111 20 LINE",
"103 36 OFFCURVE",
"99 49 OFFCURVE",
"99 59 CURVE SMOOTH",
"99 81 OFFCURVE",
"111 92 OFFCURVE",
"134 92 CURVE SMOOTH",
"145 92 OFFCURVE",
"158 87 OFFCURVE",
"174 79 CURVE SMOOTH",
"325 -1 LINE SMOOTH",
"351 -15 OFFCURVE",
"378 -22 OFFCURVE",
"407 -22 CURVE SMOOTH"
);
},
{
closed = 1;
nodes = (
"522 61 OFFCURVE",
"469 81 OFFCURVE",
"403 121 CURVE SMOOTH",
"337 161 OFFCURVE",
"290 184 OFFCURVE",
"261 193 CURVE",
"332 220 OFFCURVE",
"375 239 OFFCURVE",
"394 251 CURVE SMOOTH",
"429 274 OFFCURVE",
"451 303 OFFCURVE",
"468 360 CURVE",
"481 367 OFFCURVE",
"498 371 OFFCURVE",
"519 371 CURVE SMOOTH",
"604 371 OFFCURVE",
"673 303 OFFCURVE",
"673 207 CURVE SMOOTH",
"673 126 OFFCURVE",
"625 61 OFFCURVE",
"562 61 CURVE SMOOTH"
);
},
{
closed = 1;
nodes = (
"487 432 OFFCURVE",
"489 453 OFFCURVE",
"489 476 CURVE SMOOTH",
"489 520 OFFCURVE",
"480 562 OFFCURVE",
"462 602 CURVE",
"509 629 OFFCURVE",
"537 643 OFFCURVE",
"544 643 CURVE SMOOTH",
"563 643 OFFCURVE",
"638 525 OFFCURVE",
"638 501 CURVE SMOOTH",
"638 497 OFFCURVE",
"625 489 OFFCURVE",
"603 476 CURVE SMOOTH",
"580 463 OFFCURVE",
"547 445 OFFCURVE",
"483 412 CURVE"
);
}
);
width = 855;
}
);
note = u1D56D;
unicode = 1D56D;
script = "Black Letter";
category = Letter;
subCategory = Uppercase;
},
{
glyphname = u1D56E;
production = u1D56E;
lastChange = "2019-05-10 14:47:10 +0000";
layers = (
{
layerId = "9166331D-2337-4AD9-B82D-8EEBFFA66093";
paths = (
{
closed = 1;
nodes = (
"500 -23 OFFCURVE",
"524 -21 OFFCURVE",
"546 -16 CURVE",
"726 133 LINE",
"703 166 LINE",
"666 139 OFFCURVE",
"577 113 OFFCURVE",
"507 113 CURVE SMOOTH",
"467 113 OFFCURVE",
"434 116 OFFCURVE",
"409 123 CURVE",
"478 191 OFFCURVE",
"516 231 OFFCURVE",
"524 242 CURVE SMOOTH",
"532 254 OFFCURVE",
"537 264 OFFCURVE",
"537 273 CURVE SMOOTH",
"537 291 OFFCURVE",
"511 342 OFFCURVE",
"460 427 CURVE SMOOTH",
"409 511 OFFCURVE",
"383 562 OFFCURVE",
"383 578 CURVE SMOOTH",
"383 598 OFFCURVE",
"415 628 OFFCURVE",
"446 628 CURVE SMOOTH",
"462 628 OFFCURVE",
"486 620 OFFCURVE",
"518 604 CURVE SMOOTH",
"550 588 OFFCURVE",
"574 580 OFFCURVE",
"589 580 CURVE SMOOTH",
"603 580 OFFCURVE",
"618 591 OFFCURVE",
"636 610 CURVE SMOOTH",
"728 708 LINE",
"699 735 LINE",
"678 714 OFFCURVE",
"663 699 OFFCURVE",
"648 699 CURVE SMOOTH",
"642 699 OFFCURVE",
"609 712 OFFCURVE",
"552 736 CURVE SMOOTH",
"543 740 OFFCURVE",
"535 741 OFFCURVE",
"525 741 CURVE SMOOTH",
"517 741 OFFCURVE",
"509 739 OFFCURVE",
"501 734 CURVE SMOOTH",
"494 730 OFFCURVE",
"478 718 OFFCURVE",
"454 700 CURVE SMOOTH",
"405 663 LINE",
"391 714 OFFCURVE",
"342 742 OFFCURVE",
"282 742 CURVE SMOOTH",
"145 742 OFFCURVE",
"46 605 OFFCURVE",
"46 404 CURVE SMOOTH",
"46 328 OFFCURVE",
"65 257 OFFCURVE",
"103 191 CURVE SMOOTH",
"179 59 OFFCURVE",
"322 -23 OFFCURVE",
"473 -23 CURVE SMOOTH"
);
},
{
closed = 1;
nodes = (
"245 185 OFFCURVE",
"163 308 OFFCURVE",
"163 447 CURVE SMOOTH",
"163 596 OFFCURVE",
"214 699 OFFCURVE",
"292 699 CURVE SMOOTH",
"327 699 OFFCURVE",
"364 678 OFFCURVE",
"374 643 CURVE",
"332 610 OFFCURVE",
"299 584 OFFCURVE",
"277 565 CURVE SMOOTH",
"254 545 OFFCURVE",
"243 529 OFFCURVE",
"243 516 CURVE SMOOTH",
"243 503 OFFCURVE",
"250 486 OFFCURVE",
"262 466 CURVE SMOOTH",
"353 318 LINE SMOOTH",
"387 263 OFFCURVE",
"404 226 OFFCURVE",
"404 206 CURVE SMOOTH",
"404 185 OFFCURVE",
"393 161 OFFCURVE",
"372 136 CURVE"
);
}
);
width = 745;
}
);
note = u1D56E;
unicode = 1D56E;
script = "Black Letter";
category = Letter;
subCategory = Uppercase;
},
{
glyphname = u1D56F;
production = u1D56F;
lastChange = "2019-05-10 14:47:10 +0000";
layers = (
{
layerId = "9166331D-2337-4AD9-B82D-8EEBFFA66093";
paths = (
{
closed = 1;
nodes = (
"485 -23 OFFCURVE",
"532 -8 OFFCURVE",
"584 22 CURVE SMOOTH",
"690 82 OFFCURVE",
"762 174 OFFCURVE",
"762 290 CURVE SMOOTH",
"762 364 OFFCURVE",
"741 438 OFFCURVE",
"697 509 CURVE SMOOTH",
"609 652 OFFCURVE",
"449 747 OFFCURVE",
"283 747 CURVE SMOOTH",
"132 747 OFFCURVE",
"24 660 OFFCURVE",
"24 525 CURVE SMOOTH",
"24 448 OFFCURVE",
"66 394 OFFCURVE",
"151 362 CURVE",
"163 403 LINE",
"106 424 OFFCURVE",
"69 473 OFFCURVE",
"69 520 CURVE SMOOTH",
"69 584 OFFCURVE",
"126 622 OFFCURVE",
"220 622 CURVE SMOOTH",
"277 622 OFFCURVE",
"329 612 OFFCURVE",
"374 593 CURVE",
"275 568 OFFCURVE",
"197 514 OFFCURVE",
"197 461 CURVE SMOOTH",
"197 415 OFFCURVE",
"235 369 OFFCURVE",
"276 321 CURVE SMOOTH",
"297 296 OFFCURVE",
"307 275 OFFCURVE",
"307 258 CURVE SMOOTH",
"307 239 OFFCURVE",
"293 225 OFFCURVE",
"265 214 CURVE",
"257 216 OFFCURVE",
"246 218 OFFCURVE",
"232 218 CURVE SMOOTH",
"175 218 OFFCURVE",
"118 177 OFFCURVE",
"60 96 CURVE",
"87 66 LINE",
"123 93 OFFCURVE",
"148 106 OFFCURVE",
"163 106 CURVE SMOOTH",
"167 106 LINE SMOOTH",
"177 106 OFFCURVE",
"202 93 OFFCURVE",
"241 66 CURVE SMOOTH",
"321 11 OFFCURVE",
"371 -23 OFFCURVE",
"446 -23 CURVE SMOOTH"
);
},
{
closed = 1;
nodes = (
"500 81 OFFCURVE",
"450 99 OFFCURVE",
"392 138 CURVE SMOOTH",
"314 190 LINE",
"358 210 LINE SMOOTH",
"415 236 OFFCURVE",
"444 261 OFFCURVE",
"444 288 CURVE SMOOTH",
"444 321 OFFCURVE",
"365 429 OFFCURVE",
"345 456 CURVE SMOOTH",
"336 469 OFFCURVE",
"331 482 OFFCURVE",
"331 496 CURVE SMOOTH",
"331 531 OFFCURVE",
"371 558 OFFCURVE",
"437 563 CURVE",
"596 471 OFFCURVE",
"691 344 OFFCURVE",
"691 231 CURVE SMOOTH",
"691 148 OFFCURVE",
"621 81 OFFCURVE",
"537 81 CURVE SMOOTH"
);
}
);
width = 813;
}
);
note = u1D56F;
unicode = 1D56F;
script = "Black Letter";
category = Letter;
subCategory = Uppercase;
},
{
glyphname = u1D570;
production = u1D570;
lastChange = "2019-05-10 14:47:10 +0000";
layers = (
{
layerId = "9166331D-2337-4AD9-B82D-8EEBFFA66093";
paths = (
{
closed = 1;
nodes = (
"500 -23 OFFCURVE",
"524 -21 OFFCURVE",
"546 -16 CURVE",
"726 133 LINE",
"702 165 LINE",
"646 133 OFFCURVE",
"561 113 OFFCURVE",
"497 113 CURVE SMOOTH",
"439 113 OFFCURVE",
"385 127 OFFCURVE",
"332 156 CURVE SMOOTH",
"227 213 OFFCURVE",
"163 316 OFFCURVE",
"163 447 CURVE SMOOTH",
"163 610 OFFCURVE",
"215 704 OFFCURVE",
"295 704 CURVE SMOOTH",
"342 704 OFFCURVE",
"375 679 OFFCURVE",
"388 640 CURVE",
"359 614 OFFCURVE",
"337 593 OFFCURVE",
"323 578 CURVE SMOOTH",
"309 563 OFFCURVE",
"302 547 OFFCURVE",
"302 533 CURVE SMOOTH",
"302 512 OFFCURVE",
"315 486 OFFCURVE",
"342 455 CURVE SMOOTH",
"421 365 LINE SMOOTH",
"452 330 OFFCURVE",
"478 297 OFFCURVE",
"478 261 CURVE SMOOTH",
"478 231 OFFCURVE",
"450 214 OFFCURVE",
"414 214 CURVE SMOOTH",
"373 214 OFFCURVE",
"339 246 OFFCURVE",
"322 297 CURVE",
"283 280 LINE",
"305 207 OFFCURVE",
"349 171 OFFCURVE",
"415 171 CURVE SMOOTH",
"436 171 OFFCURVE",
"455 175 OFFCURVE",
"472 182 CURVE SMOOTH",
"506 196 OFFCURVE",
"530 227 OFFCURVE",
"537 266 CURVE SMOOTH",
"540 285 OFFCURVE",
"550 304 OFFCURVE",
"563 323 CURVE SMOOTH",
"576 342 OFFCURVE",
"582 356 OFFCURVE",
"582 367 CURVE SMOOTH",
"582 382 OFFCURVE",
"570 405 OFFCURVE",
"545 437 CURVE",
"559 449 LINE",
"602 430 OFFCURVE",
"616 417 OFFCURVE",
"633 390 CURVE",
"662 390 LINE",
"675 416 OFFCURVE",
"694 438 OFFCURVE",
"721 457 CURVE",
"721 487 LINE",
"674 502 OFFCURVE",
"655 520 OFFCURVE",
"633 550 CURVE",
"603 550 LINE",
"597 537 OFFCURVE",
"587 523 OFFCURVE",
"573 511 CURVE SMOOTH",
"522 466 LINE",
"467 530 LINE SMOOTH",
"436 567 OFFCURVE",
"419 589 OFFCURVE",
"419 600 CURVE SMOOTH",
"419 614 OFFCURVE",
"443 633 OFFCURVE",
"464 633 CURVE SMOOTH",
"479 633 OFFCURVE",
"505 625 OFFCURVE",
"541 611 CURVE SMOOTH",
"577 597 OFFCURVE",
"599 589 OFFCURVE",
"607 589 CURVE SMOOTH",
"617 589 OFFCURVE",
"628 599 OFFCURVE",
"643 616 CURVE SMOOTH",
"731 717 LINE",
"699 741 LINE",
"678 720 OFFCURVE",
"663 705 OFFCURVE",
"648 705 CURVE SMOOTH",
"634 705 OFFCURVE",
"598 717 OFFCURVE",
"541 742 CURVE SMOOTH",
"532 746 OFFCURVE",
"523 747 OFFCURVE",
"514 747 CURVE SMOOTH",
"501 747 OFFCURVE",
"487 739 OFFCURVE",
"473 724 CURVE SMOOTH",
"459 709 OFFCURVE",
"441 690 OFFCURVE",
"418 668 CURVE",
"395 721 OFFCURVE",
"349 747 OFFCURVE",
"282 747 CURVE SMOOTH",
"146 747 OFFCURVE",
"46 608 OFFCURVE",
"46 404 CURVE SMOOTH",
"46 327 OFFCURVE",
"65 255 OFFCURVE",
"104 189 CURVE SMOOTH",
"182 57 OFFCURVE",
"323 -23 OFFCURVE",
"473 -23 CURVE SMOOTH"
);
}
);
width = 757;
}
);
note = u1D570;
unicode = 1D570;
script = "Black Letter";
category = Letter;
subCategory = Uppercase;
},
{
glyphname = u1D571;
production = u1D571;
lastChange = "2019-05-10 14:47:10 +0000";
layers = (
{
layerId = "9166331D-2337-4AD9-B82D-8EEBFFA66093";
paths = (
{
closed = 1;
nodes = (
"444 -184 OFFCURVE",
"560 -92 OFFCURVE",
"560 45 CURVE SMOOTH",
"560 127 OFFCURVE",
"510 203 OFFCURVE",
"434 289 CURVE",
"449 302 OFFCURVE",
"462 308 OFFCURVE",
"473 308 CURVE SMOOTH",
"492 308 OFFCURVE",
"512 293 OFFCURVE",
"531 264 CURVE",
"561 264 LINE",
"575 292 OFFCURVE",
"594 314 OFFCURVE",
"617 331 CURVE",
"617 361 LINE",
"571 368 OFFCURVE",
"552 380 OFFCURVE",
"529 411 CURVE",
"499 411 LINE",
"485 382 OFFCURVE",
"455 356 OFFCURVE",
"410 317 CURVE",
"372 361 OFFCURVE",
"332 408 OFFCURVE",
"332 449 CURVE SMOOTH",
"332 497 OFFCURVE",
"352 538 OFFCURVE",
"391 572 CURVE",
"431 556 LINE SMOOTH",
"490 532 OFFCURVE",
"526 519 OFFCURVE",
"540 519 CURVE SMOOTH",
"547 519 OFFCURVE",
"557 525 OFFCURVE",
"569 537 CURVE SMOOTH",
"684 647 LINE",
"657 676 LINE",
"641 660 OFFCURVE",
"625 652 OFFCURVE",
"610 652 CURVE SMOOTH",
"602 652 OFFCURVE",
"584 657 OFFCURVE",
"559 667 CURVE SMOOTH",
"423 720 OFFCURVE",
"320 747 OFFCURVE",
"249 747 CURVE SMOOTH",
"120 747 OFFCURVE",
"-4 648 OFFCURVE",
"-4 531 CURVE SMOOTH",
"-4 447 OFFCURVE",
"50 390 OFFCURVE",
"113 363 CURVE",
"129 402 LINE",
"64 429 OFFCURVE",
"40 476 OFFCURVE",
"40 515 CURVE SMOOTH",
"40 578 OFFCURVE",
"110 621 OFFCURVE",
"192 621 CURVE SMOOTH",
"253 621 OFFCURVE",
"297 606 OFFCURVE",
"344 589 CURVE",
"241 496 OFFCURVE",
"189 427 OFFCURVE",
"189 384 CURVE SMOOTH",
"189 349 OFFCURVE",
"200 315 OFFCURVE",
"222 284 CURVE SMOOTH",
"244 252 OFFCURVE",
"283 205 OFFCURVE",
"337 141 CURVE SMOOTH",
"391 78 OFFCURVE",
"419 28 OFFCURVE",
"419 -9 CURVE SMOOTH",
"419 -86 OFFCURVE",
"373 -138 OFFCURVE",
"281 -138 CURVE SMOOTH",
"189 -138 OFFCURVE",
"130 -95 OFFCURVE",
"130 -34 CURVE SMOOTH",
"130 -13 OFFCURVE",
"137 8 OFFCURVE",
"153 30 CURVE SMOOTH",
"185 74 OFFCURVE",
"217 120 OFFCURVE",
"217 171 CURVE SMOOTH",
"217 220 OFFCURVE",
"181 258 OFFCURVE",
"128 258 CURVE SMOOTH",
"84 258 OFFCURVE",
"51 231 OFFCURVE",
"26 178 CURVE",
"63 158 LINE",
"76 184 OFFCURVE",
"93 216 OFFCURVE",
"124 216 CURVE SMOOTH",
"143 216 OFFCURVE",
"153 206 OFFCURVE",
"153 186 CURVE SMOOTH",
"153 172 OFFCURVE",
"145 156 OFFCURVE",
"128 136 CURVE SMOOTH",
"95 97 OFFCURVE",
"57 38 OFFCURVE",
"57 -12 CURVE SMOOTH",
"57 -113 OFFCURVE",
"159 -184 OFFCURVE",
"292 -184 CURVE SMOOTH"
);
}
);
width = 657;
}
);
note = u1D571;
unicode = 1D571;
script = "Black Letter";
category = Letter;
subCategory = Uppercase;
},
{
glyphname = u1D572;
production = u1D572;
lastChange = "2019-05-10 14:47:10 +0000";
layers = (
{
layerId = "9166331D-2337-4AD9-B82D-8EEBFFA66093";
paths = (
{
closed = 1;
nodes = (
"622 -23 OFFCURVE",
"749 83 OFFCURVE",
"749 245 CURVE SMOOTH",
"749 334 OFFCURVE",
"706 404 OFFCURVE",
"620 454 CURVE",
"642 468 OFFCURVE",
"665 492 OFFCURVE",
"688 524 CURVE SMOOTH",
"711 556 OFFCURVE",
"734 582 OFFCURVE",
"758 600 CURVE",
"731 628 LINE",
"720 620 OFFCURVE",
"712 616 OFFCURVE",
"709 616 CURVE SMOOTH",
"689 616 OFFCURVE",
"610 693 OFFCURVE",
"610 705 CURVE SMOOTH",
"610 709 OFFCURVE",
"615 718 OFFCURVE",
"626 733 CURVE",
"596 758 LINE",
"536 695 LINE SMOOTH",
"519 677 OFFCURVE",
"510 663 OFFCURVE",
"510 653 CURVE SMOOTH",
"510 644 OFFCURVE",
"518 631 OFFCURVE",
"535 616 CURVE SMOOTH",
"596 562 LINE SMOOTH",
"613 547 OFFCURVE",
"622 535 OFFCURVE",
"622 525 CURVE SMOOTH",
"622 502 OFFCURVE",
"585 466 OFFCURVE",
"525 446 CURVE SMOOTH",
"481 431 LINE SMOOTH",
"468 427 OFFCURVE",
"454 418 OFFCURVE",
"441 407 CURVE",
"461 432 OFFCURVE",
"478 468 OFFCURVE",
"478 486 CURVE SMOOTH",
"478 497 OFFCURVE",
"466 522 OFFCURVE",
"443 560 CURVE SMOOTH",
"420 597 OFFCURVE",
"408 623 OFFCURVE",
"408 637 CURVE SMOOTH",
"408 646 OFFCURVE",
"412 658 OFFCURVE",
"420 674 CURVE",
"437 666 OFFCURVE",
"452 657 OFFCURVE",
"463 647 CURVE",
"484 681 LINE",
"469 693 OFFCURVE",
"454 703 OFFCURVE",
"440 710 CURVE",
"464 739 LINE",
"432 763 LINE",
"399 728 LINE",
"372 737 OFFCURVE",
"347 742 OFFCURVE",
"323 742 CURVE SMOOTH",
"272 742 OFFCURVE",
"225 727 OFFCURVE",
"183 697 CURVE SMOOTH",
"98 637 OFFCURVE",
"46 521 OFFCURVE",
"46 381 CURVE SMOOTH",
"46 143 OFFCURVE",
"200 -23 OFFCURVE",
"439 -23 CURVE SMOOTH"
);
},
{
closed = 1;
nodes = (
"333 21 OFFCURVE",
"244 126 OFFCURVE",
"200 336 CURVE",
"231 316 OFFCURVE",
"264 306 OFFCURVE",
"299 306 CURVE SMOOTH",
"324 306 OFFCURVE",
"353 317 OFFCURVE",
"385 340 CURVE SMOOTH",
"417 363 OFFCURVE",
"446 374 OFFCURVE",
"470 374 CURVE SMOOTH",
"549 374 OFFCURVE",
"609 300 OFFCURVE",
"609 202 CURVE SMOOTH",
"609 91 OFFCURVE",
"547 21 OFFCURVE",
"444 21 CURVE SMOOTH"
);
},
{
closed = 1;
nodes = (
"254 350 OFFCURVE",
"214 365 OFFCURVE",
"193 394 CURVE",
"193 416 LINE SMOOTH",
"193 577 OFFCURVE",
"253 697 OFFCURVE",
"331 697 CURVE SMOOTH",
"346 697 OFFCURVE",
"357 695 OFFCURVE",
"366 692 CURVE",
"342 664 LINE SMOOTH",
"301 617 OFFCURVE",
"280 588 OFFCURVE",
"280 575 CURVE SMOOTH",
"280 554 OFFCURVE",
"290 533 OFFCURVE",
"303 510 CURVE SMOOTH",
"312 495 OFFCURVE",
"322 479 OFFCURVE",
"333 463 CURVE SMOOTH",
"346 443 OFFCURVE",
"352 423 OFFCURVE",
"352 405 CURVE SMOOTH",
"352 375 OFFCURVE",
"319 350 OFFCURVE",
"290 350 CURVE SMOOTH"
);
}
);
width = 804;
}
);
note = u1D572;
unicode = 1D572;
script = "Black Letter";
category = Letter;
subCategory = Uppercase;
},
{
glyphname = u1D573;
production = u1D573;
lastChange = "2019-05-10 14:47:10 +0000";
layers = (
{
layerId = "9166331D-2337-4AD9-B82D-8EEBFFA66093";
paths = (
{
closed = 1;
nodes = (
"336 -208 OFFCURVE",
"390 -178 OFFCURVE",
"409 -118 CURVE",
"371 -99 LINE",
"353 -143 OFFCURVE",
"321 -165 OFFCURVE",
"276 -165 CURVE SMOOTH",
"221 -165 OFFCURVE",
"177 -126 OFFCURVE",
"177 -75 CURVE SMOOTH",
"177 -27 OFFCURVE",
"210 5 OFFCURVE",
"255 5 CURVE SMOOTH",
"283 5 OFFCURVE",
"313 -10 OFFCURVE",
"314 -36 CURVE SMOOTH",
"314 -42 OFFCURVE",
"313 -46 OFFCURVE",
"310 -51 CURVE",
"334 -70 LINE",
"343 -62 OFFCURVE",
"366 -54 OFFCURVE",
"403 -45 CURVE SMOOTH",
"492 -24 LINE SMOOTH",
"614 5 OFFCURVE",
"709 142 OFFCURVE",
"709 275 CURVE SMOOTH",
"709 396 OFFCURVE",
"656 485 OFFCURVE",
"560 536 CURVE SMOOTH",
"541 546 LINE SMOOTH",
"532 551 OFFCURVE",
"529 557 OFFCURVE",
"528 563 CURVE",
"498 563 LINE",
"494 547 OFFCURVE",
"467 531 OFFCURVE",
"417 514 CURVE SMOOTH",
"366 497 OFFCURVE",
"331 480 OFFCURVE",
"311 464 CURVE",
"298 483 OFFCURVE",
"286 500 OFFCURVE",
"273 518 CURVE SMOOTH",
"261 535 OFFCURVE",
"255 550 OFFCURVE",
"255 565 CURVE SMOOTH",
"255 600 OFFCURVE",
"287 634 OFFCURVE",
"311 634 CURVE SMOOTH",
"323 634 OFFCURVE",
"344 627 OFFCURVE",
"375 615 CURVE SMOOTH",
"405 603 OFFCURVE",
"423 596 OFFCURVE",
"428 596 CURVE SMOOTH",
"443 596 OFFCURVE",
"458 605 OFFCURVE",
"474 622 CURVE SMOOTH",
"560 716 LINE",
"529 740 LINE",
"512 720 OFFCURVE",
"499 710 OFFCURVE",
"489 710 CURVE SMOOTH",
"477 710 OFFCURVE",
"456 716 OFFCURVE",
"426 728 CURVE SMOOTH",
"396 740 OFFCURVE",
"376 746 OFFCURVE",
"368 746 CURVE SMOOTH",
"348 746 OFFCURVE",
"303 707 OFFCURVE",
"233 629 CURVE SMOOTH",
"193 584 LINE SMOOTH",
"150 535 OFFCURVE",
"128 500 OFFCURVE",
"128 474 CURVE SMOOTH",
"128 450 OFFCURVE",
"150 407 OFFCURVE",
"194 346 CURVE SMOOTH",
"238 285 OFFCURVE",
"260 241 OFFCURVE",
"260 215 CURVE SMOOTH",
"260 193 OFFCURVE",
"240 169 OFFCURVE",
"213 169 CURVE SMOOTH",
"172 169 OFFCURVE",
"118 232 OFFCURVE",
"108 288 CURVE",
"-17 200 LINE",
"7 169 LINE",
"13 173 OFFCURVE",
"25 180 OFFCURVE",
"32 180 CURVE SMOOTH",
"39 180 OFFCURVE",
"46 178 OFFCURVE",
"53 172 CURVE SMOOTH",
"94 141 OFFCURVE",
"143 125 OFFCURVE",
"199 125 CURVE SMOOTH",
"286 125 OFFCURVE",
"401 200 OFFCURVE",
"401 264 CURVE SMOOTH",
"401 295 OFFCURVE",
"385 336 OFFCURVE",
"356 390 CURVE SMOOTH",
"335 429 LINE",
"362 448 OFFCURVE",
"386 458 OFFCURVE",
"407 458 CURVE SMOOTH",
"476 458 OFFCURVE",
"558 351 OFFCURVE",
"558 228 CURVE SMOOTH",
"558 99 OFFCURVE",
"512 21 OFFCURVE",
"445 9 CURVE",
"396 47 OFFCURVE",
"369 69 OFFCURVE",
"366 74 CURVE SMOOTH",
"361 81 OFFCURVE",
"360 84 OFFCURVE",
"360 88 CURVE SMOOTH",
"360 92 OFFCURVE",
"362 97 OFFCURVE",
"365 101 CURVE",
"337 113 LINE",
"328 98 OFFCURVE",
"301 83 OFFCURVE",
"257 70 CURVE SMOOTH",
"169 43 OFFCURVE",
"134 -9 OFFCURVE",
"134 -75 CURVE SMOOTH",
"134 -149 OFFCURVE",
"193 -208 OFFCURVE",
"276 -208 CURVE SMOOTH"
);
}
);
width = 765;
}
);
note = u1D573;
unicode = 1D573;
script = "Black Letter";
category = Letter;
subCategory = Uppercase;
},
{
glyphname = u1D574;
production = u1D574;
lastChange = "2019-05-10 14:47:10 +0000";
layers = (
{
layerId = "9166331D-2337-4AD9-B82D-8EEBFFA66093";
paths = (
{
closed = 1;
nodes = (
"220 -14 OFFCURVE",
"239 -9 OFFCURVE",
"267 -9 CURVE SMOOTH",
"293 -9 LINE SMOOTH",
"334 -9 OFFCURVE",
"370 -3 OFFCURVE",
"399 7 CURVE SMOOTH",
"459 28 OFFCURVE",
"565 133 OFFCURVE",
"565 184 CURVE SMOOTH",
"565 205 OFFCURVE",
"559 230 OFFCURVE",
"515 308 CURVE SMOOTH",
"465 396 OFFCURVE",
"448 426 OFFCURVE",
"448 444 CURVE SMOOTH",
"448 471 OFFCURVE",
"464 485 OFFCURVE",
"484 485 CURVE SMOOTH",
"488 485 OFFCURVE",
"494 480 OFFCURVE",
"503 470 CURVE SMOOTH",
"513 458 OFFCURVE",
"522 454 OFFCURVE",
"535 454 CURVE SMOOTH",
"557 454 OFFCURVE",
"573 471 OFFCURVE",
"573 494 CURVE SMOOTH",
"573 522 OFFCURVE",
"548 539 OFFCURVE",
"521 539 CURVE SMOOTH",
"499 539 OFFCURVE",
"472 532 OFFCURVE",
"444 518 CURVE SMOOTH",
"387 489 OFFCURVE",
"316 414 OFFCURVE",
"316 369 CURVE SMOOTH",
"316 337 OFFCURVE",
"355 267 OFFCURVE",
"401 191 CURVE SMOOTH",
"424 153 OFFCURVE",
"436 125 OFFCURVE",
"436 108 CURVE SMOOTH",
"436 65 OFFCURVE",
"398 40 OFFCURVE",
"359 40 CURVE SMOOTH",
"314 40 OFFCURVE",
"261 86 OFFCURVE",
"261 114 CURVE SMOOTH",
"261 120 OFFCURVE",
"263 128 OFFCURVE",
"268 144 CURVE",
"242 160 LINE",
"224 147 OFFCURVE",
"212 140 OFFCURVE",
"206 140 CURVE SMOOTH",
"197 140 OFFCURVE",
"188 142 OFFCURVE",
"176 146 CURVE SMOOTH",
"165 150 OFFCURVE",
"151 152 OFFCURVE",
"136 152 CURVE SMOOTH",
"82 152 OFFCURVE",
"43 118 OFFCURVE",
"18 50 CURVE",
"58 35 LINE",
"71 68 OFFCURVE",
"92 85 OFFCURVE",
"123 85 CURVE SMOOTH",
"158 85 OFFCURVE",
"183 56 OFFCURVE",
"183 11 CURVE SMOOTH",
"183 5 OFFCURVE",
"183 2 OFFCURVE",
"182 -8 CURVE",
"209 -23 LINE"
);
},
{
closed = 1;
nodes = (
"204 428 LINE",
"132 438 OFFCURVE",
"76 485 OFFCURVE",
"76 541 CURVE SMOOTH",
"76 589 OFFCURVE",
"117 620 OFFCURVE",
"164 620 CURVE SMOOTH",
"191 620 OFFCURVE",
"213 615 OFFCURVE",
"232 605 CURVE SMOOTH",
"287 576 LINE SMOOTH",
"334 551 OFFCURVE",
"366 534 OFFCURVE",
"377 534 CURVE SMOOTH",
"416 534 OFFCURVE",
"568 616 OFFCURVE",
"568 675 CURVE SMOOTH",
"568 706 OFFCURVE",
"547 729 OFFCURVE",
"520 729 CURVE SMOOTH",
"496 729 OFFCURVE",
"477 711 OFFCURVE",
"477 690 CURVE SMOOTH",
"477 678 OFFCURVE",
"487 655 OFFCURVE",
"515 655 CURVE",
"515 650 OFFCURVE",
"483 627 OFFCURVE",
"471 627 CURVE SMOOTH",
"462 627 OFFCURVE",
"448 632 OFFCURVE",
"430 643 CURVE SMOOTH",
"411 654 OFFCURVE",
"390 665 OFFCURVE",
"367 677 CURVE SMOOTH",
"333 694 LINE SMOOTH",
"293 714 OFFCURVE",
"269 731 OFFCURVE",
"269 747 CURVE",
"239 747 LINE",
"237 728 OFFCURVE",
"215 714 OFFCURVE",
"175 703 CURVE SMOOTH",
"93 680 OFFCURVE",
"33 623 OFFCURVE",
"33 541 CURVE SMOOTH",
"33 465 OFFCURVE",
"92 404 OFFCURVE",
"193 387 CURVE"
);
}
);
width = 624;
}
);
note = u1D574;
unicode = 1D574;
script = "Black Letter";
category = Letter;
subCategory = Uppercase;
},
{
glyphname = u1D575;
production = u1D575;
lastChange = "2019-05-10 14:47:10 +0000";
layers = (
{
layerId = "9166331D-2337-4AD9-B82D-8EEBFFA66093";
paths = (
{
closed = 1;
nodes = (
"239 -152 OFFCURVE",
"259 -146 OFFCURVE",
"289 -146 CURVE SMOOTH",
"327 -146 LINE SMOOTH",
"371 -146 OFFCURVE",
"408 -139 OFFCURVE",
"439 -124 CURVE SMOOTH",
"500 -94 OFFCURVE",
"603 31 OFFCURVE",
"603 90 CURVE SMOOTH",
"603 149 OFFCURVE",
"570 217 OFFCURVE",
"547 263 CURVE SMOOTH",
"521 315 OFFCURVE",
"485 391 OFFCURVE",
"485 420 CURVE SMOOTH",
"485 453 OFFCURVE",
"501 471 OFFCURVE",
"521 471 CURVE SMOOTH",
"525 471 OFFCURVE",
"532 465 OFFCURVE",
"541 452 CURVE SMOOTH",
"550 439 OFFCURVE",
"560 433 OFFCURVE",
"573 433 CURVE SMOOTH",
"595 433 OFFCURVE",
"617 449 OFFCURVE",
"617 477 CURVE SMOOTH",
"617 512 OFFCURVE",
"588 532 OFFCURVE",
"561 532 CURVE SMOOTH",
"535 532 OFFCURVE",
"507 524 OFFCURVE",
"478 508 CURVE SMOOTH",
"419 476 OFFCURVE",
"351 375 OFFCURVE",
"351 326 CURVE SMOOTH",
"351 298 OFFCURVE",
"371 235 OFFCURVE",
"412 147 CURVE SMOOTH",
"453 59 OFFCURVE",
"473 6 OFFCURVE",
"473 -13 CURVE SMOOTH",
"473 -50 OFFCURVE",
"433 -95 OFFCURVE",
"384 -95 CURVE SMOOTH",
"325 -95 OFFCURVE",
"278 -55 OFFCURVE",
"278 -7 CURVE SMOOTH",
"278 3 OFFCURVE",
"281 16 OFFCURVE",
"286 29 CURVE",
"260 46 LINE",
"246 30 OFFCURVE",
"233 22 OFFCURVE",
"223 22 CURVE SMOOTH",
"214 22 OFFCURVE",
"204 24 OFFCURVE",
"190 29 CURVE SMOOTH",
"177 34 OFFCURVE",
"163 35 OFFCURVE",
"148 35 CURVE SMOOTH",
"83 35 OFFCURVE",
"40 -1 OFFCURVE",
"21 -73 CURVE",
"60 -89 LINE",
"72 -52 OFFCURVE",
"94 -33 OFFCURVE",
"126 -33 CURVE SMOOTH",
"167 -33 OFFCURVE",
"202 -67 OFFCURVE",
"203 -124 CURVE SMOOTH",
"203 -132 OFFCURVE",
"202 -140 OFFCURVE",
"201 -148 CURVE",
"228 -164 LINE"
);
},
{
closed = 1;
nodes = (
"242 428 LINE",
"170 438 OFFCURVE",
"114 485 OFFCURVE",
"114 541 CURVE SMOOTH",
"114 589 OFFCURVE",
"155 620 OFFCURVE",
"202 620 CURVE SMOOTH",
"243 620 OFFCURVE",
"256 614 OFFCURVE",
"323 577 CURVE SMOOTH",
"368 552 OFFCURVE",
"404 534 OFFCURVE",
"415 534 CURVE SMOOTH",
"454 534 OFFCURVE",
"606 616 OFFCURVE",
"606 675 CURVE SMOOTH",
"606 706 OFFCURVE",
"585 729 OFFCURVE",
"558 729 CURVE SMOOTH",
"534 729 OFFCURVE",
"515 711 OFFCURVE",
"515 690 CURVE SMOOTH",
"515 678 OFFCURVE",
"524 655 OFFCURVE",
"553 655 CURVE",
"553 650 OFFCURVE",
"522 627 OFFCURVE",
"509 627 CURVE SMOOTH",
"500 627 OFFCURVE",
"486 632 OFFCURVE",
"468 643 CURVE SMOOTH",
"449 654 OFFCURVE",
"428 666 OFFCURVE",
"405 677 CURVE SMOOTH",
"366 696 LINE SMOOTH",
"325 716 OFFCURVE",
"307 731 OFFCURVE",
"307 747 CURVE",
"277 747 LINE",
"275 728 OFFCURVE",
"253 714 OFFCURVE",
"213 703 CURVE SMOOTH",
"131 681 OFFCURVE",
"71 623 OFFCURVE",
"71 541 CURVE SMOOTH",
"71 465 OFFCURVE",
"129 404 OFFCURVE",
"231 387 CURVE"
);
}
);
width = 665;
}
);
note = u1D575;
unicode = 1D575;
script = "Black Letter";
category = Letter;
subCategory = Uppercase;
},
{
glyphname = u1D576;
production = u1D576;
lastChange = "2019-05-10 14:47:10 +0000";
layers = (
{
layerId = "9166331D-2337-4AD9-B82D-8EEBFFA66093";
paths = (
{
closed = 1;
nodes = (
"66 -12 OFFCURVE",
"83 -6 OFFCURVE",
"98 -6 CURVE SMOOTH",
"112 -6 OFFCURVE",
"136 -8 OFFCURVE",
"169 -14 CURVE SMOOTH",
"202 -20 OFFCURVE",
"226 -23 OFFCURVE",
"241 -23 CURVE SMOOTH",
"345 -23 OFFCURVE",
"408 36 OFFCURVE",
"408 152 CURVE SMOOTH",
"408 203 OFFCURVE",
"396 250 OFFCURVE",
"371 295 CURVE",
"387 307 OFFCURVE",
"399 313 OFFCURVE",
"408 313 CURVE SMOOTH",
"418 313 OFFCURVE",
"430 301 OFFCURVE",
"444 278 CURVE SMOOTH",
"458 255 OFFCURVE",
"478 211 OFFCURVE",
"502 146 CURVE SMOOTH",
"526 80 OFFCURVE",
"547 35 OFFCURVE",
"564 12 CURVE SMOOTH",
"581 -11 OFFCURVE",
"598 -22 OFFCURVE",
"622 -23 CURVE SMOOTH",
"629 -23 OFFCURVE",
"636 -22 OFFCURVE",
"643 -21 CURVE",
"765 65 LINE",
"743 98 LINE",
"726 86 OFFCURVE",
"713 80 OFFCURVE",
"703 80 CURVE SMOOTH",
"684 80 OFFCURVE",
"665 106 OFFCURVE",
"645 159 CURVE SMOOTH",
"625 211 OFFCURVE",
"604 261 OFFCURVE",
"583 308 CURVE SMOOTH",
"562 354 OFFCURVE",
"543 378 OFFCURVE",
"528 380 CURVE",
"637 446 LINE",
"636 476 LINE",
"613 481 OFFCURVE",
"540 579 OFFCURVE",
"520 632 CURVE",
"490 632 LINE",
"477 616 OFFCURVE",
"465 606 OFFCURVE",
"453 602 CURVE SMOOTH",
"441 598 OFFCURVE",
"423 592 OFFCURVE",
"399 581 CURVE SMOOTH",
"350 559 OFFCURVE",
"313 530 OFFCURVE",
"313 499 CURVE SMOOTH",
"313 492 OFFCURVE",
"314 477 OFFCURVE",
"320 455 CURVE SMOOTH",
"351 331 LINE",
"286 434 LINE SMOOTH",
"263 470 OFFCURVE",
"236 516 OFFCURVE",
"236 544 CURVE SMOOTH",
"236 642 OFFCURVE",
"327 703 OFFCURVE",
"464 703 CURVE SMOOTH",
"587 703 OFFCURVE",
"685 631 OFFCURVE",
"685 539 CURVE SMOOTH",
"685 531 OFFCURVE",
"684 511 OFFCURVE",
"682 502 CURVE SMOOTH",
"679 489 OFFCURVE",
"678 477 OFFCURVE",
"678 473 CURVE SMOOTH",
"678 458 OFFCURVE",
"701 451 OFFCURVE",
"718 451 CURVE SMOOTH",
"749 451 OFFCURVE",
"768 481 OFFCURVE",
"768 518 CURVE SMOOTH",
"768 651 OFFCURVE",
"618 747 OFFCURVE",
"460 747 CURVE SMOOTH",
"253 747 OFFCURVE",
"100 577 OFFCURVE",
"100 499 CURVE SMOOTH",
"100 472 OFFCURVE",
"118 432 OFFCURVE",
"154 379 CURVE SMOOTH",
"206 301 LINE SMOOTH",
"258 223 OFFCURVE",
"286 159 OFFCURVE",
"286 108 CURVE SMOOTH",
"286 50 OFFCURVE",
"266 21 OFFCURVE",
"224 21 CURVE SMOOTH",
"185 21 OFFCURVE",
"156 41 OFFCURVE",
"156 78 CURVE SMOOTH",
"156 91 OFFCURVE",
"161 110 OFFCURVE",
"172 135 CURVE",
"147 154 LINE",
"133 138 OFFCURVE",
"104 128 OFFCURVE",
"84 128 CURVE SMOOTH",
"59 128 OFFCURVE",
"39 132 OFFCURVE",
"23 141 CURVE",
"4 115 LINE",
"26 90 OFFCURVE",
"37 68 OFFCURVE",
"37 50 CURVE SMOOTH",
"37 34 OFFCURVE",
"33 16 OFFCURVE",
"26 -3 CURVE",
"49 -23 LINE"
);
},
{
closed = 1;
nodes = (
"360 468 LINE SMOOTH",
"358 477 OFFCURVE",
"355 492 OFFCURVE",
"355 496 CURVE SMOOTH",
"355 518 OFFCURVE",
"393 543 OFFCURVE",
"420 543 CURVE SMOOTH",
"441 543 OFFCURVE",
"510 457 OFFCURVE",
"510 433 CURVE SMOOTH",
"510 419 OFFCURVE",
"470 392 OFFCURVE",
"389 351 CURVE"
);
}
);
width = 755;
}
);
note = u1D576;
unicode = 1D576;
script = "Black Letter";
category = Letter;
subCategory = Uppercase;
},
{
glyphname = u1D577;
production = u1D577;
lastChange = "2019-05-10 14:47:10 +0000";
layers = (
{
layerId = "9166331D-2337-4AD9-B82D-8EEBFFA66093";
paths = (
{
closed = 1;
nodes = (
"412 -23 OFFCURVE",
"423 -21 OFFCURVE",
"434 -16 CURVE",
"569 140 LINE",
"545 159 LINE",
"516 129 OFFCURVE",
"496 112 OFFCURVE",
"485 108 CURVE SMOOTH",
"474 104 OFFCURVE",
"463 101 OFFCURVE",
"453 101 CURVE SMOOTH",
"417 101 OFFCURVE",
"299 141 OFFCURVE",
"233 173 CURVE",
"313 233 OFFCURVE",
"328 263 OFFCURVE",
"328 304 CURVE SMOOTH",
"328 357 OFFCURVE",
"282 420 OFFCURVE",
"229 486 CURVE SMOOTH",
"203 519 OFFCURVE",
"190 550 OFFCURVE",
"190 579 CURVE SMOOTH",
"190 659 OFFCURVE",
"244 705 OFFCURVE",
"333 705 CURVE SMOOTH",
"427 705 OFFCURVE",
"495 647 OFFCURVE",
"495 568 CURVE SMOOTH",
"495 537 OFFCURVE",
"471 510 OFFCURVE",
"436 510 CURVE SMOOTH",
"423 510 OFFCURVE",
"411 512 OFFCURVE",
"399 515 CURVE",
"372 497 LINE",
"382 479 LINE",
"375 464 OFFCURVE",
"361 427 OFFCURVE",
"361 403 CURVE SMOOTH",
"361 342 OFFCURVE",
"399 306 OFFCURVE",
"470 306 CURVE SMOOTH",
"497 306 OFFCURVE",
"522 314 OFFCURVE",
"546 330 CURVE",
"529 367 LINE",
"521 364 OFFCURVE",
"513 361 OFFCURVE",
"502 356 CURVE SMOOTH",
"492 352 OFFCURVE",
"479 349 OFFCURVE",
"466 349 CURVE SMOOTH",
"444 349 OFFCURVE",
"415 361 OFFCURVE",
"415 389 CURVE SMOOTH",
"415 417 OFFCURVE",
"448 440 OFFCURVE",
"489 440 CURVE SMOOTH",
"506 440 OFFCURVE",
"521 437 OFFCURVE",
"533 429 CURVE",
"557 455 LINE",
"550 461 OFFCURVE",
"547 467 OFFCURVE",
"547 470 CURVE SMOOTH",
"547 478 OFFCURVE",
"550 489 OFFCURVE",
"555 505 CURVE SMOOTH",
"560 521 OFFCURVE",
"562 537 OFFCURVE",
"562 552 CURVE SMOOTH",
"562 664 OFFCURVE",
"459 749 OFFCURVE",
"329 749 CURVE SMOOTH",
"284 749 OFFCURVE",
"240 741 OFFCURVE",
"199 723 CURVE SMOOTH",
"117 687 OFFCURVE",
"57 599 OFFCURVE",
"57 523 CURVE SMOOTH",
"57 487 OFFCURVE",
"82 438 OFFCURVE",
"131 377 CURVE SMOOTH",
"181 315 OFFCURVE",
"205 272 OFFCURVE",
"205 247 CURVE SMOOTH",
"205 222 OFFCURVE",
"197 204 OFFCURVE",
"181 194 CURVE",
"153 203 OFFCURVE",
"135 208 OFFCURVE",
"126 208 CURVE SMOOTH",
"115 208 OFFCURVE",
"105 203 OFFCURVE",
"98 194 CURVE SMOOTH",
"90 184 OFFCURVE",
"61 129 OFFCURVE",
"10 29 CURVE",
"37 14 LINE",
"55 40 LINE SMOOTH",
"67 58 OFFCURVE",
"83 67 OFFCURVE",
"101 67 CURVE SMOOTH",
"122 67 OFFCURVE",
"150 59 OFFCURVE",
"188 41 CURVE SMOOTH",
"262 5 OFFCURVE",
"339 -23 OFFCURVE",
"394 -23 CURVE SMOOTH"
);
}
);
width = 619;
}
);
note = u1D577;
unicode = 1D577;
script = "Black Letter";
category = Letter;
subCategory = Uppercase;
},
{
glyphname = u1D578;
production = u1D578;
lastChange = "2019-05-10 14:47:10 +0000";
layers = (
{
layerId = "9166331D-2337-4AD9-B82D-8EEBFFA66093";
paths = (
{
closed = 1;
nodes = (
"237 -23 LINE",
"301 36 OFFCURVE",
"347 86 OFFCURVE",
"376 127 CURVE SMOOTH",
"436 212 OFFCURVE",
"465 299 OFFCURVE",
"465 407 CURVE SMOOTH",
"465 497 OFFCURVE",
"450 568 OFFCURVE",
"419 621 CURVE",
"428 653 OFFCURVE",
"456 674 OFFCURVE",
"487 674 CURVE SMOOTH",
"524 674 OFFCURVE",
"555 641 OFFCURVE",
"578 575 CURVE SMOOTH",
"601 508 OFFCURVE",
"613 421 OFFCURVE",
"613 313 CURVE SMOOTH",
"613 206 OFFCURVE",
"600 130 OFFCURVE",
"575 88 CURVE",
"552 103 LINE SMOOTH",
"518 125 OFFCURVE",
"495 139 OFFCURVE",
"480 139 CURVE SMOOTH",
"459 139 OFFCURVE",
"431 113 OFFCURVE",
"393 64 CURVE SMOOTH",
"358 19 LINE",
"387 -4 LINE",
"411 22 OFFCURVE",
"427 35 OFFCURVE",
"435 35 CURVE SMOOTH",
"444 35 OFFCURVE",
"501 -6 OFFCURVE",
"501 -13 CURVE SMOOTH",
"501 -23 LINE",
"531 -23 LINE",
"669 111 OFFCURVE",
"738 254 OFFCURVE",
"738 406 CURVE SMOOTH",
"738 482 OFFCURVE",
"727 547 OFFCURVE",
"704 601 CURVE",
"726 638 OFFCURVE",
"759 656 OFFCURVE",
"804 656 CURVE SMOOTH",
"875 656 OFFCURVE",
"912 602 OFFCURVE",
"912 515 CURVE SMOOTH",
"912 483 LINE",
"883 466 OFFCURVE",
"861 451 OFFCURVE",
"848 438 CURVE SMOOTH",
"820 411 OFFCURVE",
"811 390 OFFCURVE",
"811 335 CURVE SMOOTH",
"811 107 LINE SMOOTH",
"811 81 OFFCURVE",
"829 60 OFFCURVE",
"849 48 CURVE SMOOTH",
"883 28 LINE SMOOTH",
"905 15 OFFCURVE",
"920 4 OFFCURVE",
"921 -23 CURVE",
"950 -23 LINE",
"1083 115 LINE",
"1064 141 LINE",
"1031 116 OFFCURVE",
"1008 99 OFFCURVE",
"996 99 CURVE SMOOTH",
"990 99 OFFCURVE",
"951 133 OFFCURVE",
"948 139 CURVE SMOOTH",
"947 142 OFFCURVE",
"946 148 OFFCURVE",
"946 157 CURVE SMOOTH",
"946 365 LINE SMOOTH",
"946 441 OFFCURVE",
"979 471 OFFCURVE",
"1073 485 CURVE",
"1073 518 LINE",
"1049 518 LINE",
"1049 532 LINE SMOOTH",
"1049 664 OFFCURVE",
"981 737 OFFCURVE",
"856 737 CURVE SMOOTH",
"775 737 OFFCURVE",
"718 706 OFFCURVE",
"683 645 CURVE",
"642 713 OFFCURVE",
"587 747 OFFCURVE",
"520 747 CURVE SMOOTH",
"464 747 OFFCURVE",
"416 717 OFFCURVE",
"390 658 CURVE",
"344 710 OFFCURVE",
"286 737 OFFCURVE",
"215 737 CURVE SMOOTH",
"94 737 OFFCURVE",
"-1 642 OFFCURVE",
"-1 521 CURVE SMOOTH",
"-1 425 OFFCURVE",
"59 342 OFFCURVE",
"192 305 CURVE",
"206 345 LINE",
"116 369 OFFCURVE",
"50 441 OFFCURVE",
"50 511 CURVE SMOOTH",
"50 582 OFFCURVE",
"104 644 OFFCURVE",
"177 644 CURVE SMOOTH",
"280 644 OFFCURVE",
"341 522 OFFCURVE",
"341 308 CURVE SMOOTH",
"341 203 OFFCURVE",
"322 128 OFFCURVE",
"284 86 CURVE",
"258 103 LINE SMOOTH",
"221 127 OFFCURVE",
"196 139 OFFCURVE",
"183 139 CURVE SMOOTH",
"167 139 OFFCURVE",
"152 128 OFFCURVE",
"134 107 CURVE SMOOTH",
"116 86 OFFCURVE",
"93 57 OFFCURVE",
"64 19 CURVE",
"93 -4 LINE",
"117 22 OFFCURVE",
"132 35 OFFCURVE",
"139 35 CURVE SMOOTH",
"147 35 OFFCURVE",
"206 -4 OFFCURVE",
"206 -12 CURVE SMOOTH",
"206 -23 LINE"
);
}
);
width = 1106;
}
);
note = u1D578;
unicode = 1D578;
script = "Black Letter";
category = Letter;
subCategory = Uppercase;
},
{
glyphname = "NBold-fraktur";
production = u1D579;
lastChange = "2019-05-10 14:47:10 +0000";
layers = (
{
layerId = "9166331D-2337-4AD9-B82D-8EEBFFA66093";
paths = (
{
closed = 1;
nodes = (
"75 -13 OFFCURVE",
"92 -7 OFFCURVE",
"107 -7 CURVE SMOOTH",
"121 -7 OFFCURVE",
"145 -9 OFFCURVE",
"178 -15 CURVE SMOOTH",
"211 -21 OFFCURVE",
"235 -24 OFFCURVE",
"250 -24 CURVE SMOOTH",
"393 -24 OFFCURVE",
"501 147 OFFCURVE",
"501 352 CURVE SMOOTH",
"501 446 OFFCURVE",
"487 527 OFFCURVE",
"458 594 CURVE",
"468 615 OFFCURVE",
"516 655 OFFCURVE",
"573 655 CURVE SMOOTH",
"641 655 OFFCURVE",
"680 604 OFFCURVE",
"680 514 CURVE SMOOTH",
"680 482 LINE",
"651 465 OFFCURVE",
"629 450 OFFCURVE",
"616 437 CURVE SMOOTH",
"588 410 OFFCURVE",
"579 389 OFFCURVE",
"579 334 CURVE SMOOTH",
"579 104 LINE SMOOTH",
"579 78 OFFCURVE",
"597 60 OFFCURVE",
"620 46 CURVE SMOOTH",
"660 22 LINE SMOOTH",
"679 10 OFFCURVE",
"688 -4 OFFCURVE",
"689 -24 CURVE",
"719 -24 LINE",
"854 110 LINE",
"829 140 LINE",
"804 119 OFFCURVE",
"778 98 OFFCURVE",
"763 98 CURVE SMOOTH",
"758 98 OFFCURVE",
"719 132 OFFCURVE",
"716 138 CURVE SMOOTH",
"714 141 OFFCURVE",
"714 147 OFFCURVE",
"714 156 CURVE SMOOTH",
"714 364 LINE SMOOTH",
"714 440 OFFCURVE",
"748 470 OFFCURVE",
"841 484 CURVE",
"841 517 LINE",
"817 517 LINE",
"817 531 LINE SMOOTH",
"817 663 OFFCURVE",
"750 736 OFFCURVE",
"625 736 CURVE SMOOTH",
"544 736 OFFCURVE",
"481 702 OFFCURVE",
"436 635 CURVE",
"389 699 OFFCURVE",
"315 733 OFFCURVE",
"241 733 CURVE SMOOTH",
"118 733 OFFCURVE",
"25 637 OFFCURVE",
"25 517 CURVE SMOOTH",
"25 419 OFFCURVE",
"85 337 OFFCURVE",
"218 300 CURVE",
"232 340 LINE",
"142 364 OFFCURVE",
"76 437 OFFCURVE",
"76 506 CURVE SMOOTH",
"76 581 OFFCURVE",
"129 640 OFFCURVE",
"204 640 CURVE SMOOTH",
"312 640 OFFCURVE",
"377 525 OFFCURVE",
"377 310 CURVE SMOOTH",
"377 203 OFFCURVE",
"364 127 OFFCURVE",
"339 84 CURVE SMOOTH",
"314 41 OFFCURVE",
"278 20 OFFCURVE",
"233 20 CURVE SMOOTH",
"194 20 OFFCURVE",
"165 40 OFFCURVE",
"165 77 CURVE SMOOTH",
"165 90 OFFCURVE",
"170 109 OFFCURVE",
"181 134 CURVE",
"156 153 LINE",
"142 137 OFFCURVE",
"113 127 OFFCURVE",
"93 127 CURVE SMOOTH",
"70 127 OFFCURVE",
"50 132 OFFCURVE",
"33 141 CURVE",
"13 114 LINE",
"35 88 OFFCURVE",
"46 66 OFFCURVE",
"46 49 CURVE SMOOTH",
"46 33 OFFCURVE",
"42 15 OFFCURVE",
"35 -4 CURVE",
"58 -24 LINE"
);
}
);
width = 875;
}
);
note = u1D579;
unicode = 1D579;
script = "Black Letter";
category = Letter;
subCategory = Uppercase;
},
{
glyphname = u1D57A;
production = u1D57A;
lastChange = "2019-05-10 14:47:10 +0000";
layers = (
{
layerId = "9166331D-2337-4AD9-B82D-8EEBFFA66093";
paths = (
{
closed = 1;
nodes = (
"416 -23 OFFCURVE",
"470 -3 OFFCURVE",
"532 35 CURVE SMOOTH",
"655 111 OFFCURVE",
"723 234 OFFCURVE",
"723 385 CURVE SMOOTH",
"723 454 OFFCURVE",
"711 512 OFFCURVE",
"684 556 CURVE SMOOTH",
"629 646 OFFCURVE",
"512 674 OFFCURVE",
"389 688 CURVE SMOOTH",
"327 695 OFFCURVE",
"293 714 OFFCURVE",
"288 747 CURVE",
"257 748 LINE",
"257 712 OFFCURVE",
"248 688 OFFCURVE",
"230 677 CURVE SMOOTH",
"174 644 LINE SMOOTH",
"139 623 OFFCURVE",
"115 608 OFFCURVE",
"104 598 CURVE SMOOTH",
"81 578 OFFCURVE",
"70 554 OFFCURVE",
"70 518 CURVE SMOOTH",
"70 485 OFFCURVE",
"88 445 OFFCURVE",
"125 397 CURVE SMOOTH",
"161 350 OFFCURVE",
"179 317 OFFCURVE",
"179 301 CURVE SMOOTH",
"179 285 OFFCURVE",
"165 271 OFFCURVE",
"146 271 CURVE SMOOTH",
"133 271 OFFCURVE",
"115 275 OFFCURVE",
"93 282 CURVE",
"84 246 LINE",
"115 235 OFFCURVE",
"145 230 OFFCURVE",
"175 230 CURVE SMOOTH",
"249 230 OFFCURVE",
"313 284 OFFCURVE",
"313 346 CURVE SMOOTH",
"313 379 OFFCURVE",
"293 419 OFFCURVE",
"255 464 CURVE SMOOTH",
"216 510 OFFCURVE",
"197 545 OFFCURVE",
"197 570 CURVE SMOOTH",
"197 597 OFFCURVE",
"201 611 OFFCURVE",
"223 623 CURVE SMOOTH",
"240 632 LINE",
"274 554 OFFCURVE",
"293 539 OFFCURVE",
"396 525 CURVE SMOOTH",
"448 518 OFFCURVE",
"494 507 OFFCURVE",
"536 492 CURVE SMOOTH",
"618 463 OFFCURVE",
"656 408 OFFCURVE",
"656 328 CURVE SMOOTH",
"656 279 OFFCURVE",
"650 239 OFFCURVE",
"638 208 CURVE SMOOTH",
"613 146 OFFCURVE",
"559 91 OFFCURVE",
"478 91 CURVE SMOOTH",
"438 91 OFFCURVE",
"373 119 OFFCURVE",
"285 168 CURVE SMOOTH",
"241 193 OFFCURVE",
"209 205 OFFCURVE",
"191 205 CURVE SMOOTH",
"175 205 OFFCURVE",
"158 200 OFFCURVE",
"141 187 CURVE SMOOTH",
"123 174 OFFCURVE",
"99 152 OFFCURVE",
"70 122 CURVE SMOOTH",
"16 66 LINE",
"44 38 LINE",
"69 60 OFFCURVE",
"92 79 OFFCURVE",
"118 79 CURVE SMOOTH",
"131 79 OFFCURVE",
"153 70 OFFCURVE",
"182 52 CURVE SMOOTH",
"239 16 OFFCURVE",
"312 -23 OFFCURVE",
"368 -23 CURVE SMOOTH"
);
}
);
width = 769;
}
);
note = u1D57A;
unicode = 1D57A;
script = "Black Letter";
category = Letter;
subCategory = Uppercase;
},
{
glyphname = u1D57B;
production = u1D57B;
lastChange = "2019-05-10 14:47:10 +0000";
layers = (
{
layerId = "9166331D-2337-4AD9-B82D-8EEBFFA66093";
paths = (
{
closed = 1;
nodes = (
"307 -210 LINE",
"333 -122 OFFCURVE",
"356 -14 OFFCURVE",
"360 26 CURVE",
"436 4 LINE SMOOTH",
"456 -2 OFFCURVE",
"466 -11 OFFCURVE",
"466 -24 CURVE",
"505 -24 LINE",
"505 5 OFFCURVE",
"521 40 OFFCURVE",
"555 81 CURVE SMOOTH",
"621 161 OFFCURVE",
"685 273 OFFCURVE",
"685 336 CURVE SMOOTH",
"685 377 OFFCURVE",
"667 444 OFFCURVE",
"629 539 CURVE SMOOTH",
"592 632 OFFCURVE",
"573 683 OFFCURVE",
"573 689 CURVE SMOOTH",
"573 703 OFFCURVE",
"579 715 OFFCURVE",
"591 725 CURVE",
"570 752 LINE",
"510 724 OFFCURVE",
"411 646 OFFCURVE",
"356 587 CURVE",
"352 669 OFFCURVE",
"276 732 OFFCURVE",
"182 732 CURVE SMOOTH",
"81 732 OFFCURVE",
"0 654 OFFCURVE",
"0 550 CURVE SMOOTH",
"0 467 OFFCURVE",
"45 397 OFFCURVE",
"127 376 CURVE",
"139 416 LINE",
"77 434 OFFCURVE",
"46 475 OFFCURVE",
"46 539 CURVE SMOOTH",
"46 602 OFFCURVE",
"82 642 OFFCURVE",
"135 642 CURVE SMOOTH",
"197 642 OFFCURVE",
"228 599 OFFCURVE",
"228 508 CURVE SMOOTH",
"229 193 LINE",
"192 205 OFFCURVE",
"172 212 OFFCURVE",
"168 214 CURVE SMOOTH",
"165 217 OFFCURVE",
"163 220 OFFCURVE",
"163 223 CURVE SMOOTH",
"163 233 OFFCURVE",
"165 240 OFFCURVE",
"168 243 CURVE",
"130 255 LINE",
"61 69 LINE",
"98 54 LINE",
"108 71 OFFCURVE",
"116 82 OFFCURVE",
"122 87 CURVE SMOOTH",
"127 92 OFFCURVE",
"134 94 OFFCURVE",
"142 94 CURVE SMOOTH",
"152 94 OFFCURVE",
"214 78 OFFCURVE",
"230 70 CURVE",
"230 54 LINE SMOOTH",
"230 -3 OFFCURVE",
"257 -154 OFFCURVE",
"278 -210 CURVE"
);
},
{
closed = 1;
nodes = (
"364 151 LINE",
"363 532 LINE",
"377 551 OFFCURVE",
"405 577 OFFCURVE",
"448 610 CURVE",
"448 594 OFFCURVE",
"457 565 OFFCURVE",
"475 523 CURVE SMOOTH",
"505 454 OFFCURVE",
"528 396 OFFCURVE",
"542 351 CURVE SMOOTH",
"556 305 OFFCURVE",
"563 271 OFFCURVE",
"563 248 CURVE SMOOTH",
"563 199 OFFCURVE",
"556 163 OFFCURVE",
"540 140 CURVE SMOOTH",
"524 117 OFFCURVE",
"514 106 OFFCURVE",
"510 106 CURVE"
);
}
);
width = 731;
}
);
note = u1D57B;
unicode = 1D57B;
script = "Black Letter";
category = Letter;
subCategory = Uppercase;
},
{
glyphname = u1D57C;
production = u1D57C;
lastChange = "2019-05-10 14:47:10 +0000";
layers = (
{
layerId = "9166331D-2337-4AD9-B82D-8EEBFFA66093";
paths = (
{
closed = 1;
nodes = (
"768 -23 OFFCURVE",
"784 -12 OFFCURVE",
"802 8 CURVE SMOOTH",
"892 108 LINE",
"864 132 LINE",
"843 111 OFFCURVE",
"828 97 OFFCURVE",
"813 96 CURVE SMOOTH",
"806 96 OFFCURVE",
"797 101 OFFCURVE",
"790 105 CURVE SMOOTH",
"751 129 OFFCURVE",
"726 141 OFFCURVE",
"710 141 CURVE SMOOTH",
"696 141 OFFCURVE",
"681 131 OFFCURVE",
"663 111 CURVE SMOOTH",
"572 10 LINE",
"600 -14 LINE",
"619 5 OFFCURVE",
"637 22 OFFCURVE",
"650 22 CURVE SMOOTH",
"658 22 OFFCURVE",
"677 12 OFFCURVE",
"700 -1 CURVE SMOOTH",
"714 -9 OFFCURVE",
"739 -23 OFFCURVE",
"754 -23 CURVE SMOOTH"
);
},
{
closed = 1;
nodes = (
"416 -23 OFFCURVE",
"470 -3 OFFCURVE",
"532 35 CURVE SMOOTH",
"655 111 OFFCURVE",
"723 234 OFFCURVE",
"723 385 CURVE SMOOTH",
"723 454 OFFCURVE",
"711 512 OFFCURVE",
"684 556 CURVE SMOOTH",
"629 646 OFFCURVE",
"512 674 OFFCURVE",
"389 688 CURVE SMOOTH",
"327 695 OFFCURVE",
"293 714 OFFCURVE",
"288 747 CURVE",
"257 748 LINE",
"257 712 OFFCURVE",
"248 688 OFFCURVE",
"230 677 CURVE SMOOTH",
"174 644 LINE SMOOTH",
"139 623 OFFCURVE",
"115 608 OFFCURVE",
"104 598 CURVE SMOOTH",
"81 578 OFFCURVE",
"70 554 OFFCURVE",
"70 518 CURVE SMOOTH",
"70 485 OFFCURVE",
"88 445 OFFCURVE",
"125 397 CURVE SMOOTH",
"161 350 OFFCURVE",
"179 317 OFFCURVE",
"179 301 CURVE SMOOTH",
"179 285 OFFCURVE",
"165 271 OFFCURVE",
"146 271 CURVE SMOOTH",
"133 271 OFFCURVE",
"115 275 OFFCURVE",
"93 282 CURVE",
"84 246 LINE",
"115 235 OFFCURVE",
"145 230 OFFCURVE",
"175 230 CURVE SMOOTH",
"249 230 OFFCURVE",
"313 284 OFFCURVE",
"313 346 CURVE SMOOTH",
"313 379 OFFCURVE",
"293 419 OFFCURVE",
"255 464 CURVE SMOOTH",
"216 510 OFFCURVE",
"197 545 OFFCURVE",
"197 570 CURVE SMOOTH",
"197 597 OFFCURVE",
"201 611 OFFCURVE",
"223 623 CURVE SMOOTH",
"240 632 LINE",
"274 554 OFFCURVE",
"293 539 OFFCURVE",
"396 525 CURVE SMOOTH",
"448 518 OFFCURVE",
"494 507 OFFCURVE",
"536 492 CURVE SMOOTH",
"618 463 OFFCURVE",
"656 408 OFFCURVE",
"656 328 CURVE SMOOTH",
"656 279 OFFCURVE",
"650 239 OFFCURVE",
"638 208 CURVE SMOOTH",
"613 146 OFFCURVE",
"559 91 OFFCURVE",
"478 91 CURVE SMOOTH",
"438 91 OFFCURVE",
"373 119 OFFCURVE",
"285 168 CURVE SMOOTH",
"241 193 OFFCURVE",
"209 205 OFFCURVE",
"191 205 CURVE SMOOTH",
"175 205 OFFCURVE",
"158 200 OFFCURVE",
"141 187 CURVE SMOOTH",
"123 174 OFFCURVE",
"99 152 OFFCURVE",
"70 122 CURVE SMOOTH",
"16 66 LINE",
"44 38 LINE",
"69 60 OFFCURVE",
"92 79 OFFCURVE",
"118 79 CURVE SMOOTH",
"131 79 OFFCURVE",
"153 70 OFFCURVE",
"182 52 CURVE SMOOTH",
"239 16 OFFCURVE",
"312 -23 OFFCURVE",
"368 -23 CURVE SMOOTH"
);
}
);
width = 900;
}
);
note = u1D57C;
unicode = 1D57C;
script = "Black Letter";
category = Letter;
subCategory = Uppercase;
},
{
glyphname = "RBold-fraktur";
production = u1D57D;
lastChange = "2019-05-10 14:47:10 +0000";
layers = (
{
layerId = "9166331D-2337-4AD9-B82D-8EEBFFA66093";
paths = (
{
closed = 1;
nodes = (
"75 -13 OFFCURVE",
"92 -7 OFFCURVE",
"107 -7 CURVE SMOOTH",
"121 -7 OFFCURVE",
"149 -9 OFFCURVE",
"177 -14 CURVE SMOOTH",
"208 -19 OFFCURVE",
"239 -23 OFFCURVE",
"250 -23 CURVE SMOOTH",
"389 -23 OFFCURVE",
"494 136 OFFCURVE",
"504 334 CURVE",
"533 355 LINE SMOOTH",
"543 363 OFFCURVE",
"552 366 OFFCURVE",
"560 366 CURVE SMOOTH",
"567 366 OFFCURVE",
"575 361 OFFCURVE",
"579 350 CURVE SMOOTH",
"583 339 OFFCURVE",
"589 321 OFFCURVE",
"594 296 CURVE SMOOTH",
"617 188 LINE SMOOTH",
"637 92 OFFCURVE",
"662 37 OFFCURVE",
"694 8 CURVE SMOOTH",
"710 -6 OFFCURVE",
"719 -14 OFFCURVE",
"720 -17 CURVE SMOOTH",
"721 -19 OFFCURVE",
"721 -21 OFFCURVE",
"721 -23 CURVE",
"751 -23 LINE",
"753 -18 OFFCURVE",
"770 -4 OFFCURVE",
"803 20 CURVE SMOOTH",
"835 44 OFFCURVE",
"862 67 OFFCURVE",
"884 91 CURVE",
"857 120 LINE",
"838 101 OFFCURVE",
"824 91 OFFCURVE",
"816 91 CURVE SMOOTH",
"799 91 OFFCURVE",
"785 109 OFFCURVE",
"770 146 CURVE SMOOTH",
"755 183 OFFCURVE",
"741 237 OFFCURVE",
"729 310 CURVE SMOOTH",
"717 383 OFFCURVE",
"699 429 OFFCURVE",
"677 449 CURVE",
"716 481 LINE SMOOTH",
"760 517 OFFCURVE",
"792 543 OFFCURVE",
"811 556 CURVE",
"798 583 LINE",
"781 577 LINE",
"759 577 OFFCURVE",
"663 673 OFFCURVE",
"663 702 CURVE SMOOTH",
"663 709 OFFCURVE",
"666 716 OFFCURVE",
"671 721 CURVE",
"651 744 LINE",
"640 735 OFFCURVE",
"613 718 OFFCURVE",
"569 694 CURVE SMOOTH",
"525 670 OFFCURVE",
"487 643 OFFCURVE",
"454 615 CURVE",
"405 705 OFFCURVE",
"322 747 OFFCURVE",
"241 747 CURVE SMOOTH",
"120 747 OFFCURVE",
"25 652 OFFCURVE",
"25 531 CURVE SMOOTH",
"25 434 OFFCURVE",
"85 351 OFFCURVE",
"218 314 CURVE",
"232 354 LINE",
"142 378 OFFCURVE",
"76 450 OFFCURVE",
"76 520 CURVE SMOOTH",
"76 595 OFFCURVE",
"129 654 OFFCURVE",
"204 654 CURVE SMOOTH",
"313 654 OFFCURVE",
"377 521 OFFCURVE",
"377 310 CURVE SMOOTH",
"377 204 OFFCURVE",
"364 129 OFFCURVE",
"339 86 CURVE SMOOTH",
"313 42 OFFCURVE",
"278 21 OFFCURVE",
"233 21 CURVE SMOOTH",
"194 21 OFFCURVE",
"165 40 OFFCURVE",
"165 77 CURVE SMOOTH",
"165 90 OFFCURVE",
"170 109 OFFCURVE",
"181 134 CURVE",
"156 153 LINE",
"142 137 OFFCURVE",
"113 127 OFFCURVE",
"93 127 CURVE SMOOTH",
"70 127 OFFCURVE",
"50 132 OFFCURVE",
"33 141 CURVE",
"13 114 LINE",
"35 88 OFFCURVE",
"46 66 OFFCURVE",
"46 49 CURVE SMOOTH",
"46 33 OFFCURVE",
"42 15 OFFCURVE",
"35 -4 CURVE",
"58 -24 LINE"
);
},
{
closed = 1;
nodes = (
"502 463 OFFCURVE",
"491 526 OFFCURVE",
"471 577 CURVE",
"498 600 OFFCURVE",
"515 614 OFFCURVE",
"523 619 CURVE SMOOTH",
"531 624 OFFCURVE",
"540 626 OFFCURVE",
"548 626 CURVE SMOOTH",
"557 626 OFFCURVE",
"569 618 OFFCURVE",
"582 603 CURVE SMOOTH",
"666 506 LINE",
"637 479 OFFCURVE",
"597 449 OFFCURVE",
"549 416 CURVE SMOOTH",
"505 386 LINE"
);
}
);
width = 877;
}
);
note = u1D57D;
unicode = 1D57D;
script = "Black Letter";
category = Letter;
subCategory = Uppercase;
},
{
glyphname = u1D57E;
production = u1D57E;
lastChange = "2019-05-10 14:47:10 +0000";
layers = (
{
layerId = "9166331D-2337-4AD9-B82D-8EEBFFA66093";
paths = (
{
closed = 1;
nodes = (
"629 -22 OFFCURVE",
"771 104 OFFCURVE",
"771 273 CURVE SMOOTH",
"771 410 OFFCURVE",
"647 510 OFFCURVE",
"565 510 CURVE SMOOTH",
"536 510 OFFCURVE",
"497 495 OFFCURVE",
"449 465 CURVE SMOOTH",
"400 435 OFFCURVE",
"362 420 OFFCURVE",
"336 420 CURVE SMOOTH",
"285 420 OFFCURVE",
"251 447 OFFCURVE",
"251 488 CURVE SMOOTH",
"251 528 OFFCURVE",
"288 562 OFFCURVE",
"335 562 CURVE SMOOTH",
"371 562 OFFCURVE",
"401 542 OFFCURVE",
"425 501 CURVE",
"462 524 LINE",
"430 577 OFFCURVE",
"396 606 OFFCURVE",
"336 606 CURVE SMOOTH",
"267 606 OFFCURVE",
"207 554 OFFCURVE",
"207 488 CURVE SMOOTH",
"207 466 OFFCURVE",
"211 444 OFFCURVE",
"220 423 CURVE SMOOTH",
"237 382 OFFCURVE",
"304 321 OFFCURVE",
"329 300 CURVE SMOOTH",
"342 289 OFFCURVE",
"354 283 OFFCURVE",
"365 283 CURVE SMOOTH",
"381 283 OFFCURVE",
"420 300 OFFCURVE",
"482 336 CURVE SMOOTH",
"544 372 OFFCURVE",
"590 389 OFFCURVE",
"619 389 CURVE SMOOTH",
"684 389 OFFCURVE",
"727 345 OFFCURVE",
"727 269 CURVE SMOOTH",
"727 170 OFFCURVE",
"611 89 OFFCURVE",
"491 89 CURVE SMOOTH",
"411 89 OFFCURVE",
"319 119 OFFCURVE",
"243 189 CURVE SMOOTH",
"166 259 OFFCURVE",
"133 334 OFFCURVE",
"133 422 CURVE SMOOTH",
"133 561 OFFCURVE",
"217 653 OFFCURVE",
"347 653 CURVE SMOOTH",
"411 653 OFFCURVE",
"458 621 OFFCURVE",
"522 577 CURVE SMOOTH",
"554 555 OFFCURVE",
"578 544 OFFCURVE",
"593 544 CURVE SMOOTH",
"631 544 OFFCURVE",
"793 606 OFFCURVE",
"793 696 CURVE SMOOTH",
"793 717 OFFCURVE",
"780 747 OFFCURVE",
"753 747 CURVE SMOOTH",
"729 747 OFFCURVE",
"717 733 OFFCURVE",
"717 717 CURVE SMOOTH",
"717 708 OFFCURVE",
"721 701 OFFCURVE",
"730 695 CURVE SMOOTH",
"739 689 OFFCURVE",
"743 679 OFFCURVE",
"743 669 CURVE SMOOTH",
"743 646 OFFCURVE",
"720 636 OFFCURVE",
"703 636 CURVE SMOOTH",
"691 636 OFFCURVE",
"674 644 OFFCURVE",
"654 658 CURVE SMOOTH",
"634 672 OFFCURVE",
"612 686 OFFCURVE",
"590 700 CURVE SMOOTH",
"545 728 OFFCURVE",
"505 748 OFFCURVE",
"465 748 CURVE SMOOTH",
"397 748 OFFCURVE",
"330 730 OFFCURVE",
"262 695 CURVE SMOOTH",
"126 624 OFFCURVE",
"46 485 OFFCURVE",
"46 352 CURVE SMOOTH",
"46 125 OFFCURVE",
"201 -22 OFFCURVE",
"440 -22 CURVE SMOOTH"
);
}
);
width = 841;
}
);
note = u1D57E;
unicode = 1D57E;
script = "Black Letter";
category = Letter;
subCategory = Uppercase;
},
{
glyphname = u1D57F;
production = u1D57F;
lastChange = "2019-05-10 14:47:10 +0000";
layers = (
{
layerId = "9166331D-2337-4AD9-B82D-8EEBFFA66093";
paths = (
{
closed = 1;
nodes = (
"440 -23 OFFCURVE",
"465 -12 OFFCURVE",
"499 9 CURVE SMOOTH",
"533 30 OFFCURVE",
"574 65 OFFCURVE",
"622 113 CURVE",
"596 143 LINE",
"556 108 OFFCURVE",
"541 101 OFFCURVE",
"502 101 CURVE SMOOTH",
"457 101 OFFCURVE",
"396 139 OFFCURVE",
"331 180 CURVE",
"432 193 OFFCURVE",
"483 231 OFFCURVE",
"483 292 CURVE SMOOTH",
"483 325 OFFCURVE",
"467 353 OFFCURVE",
"405 395 CURVE SMOOTH",
"375 415 OFFCURVE",
"352 434 OFFCURVE",
"338 450 CURVE SMOOTH",
"324 466 OFFCURVE",
"317 480 OFFCURVE",
"317 493 CURVE SMOOTH",
"317 510 OFFCURVE",
"333 531 OFFCURVE",
"366 557 CURVE",
"435 516 OFFCURVE",
"490 484 OFFCURVE",
"514 484 CURVE SMOOTH",
"521 484 OFFCURVE",
"528 486 OFFCURVE",
"535 489 CURVE SMOOTH",
"542 493 OFFCURVE",
"583 525 OFFCURVE",
"660 588 CURVE",
"640 618 LINE",
"624 606 OFFCURVE",
"606 600 OFFCURVE",
"587 600 CURVE SMOOTH",
"576 600 OFFCURVE",
"521 626 OFFCURVE",
"419 681 CURVE SMOOTH",
"391 696 LINE SMOOTH",
"331 728 OFFCURVE",
"288 747 OFFCURVE",
"255 747 CURVE SMOOTH",
"224 747 OFFCURVE",
"189 737 OFFCURVE",
"153 716 CURVE SMOOTH",
"79 674 OFFCURVE",
"40 633 OFFCURVE",
"40 557 CURVE SMOOTH",
"40 505 OFFCURVE",
"68 453 OFFCURVE",
"123 402 CURVE",
"153 432 LINE",
"119 463 OFFCURVE",
"84 499 OFFCURVE",
"84 556 CURVE SMOOTH",
"84 601 OFFCURVE",
"125 639 OFFCURVE",
"171 639 CURVE SMOOTH",
"201 639 OFFCURVE",
"253 619 OFFCURVE",
"328 578 CURVE",
"247 521 OFFCURVE",
"203 480 OFFCURVE",
"203 434 CURVE SMOOTH",
"203 385 OFFCURVE",
"241 355 OFFCURVE",
"304 307 CURVE SMOOTH",
"336 282 OFFCURVE",
"351 264 OFFCURVE",
"351 253 CURVE SMOOTH",
"351 247 OFFCURVE",
"347 239 OFFCURVE",
"338 230 CURVE SMOOTH",
"329 221 OFFCURVE",
"315 217 OFFCURVE",
"294 217 CURVE SMOOTH",
"272 217 OFFCURVE",
"250 224 OFFCURVE",
"228 238 CURVE SMOOTH",
"206 252 OFFCURVE",
"186 259 OFFCURVE",
"169 259 CURVE SMOOTH",
"148 259 OFFCURVE",
"127 250 OFFCURVE",
"105 231 CURVE SMOOTH",
"84 213 OFFCURVE",
"56 181 OFFCURVE",
"21 136 CURVE",
"50 109 LINE",
"76 135 OFFCURVE",
"86 138 OFFCURVE",
"106 138 CURVE SMOOTH",
"124 138 OFFCURVE",
"176 111 OFFCURVE",
"262 58 CURVE SMOOTH",
"348 5 OFFCURVE",
"402 -23 OFFCURVE",
"425 -23 CURVE SMOOTH"
);
}
);
width = 635;
}
);
note = u1D57F;
unicode = 1D57F;
script = "Black Letter";
category = Letter;
subCategory = Uppercase;
},
{
glyphname = u1D580;
production = u1D580;
lastChange = "2019-05-10 14:47:10 +0000";
layers = (
{
layerId = "9166331D-2337-4AD9-B82D-8EEBFFA66093";
paths = (
{
closed = 1;
nodes = (
"254 -22 LINE",
"254 -11 OFFCURVE",
"277 2 OFFCURVE",
"290 9 CURVE SMOOTH",
"434 88 LINE",
"434 63 LINE SMOOTH",
"434 25 OFFCURVE",
"452 0 OFFCURVE",
"489 -10 CURVE SMOOTH",
"496 -12 OFFCURVE",
"500 -17 OFFCURVE",
"500 -22 CURVE",
"535 -22 LINE",
"558 7 OFFCURVE",
"599 44 OFFCURVE",
"658 90 CURVE",
"637 124 LINE",
"617 109 OFFCURVE",
"601 101 OFFCURVE",
"588 101 CURVE SMOOTH",
"577 101 OFFCURVE",
"572 117 OFFCURVE",
"572 149 CURVE SMOOTH",
"572 596 LINE SMOOTH",
"572 618 OFFCURVE",
"583 630 OFFCURVE",
"618 634 CURVE",
"618 665 LINE",
"579 670 OFFCURVE",
"532 709 OFFCURVE",
"522 748 CURVE",
"491 748 LINE",
"476 707 OFFCURVE",
"429 670 OFFCURVE",
"389 665 CURVE",
"389 634 LINE",
"419 630 OFFCURVE",
"434 618 OFFCURVE",
"434 596 CURVE SMOOTH",
"434 140 LINE",
"371 102 OFFCURVE",
"335 83 OFFCURVE",
"327 83 CURVE SMOOTH",
"320 83 OFFCURVE",
"313 85 OFFCURVE",
"306 90 CURVE SMOOTH",
"251 125 LINE SMOOTH",
"242 131 OFFCURVE",
"238 139 OFFCURVE",
"238 152 CURVE SMOOTH",
"238 647 LINE SMOOTH",
"238 677 OFFCURVE",
"222 699 OFFCURVE",
"190 714 CURVE SMOOTH",
"163 727 LINE SMOOTH",
"155 731 OFFCURVE",
"151 738 OFFCURVE",
"151 748 CURVE",
"120 748 LINE",
"115 726 OFFCURVE",
"81 690 OFFCURVE",
"18 640 CURVE",
"40 606 LINE",
"49 610 OFFCURVE",
"58 612 OFFCURVE",
"68 612 CURVE SMOOTH",
"89 612 OFFCURVE",
"100 597 OFFCURVE",
"100 568 CURVE SMOOTH",
"100 151 LINE SMOOTH",
"100 116 OFFCURVE",
"94 98 OFFCURVE",
"73 88 CURVE",
"73 57 LINE",
"98 57 OFFCURVE",
"118 54 OFFCURVE",
"152 36 CURVE SMOOTH",
"196 12 LINE SMOOTH",
"219 -1 OFFCURVE",
"223 -9 OFFCURVE",
"223 -22 CURVE"
);
}
);
width = 665;
}
);
note = u1D580;
unicode = 1D580;
script = "Black Letter";
category = Letter;
subCategory = Uppercase;
},
{
glyphname = u1D581;
production = u1D581;
lastChange = "2019-05-10 14:47:10 +0000";
layers = (
{
layerId = "9166331D-2337-4AD9-B82D-8EEBFFA66093";
paths = (
{
closed = 1;
nodes = (
"525 -21 OFFCURVE",
"576 -9 OFFCURVE",
"629 15 CURVE SMOOTH",
"737 63 OFFCURVE",
"817 147 OFFCURVE",
"817 216 CURVE SMOOTH",
"817 280 OFFCURVE",
"786 314 OFFCURVE",
"721 368 CURVE SMOOTH",
"688 395 OFFCURVE",
"672 419 OFFCURVE",
"672 441 CURVE SMOOTH",
"672 470 OFFCURVE",
"724 492 OFFCURVE",
"829 506 CURVE",
"825 544 LINE",
"809 544 OFFCURVE",
"798 549 OFFCURVE",
"797 560 CURVE SMOOTH",
"794 584 LINE SMOOTH",
"781 691 OFFCURVE",
"723 747 OFFCURVE",
"600 747 CURVE SMOOTH",
"522 747 OFFCURVE",
"465 725 OFFCURVE",
"428 681 CURVE",
"388 725 OFFCURVE",
"333 747 OFFCURVE",
"262 747 CURVE SMOOTH",
"129 747 OFFCURVE",
"37 647 OFFCURVE",
"37 506 CURVE SMOOTH",
"37 391 OFFCURVE",
"132 313 OFFCURVE",
"269 295 CURVE",
"277 336 LINE",
"150 351 OFFCURVE",
"81 415 OFFCURVE",
"81 508 CURVE SMOOTH",
"81 581 OFFCURVE",
"137 633 OFFCURVE",
"215 633 CURVE SMOOTH",
"310 633 OFFCURVE",
"375 549 OFFCURVE",
"375 425 CURVE SMOOTH",
"375 333 OFFCURVE",
"357 271 OFFCURVE",
"321 236 CURVE",
"315 239 OFFCURVE",
"308 240 OFFCURVE",
"301 240 CURVE SMOOTH",
"290 240 OFFCURVE",
"276 237 OFFCURVE",
"261 231 CURVE SMOOTH",
"246 225 OFFCURVE",
"192 192 OFFCURVE",
"99 134 CURVE",
"114 97 LINE",
"158 119 OFFCURVE",
"190 130 OFFCURVE",
"209 130 CURVE SMOOTH",
"233 130 OFFCURVE",
"267 112 OFFCURVE",
"310 78 CURVE SMOOTH",
"353 44 OFFCURVE",
"388 17 OFFCURVE",
"416 2 CURVE SMOOTH",
"442 -12 OFFCURVE",
"463 -21 OFFCURVE",
"478 -21 CURVE SMOOTH"
);
},
{
closed = 1;
nodes = (
"564 59 OFFCURVE",
"489 116 OFFCURVE",
"424 166 CURVE SMOOTH",
"361 214 LINE",
"441 290 OFFCURVE",
"492 391 OFFCURVE",
"492 490 CURVE SMOOTH",
"492 531 OFFCURVE",
"479 581 OFFCURVE",
"454 640 CURVE",
"472 675 OFFCURVE",
"517 697 OFFCURVE",
"558 697 CURVE SMOOTH",
"580 697 OFFCURVE",
"599 691 OFFCURVE",
"613 680 CURVE SMOOTH",
"642 657 OFFCURVE",
"651 598 OFFCURVE",
"653 560 CURVE SMOOTH",
"654 540 OFFCURVE",
"659 526 OFFCURVE",
"668 519 CURVE",
"564 488 OFFCURVE",
"541 466 OFFCURVE",
"541 407 CURVE SMOOTH",
"541 368 OFFCURVE",
"555 345 OFFCURVE",
"620 279 CURVE SMOOTH",
"652 246 OFFCURVE",
"673 221 OFFCURVE",
"683 204 CURVE SMOOTH",
"693 186 OFFCURVE",
"698 168 OFFCURVE",
"698 149 CURVE SMOOTH",
"698 106 OFFCURVE",
"657 59 OFFCURVE",
"608 59 CURVE SMOOTH"
);
}
);
width = 868;
}
);
note = u1D581;
unicode = 1D581;
script = "Black Letter";
category = Letter;
subCategory = Uppercase;
},
{
glyphname = u1D582;
production = u1D582;
lastChange = "2019-05-10 14:47:10 +0000";
layers = (
{
layerId = "9166331D-2337-4AD9-B82D-8EEBFFA66093";
paths = (
{
closed = 1;
nodes = (
"447 -23 OFFCURVE",
"507 6 OFFCURVE",
"574 62 CURVE",
"634 29 OFFCURVE",
"749 -23 OFFCURVE",
"765 -23 CURVE SMOOTH",
"802 -23 OFFCURVE",
"846 -8 OFFCURVE",
"896 21 CURVE SMOOTH",
"998 80 OFFCURVE",
"1064 159 OFFCURVE",
"1064 212 CURVE SMOOTH",
"1064 264 OFFCURVE",
"1043 307 OFFCURVE",
"997 342 CURVE SMOOTH",
"952 376 OFFCURVE",
"929 405 OFFCURVE",
"929 427 CURVE SMOOTH",
"929 470 OFFCURVE",
"971 500 OFFCURVE",
"1054 514 CURVE",
"1054 544 LINE",
"1036 544 OFFCURVE",
"1025 548 OFFCURVE",
"1024 556 CURVE SMOOTH",
"1016 602 LINE SMOOTH",
"997 709 OFFCURVE",
"936 747 OFFCURVE",
"830 747 CURVE SMOOTH",
"748 747 OFFCURVE",
"682 719 OFFCURVE",
"634 662 CURVE",
"620 723 OFFCURVE",
"583 754 OFFCURVE",
"524 754 CURVE SMOOTH",
"477 754 OFFCURVE",
"442 730 OFFCURVE",
"420 682 CURVE",
"379 729 OFFCURVE",
"316 747 OFFCURVE",
"263 747 CURVE SMOOTH",
"130 747 OFFCURVE",
"38 647 OFFCURVE",
"38 506 CURVE SMOOTH",
"38 386 OFFCURVE",
"131 302 OFFCURVE",
"270 285 CURVE",
"278 330 LINE",
"153 344 OFFCURVE",
"82 414 OFFCURVE",
"82 508 CURVE SMOOTH",
"82 581 OFFCURVE",
"138 633 OFFCURVE",
"216 633 CURVE SMOOTH",
"311 633 OFFCURVE",
"376 549 OFFCURVE",
"376 425 CURVE SMOOTH",
"376 327 OFFCURVE",
"351 237 OFFCURVE",
"314 200 CURVE",
"293 204 LINE",
"274 204 OFFCURVE",
"243 191 OFFCURVE",
"198 162 CURVE SMOOTH",
"125 115 LINE",
"143 79 LINE",
"170 92 OFFCURVE",
"189 99 OFFCURVE",
"202 99 CURVE SMOOTH",
"217 99 OFFCURVE",
"239 91 OFFCURVE",
"263 75 CURVE SMOOTH",
"277 66 OFFCURVE",
"315 39 OFFCURVE",
"337 21 CURVE SMOOTH",
"363 -1 OFFCURVE",
"390 -23 OFFCURVE",
"420 -23 CURVE SMOOTH"
);
},
{
closed = 1;
nodes = (
"496 84 OFFCURVE",
"458 107 OFFCURVE",
"395 150 CURVE SMOOTH",
"354 178 LINE",
"432 251 OFFCURVE",
"493 390 OFFCURVE",
"493 490 CURVE SMOOTH",
"493 550 OFFCURVE",
"480 591 OFFCURVE",
"452 646 CURVE",
"465 690 OFFCURVE",
"490 712 OFFCURVE",
"526 712 CURVE SMOOTH",
"567 712 OFFCURVE",
"595 673 OFFCURVE",
"599 624 CURVE",
"563 582 OFFCURVE",
"546 542 OFFCURVE",
"546 504 CURVE SMOOTH",
"546 457 OFFCURVE",
"578 409 OFFCURVE",
"598 380 CURVE SMOOTH",
"621 346 OFFCURVE",
"644 298 OFFCURVE",
"644 258 CURVE SMOOTH",
"644 238 OFFCURVE",
"636 214 OFFCURVE",
"620 188 CURVE SMOOTH",
"587 133 OFFCURVE",
"532 84 OFFCURVE",
"515 84 CURVE SMOOTH"
);
},
{
closed = 1;
nodes = (
"834 84 OFFCURVE",
"769 110 OFFCURVE",
"680 163 CURVE",
"735 218 OFFCURVE",
"754 276 OFFCURVE",
"754 312 CURVE SMOOTH",
"754 365 OFFCURVE",
"721 425 OFFCURVE",
"687 487 CURVE SMOOTH",
"670 519 OFFCURVE",
"660 546 OFFCURVE",
"660 568 CURVE SMOOTH",
"660 648 OFFCURVE",
"721 696 OFFCURVE",
"779 696 CURVE SMOOTH",
"832 696 OFFCURVE",
"858 673 OFFCURVE",
"870 598 CURVE SMOOTH",
"876 560 OFFCURVE",
"885 535 OFFCURVE",
"898 525 CURVE SMOOTH",
"910 515 LINE",
"832 488 OFFCURVE",
"798 455 OFFCURVE",
"798 407 CURVE SMOOTH",
"798 343 OFFCURVE",
"837 306 OFFCURVE",
"913 242 CURVE SMOOTH",
"951 210 OFFCURVE",
"970 182 OFFCURVE",
"970 159 CURVE SMOOTH",
"970 116 OFFCURVE",
"936 84 OFFCURVE",
"877 84 CURVE SMOOTH"
);
}
);
width = 1107;
}
);
note = u1D582;
unicode = 1D582;
script = "Black Letter";
category = Letter;
subCategory = Uppercase;
},
{
glyphname = u1D583;
production = u1D583;
lastChange = "2019-05-10 14:47:10 +0000";
layers = (
{
layerId = "9166331D-2337-4AD9-B82D-8EEBFFA66093";
paths = (
{
closed = 1;
nodes = (
"206 -23 LINE",
"226 0 LINE SMOOTH",
"266 46 OFFCURVE",
"290 77 OFFCURVE",
"307 154 CURVE",
"313 83 OFFCURVE",
"349 16 OFFCURVE",
"389 5 CURVE SMOOTH",
"432 -7 LINE SMOOTH",
"445 -11 OFFCURVE",
"453 -15 OFFCURVE",
"456 -23 CURVE",
"494 -23 LINE",
"497 -3 OFFCURVE",
"506 6 OFFCURVE",
"527 26 CURVE SMOOTH",
"635 130 LINE",
"608 158 LINE",
"557 106 OFFCURVE",
"522 88 OFFCURVE",
"482 88 CURVE SMOOTH",
"442 88 OFFCURVE",
"406 129 OFFCURVE",
"406 215 CURVE SMOOTH",
"406 336 LINE",
"446 336 OFFCURVE",
"476 333 OFFCURVE",
"495 328 CURVE",
"515 377 OFFCURVE",
"539 427 OFFCURVE",
"567 476 CURVE",
"529 476 LINE",
"512 435 OFFCURVE",
"496 419 OFFCURVE",
"472 419 CURVE SMOOTH",
"406 419 LINE",
"406 565 LINE SMOOTH",
"406 607 OFFCURVE",
"418 625 OFFCURVE",
"450 649 CURVE",
"481 633 LINE SMOOTH",
"505 620 OFFCURVE",
"547 599 OFFCURVE",
"562 599 CURVE SMOOTH",
"575 599 OFFCURVE",
"602 624 OFFCURVE",
"641 673 CURVE SMOOTH",
"662 699 LINE",
"634 726 LINE",
"617 712 OFFCURVE",
"605 705 OFFCURVE",
"599 705 CURVE SMOOTH",
"585 705 OFFCURVE",
"534 730 OFFCURVE",
"522 749 CURVE",
"482 749 LINE",
"477 736 OFFCURVE",
"458 717 OFFCURVE",
"424 688 CURVE SMOOTH",
"391 659 OFFCURVE",
"372 635 OFFCURVE",
"367 616 CURVE",
"352 690 OFFCURVE",
"278 747 OFFCURVE",
"198 747 CURVE SMOOTH",
"170 747 OFFCURVE",
"151 741 OFFCURVE",
"142 730 CURVE SMOOTH",
"37 606 LINE",
"66 581 LINE",
"106 625 OFFCURVE",
"144 647 OFFCURVE",
"179 647 CURVE SMOOTH",
"238 647 OFFCURVE",
"267 595 OFFCURVE",
"267 491 CURVE SMOOTH",
"267 419 LINE",
"220 419 LINE SMOOTH",
"187 419 OFFCURVE",
"176 421 OFFCURVE",
"158 432 CURVE",
"149 401 OFFCURVE",
"135 363 OFFCURVE",
"116 317 CURVE SMOOTH",
"98 273 LINE",
"136 273 LINE",
"153 321 OFFCURVE",
"165 336 OFFCURVE",
"194 336 CURVE SMOOTH",
"267 336 LINE",
"267 256 LINE SMOOTH",
"267 197 OFFCURVE",
"263 155 OFFCURVE",
"255 130 CURVE SMOOTH",
"247 104 OFFCURVE",
"237 92 OFFCURVE",
"225 92 CURVE SMOOTH",
"200 92 OFFCURVE",
"146 121 OFFCURVE",
"136 144 CURVE",
"99 144 LINE",
"8 17 LINE",
"37 -9 LINE",
"57 11 OFFCURVE",
"71 25 OFFCURVE",
"88 25 CURVE SMOOTH",
"105 25 OFFCURVE",
"170 -10 OFFCURVE",
"174 -23 CURVE"
);
}
);
width = 657;
}
);
note = u1D583;
unicode = 1D583;
script = "Black Letter";
category = Letter;
subCategory = Uppercase;
},
{
glyphname = u1D584;
production = u1D584;
lastChange = "2019-05-10 14:47:10 +0000";
layers = (
{
layerId = "9166331D-2337-4AD9-B82D-8EEBFFA66093";
paths = (
{
closed = 1;
nodes = (
"383 -207 OFFCURVE",
"451 -175 OFFCURVE",
"519 -112 CURVE SMOOTH",
"655 14 OFFCURVE",
"743 189 OFFCURVE",
"743 331 CURVE SMOOTH",
"743 440 OFFCURVE",
"672 595 OFFCURVE",
"637 647 CURVE SMOOTH",
"619 673 OFFCURVE",
"611 692 OFFCURVE",
"611 701 CURVE SMOOTH",
"611 707 OFFCURVE",
"615 716 OFFCURVE",
"623 728 CURVE",
"594 755 LINE",
"417 611 LINE",
"377 696 OFFCURVE",
"303 738 OFFCURVE",
"225 738 CURVE SMOOTH",
"96 738 OFFCURVE",
"7 629 OFFCURVE",
"7 519 CURVE SMOOTH",
"7 407 OFFCURVE",
"89 325 OFFCURVE",
"225 312 CURVE",
"235 353 LINE",
"137 355 OFFCURVE",
"51 429 OFFCURVE",
"51 511 CURVE SMOOTH",
"51 578 OFFCURVE",
"98 631 OFFCURVE",
"167 631 CURVE SMOOTH",
"253 631 OFFCURVE",
"320 528 OFFCURVE",
"320 391 CURVE SMOOTH",
"320 262 OFFCURVE",
"261 188 OFFCURVE",
"105 143 CURVE",
"119 104 LINE",
"125 105 OFFCURVE",
"141 110 OFFCURVE",
"157 115 CURVE SMOOTH",
"171 119 OFFCURVE",
"186 123 OFFCURVE",
"190 124 CURVE",
"206 124 OFFCURVE",
"302 36 OFFCURVE",
"302 16 CURVE SMOOTH",
"302 11 OFFCURVE",
"296 3 OFFCURVE",
"286 -7 CURVE",
"311 -26 LINE",
"370 16 OFFCURVE",
"435 58 OFFCURVE",
"507 99 CURVE",
"486 129 LINE",
"458 115 OFFCURVE",
"439 108 OFFCURVE",
"429 108 CURVE SMOOTH",
"408 108 OFFCURVE",
"380 133 OFFCURVE",
"362 149 CURVE SMOOTH",
"306 198 LINE",
"396 254 OFFCURVE",
"452 354 OFFCURVE",
"452 453 CURVE SMOOTH",
"452 497 OFFCURVE",
"447 536 OFFCURVE",
"436 571 CURVE",
"487 609 LINE",
"583 450 OFFCURVE",
"600 367 OFFCURVE",
"600 279 CURVE SMOOTH",
"600 63 OFFCURVE",
"485 -155 OFFCURVE",
"348 -155 CURVE SMOOTH",
"310 -155 OFFCURVE",
"291 -149 OFFCURVE",
"291 -137 CURVE SMOOTH",
"291 -132 OFFCURVE",
"292 -126 OFFCURVE",
"295 -122 CURVE SMOOTH",
"298 -118 OFFCURVE",
"300 -109 OFFCURVE",
"300 -98 CURVE SMOOTH",
"300 -79 OFFCURVE",
"283 -50 OFFCURVE",
"240 -50 CURVE SMOOTH",
"205 -50 OFFCURVE",
"179 -76 OFFCURVE",
"179 -111 CURVE SMOOTH",
"179 -175 OFFCURVE",
"235 -207 OFFCURVE",
"314 -207 CURVE SMOOTH"
);
}
);
width = 792;
}
);
note = u1D584;
unicode = 1D584;
script = "Black Letter";
category = Letter;
subCategory = Uppercase;
},
{
glyphname = "ZBold-fraktur";
production = u1D585;
lastChange = "2019-05-10 14:47:10 +0000";
layers = (
{
layerId = "9166331D-2337-4AD9-B82D-8EEBFFA66093";
paths = (
{
closed = 1;
nodes = (
"94 -172 LINE",
"74 -155 OFFCURVE",
"64 -137 OFFCURVE",
"64 -117 CURVE SMOOTH",
"64 -94 OFFCURVE",
"81 -72 OFFCURVE",
"109 -72 CURVE SMOOTH",
"140 -72 OFFCURVE",
"163 -98 OFFCURVE",
"200 -152 CURVE",
"230 -152 LINE",
"233 -137 OFFCURVE",
"251 -132 OFFCURVE",
"287 -126 CURVE SMOOTH",
"310 -122 LINE SMOOTH",
"414 -104 OFFCURVE",
"541 -21 OFFCURVE",
"541 133 CURVE SMOOTH",
"541 245 OFFCURVE",
"462 335 OFFCURVE",
"345 354 CURVE",
"462 378 OFFCURVE",
"530 454 OFFCURVE",
"530 548 CURVE SMOOTH",
"530 661 OFFCURVE",
"428 749 OFFCURVE",
"293 749 CURVE SMOOTH",
"140 749 OFFCURVE",
"50 670 OFFCURVE",
"36 539 CURVE",
"80 539 LINE",
"88 619 OFFCURVE",
"154 687 OFFCURVE",
"232 687 CURVE SMOOTH",
"317 687 OFFCURVE",
"376 621 OFFCURVE",
"376 525 CURVE SMOOTH",
"376 443 OFFCURVE",
"315 376 OFFCURVE",
"233 376 CURVE SMOOTH",
"197 376 OFFCURVE",
"151 392 OFFCURVE",
"116 428 CURVE",
"83 399 LINE",
"101 372 OFFCURVE",
"144 346 OFFCURVE",
"192 340 CURVE",
"117 331 OFFCURVE",
"73 298 OFFCURVE",
"61 243 CURVE",
"91 219 LINE",
"124 238 LINE",
"120 246 OFFCURVE",
"118 253 OFFCURVE",
"118 259 CURVE SMOOTH",
"118 282 OFFCURVE",
"143 297 OFFCURVE",
"186 297 CURVE SMOOTH",
"310 297 OFFCURVE",
"404 195 OFFCURVE",
"404 66 CURVE SMOOTH",
"404 -16 OFFCURVE",
"370 -71 OFFCURVE",
"318 -71 CURVE SMOOTH",
"283 -71 OFFCURVE",
"215 -9 OFFCURVE",
"210 26 CURVE",
"180 26 LINE",
"180 12 OFFCURVE",
"174 7 OFFCURVE",
"150 -2 CURVE SMOOTH",
"120 -13 LINE SMOOTH",
"50 -39 OFFCURVE",
"20 -70 OFFCURVE",
"20 -116 CURVE SMOOTH",
"20 -150 OFFCURVE",
"35 -179 OFFCURVE",
"66 -204 CURVE"
);
}
);
width = 597;
}
);
note = u1D585;
unicode = 1D585;
script = "Black Letter";
category = Letter;
subCategory = Uppercase;
},
{
glyphname = u1D586;
production = u1D586;
lastChange = "2019-05-10 14:47:10 +0000";
layers = (
{
layerId = "9166331D-2337-4AD9-B82D-8EEBFFA66093";
paths = (
{
closed = 1;
nodes = (
"269 102 LINE",
"269 86 LINE SMOOTH",
"269 54 OFFCURVE",
"294 27 OFFCURVE",
"344 6 CURVE",
"334 -5 LINE",
"358 -23 LINE",
"468 103 LINE",
"446 124 LINE",
"430 106 OFFCURVE",
"417 97 OFFCURVE",
"406 97 CURVE SMOOTH",
"393 97 OFFCURVE",
"386 112 OFFCURVE",
"386 141 CURVE SMOOTH",
"386 350 LINE SMOOTH",
"386 385 OFFCURVE",
"392 396 OFFCURVE",
"416 403 CURVE",
"416 433 LINE",
"373 439 OFFCURVE",
"320 458 OFFCURVE",
"259 488 CURVE",
"259 498 LINE",
"229 498 LINE",
"151 431 LINE SMOOTH",
"65 357 OFFCURVE",
"23 292 OFFCURVE",
"23 216 CURVE SMOOTH",
"23 149 OFFCURVE",
"44 88 OFFCURVE",
"86 32 CURVE SMOOTH",
"90 27 OFFCURVE",
"92 24 OFFCURVE",
"94 21 CURVE SMOOTH",
"96 18 OFFCURVE",
"97 13 OFFCURVE",
"97 11 CURVE",
"84 0 LINE",
"104 -23 LINE"
);
},
{
closed = 1;
nodes = (
"184 94 OFFCURVE",
"171 113 OFFCURVE",
"158 149 CURVE SMOOTH",
"145 186 OFFCURVE",
"138 224 OFFCURVE",
"138 263 CURVE SMOOTH",
"138 338 OFFCURVE",
"145 379 OFFCURVE",
"182 414 CURVE",
"188 409 OFFCURVE",
"194 406 OFFCURVE",
"219 394 CURVE SMOOTH",
"244 382 OFFCURVE",
"262 373 OFFCURVE",
"269 369 CURVE",
"269 146 LINE",
"225 111 OFFCURVE",
"201 94 OFFCURVE",
"196 94 CURVE SMOOTH"
);
}
);
width = 470;
}
);
note = u1D586;
unicode = 1D586;
script = "Black Letter";
category = Letter;
subCategory = Lowercase;
},
{
glyphname = u1D587;
production = u1D587;
lastChange = "2019-05-10 14:47:10 +0000";
layers = (
{
layerId = "9166331D-2337-4AD9-B82D-8EEBFFA66093";
paths = (
{
closed = 1;
nodes = (
"233 -23 LINE",
"336 87 LINE SMOOTH",
"419 176 OFFCURVE",
"436 209 OFFCURVE",
"436 254 CURVE SMOOTH",
"436 294 OFFCURVE",
"418 329 OFFCURVE",
"398 365 CURVE SMOOTH",
"383 392 OFFCURVE",
"362 422 OFFCURVE",
"355 434 CURVE SMOOTH",
"334 472 LINE",
"346 480 LINE",
"330 509 LINE",
"184 430 LINE",
"184 582 LINE SMOOTH",
"184 660 OFFCURVE",
"205 695 OFFCURVE",
"273 699 CURVE",
"273 729 LINE",
"195 729 OFFCURVE",
"141 682 OFFCURVE",
"117 604 CURVE",
"107 648 OFFCURVE",
"92 678 OFFCURVE",
"72 694 CURVE",
"46 674 LINE",
"60 651 OFFCURVE",
"67 625 OFFCURVE",
"67 596 CURVE SMOOTH",
"67 147 LINE SMOOTH",
"67 122 OFFCURVE",
"65 105 OFFCURVE",
"63 97 CURVE SMOOTH",
"60 87 OFFCURVE",
"53 82 OFFCURVE",
"44 78 CURVE",
"44 48 LINE",
"96 42 OFFCURVE",
"205 -5 OFFCURVE",
"205 -23 CURVE"
);
},
{
closed = 1;
nodes = (
"259 78 OFFCURVE",
"229 89 OFFCURVE",
"184 112 CURVE",
"184 390 LINE",
"234 418 LINE",
"265 364 OFFCURVE",
"324 257 OFFCURVE",
"324 207 CURVE SMOOTH",
"324 142 OFFCURVE",
"298 78 OFFCURVE",
"274 78 CURVE SMOOTH"
);
}
);
width = 459;
}
);
note = u1D587;
unicode = 1D587;
script = "Black Letter";
category = Letter;
subCategory = Lowercase;
},
{
glyphname = u1D588;
production = u1D588;
lastChange = "2019-05-10 14:47:10 +0000";
layers = (
{
layerId = "9166331D-2337-4AD9-B82D-8EEBFFA66093";
paths = (
{
closed = 1;
nodes = (
"352 121 LINE",
"333 144 LINE",
"300 115 OFFCURVE",
"274 100 OFFCURVE",
"255 100 CURVE SMOOTH",
"247 100 OFFCURVE",
"231 107 OFFCURVE",
"210 120 CURVE SMOOTH",
"175 142 OFFCURVE",
"175 160 OFFCURVE",
"175 193 CURVE SMOOTH",
"175 388 LINE SMOOTH",
"175 413 OFFCURVE",
"179 429 OFFCURVE",
"186 436 CURVE",
"237 397 OFFCURVE",
"264 377 OFFCURVE",
"268 375 CURVE SMOOTH",
"271 373 OFFCURVE",
"274 372 OFFCURVE",
"277 372 CURVE SMOOTH",
"284 372 OFFCURVE",
"295 380 OFFCURVE",
"311 396 CURVE SMOOTH",
"366 453 LINE",
"346 475 LINE",
"335 466 OFFCURVE",
"329 462 OFFCURVE",
"326 462 CURVE SMOOTH",
"321 462 OFFCURVE",
"308 470 OFFCURVE",
"289 485 CURVE SMOOTH",
"269 501 OFFCURVE",
"254 509 OFFCURVE",
"243 509 CURVE SMOOTH",
"234 509 OFFCURVE",
"223 505 OFFCURVE",
"214 498 CURVE SMOOTH",
"90 405 LINE SMOOTH",
"61 383 OFFCURVE",
"58 369 OFFCURVE",
"58 333 CURVE SMOOTH",
"58 157 LINE SMOOTH",
"58 120 OFFCURVE",
"74 92 OFFCURVE",
"96 69 CURVE SMOOTH",
"123 41 OFFCURVE",
"159 20 OFFCURVE",
"175 11 CURVE",
"161 -5 LINE",
"185 -23 LINE"
);
}
);
width = 383;
}
);
note = u1D588;
unicode = 1D588;
script = "Black Letter";
category = Letter;
subCategory = Lowercase;
},
{
glyphname = u1D589;
production = u1D589;
lastChange = "2019-05-10 14:47:10 +0000";
layers = (
{
layerId = "9166331D-2337-4AD9-B82D-8EEBFFA66093";
paths = (
{
closed = 1;
nodes = (
"246 -23 LINE",
"304 39 OFFCURVE",
"344 85 OFFCURVE",
"368 116 CURVE SMOOTH",
"414 176 OFFCURVE",
"454 250 OFFCURVE",
"454 319 CURVE SMOOTH",
"454 394 OFFCURVE",
"420 453 OFFCURVE",
"296 528 CURVE SMOOTH",
"234 565 OFFCURVE",
"192 591 OFFCURVE",
"172 606 CURVE SMOOTH",
"152 621 OFFCURVE",
"142 638 OFFCURVE",
"142 656 CURVE SMOOTH",
"142 681 OFFCURVE",
"165 699 OFFCURVE",
"209 699 CURVE",
"209 729 LINE",
"100 729 OFFCURVE",
"31 683 OFFCURVE",
"31 620 CURVE SMOOTH",
"31 597 OFFCURVE",
"41 575 OFFCURVE",
"60 554 CURVE SMOOTH",
"79 533 OFFCURVE",
"119 505 OFFCURVE",
"179 472 CURVE",
"55 400 LINE",
"59 378 OFFCURVE",
"60 351 OFFCURVE",
"60 318 CURVE SMOOTH",
"60 156 LINE SMOOTH",
"60 124 OFFCURVE",
"60 98 OFFCURVE",
"37 90 CURVE",
"37 60 LINE",
"111 40 OFFCURVE",
"206 -5 OFFCURVE",
"216 -23 CURVE"
);
},
{
closed = 1;
nodes = (
"266 72 OFFCURVE",
"257 77 OFFCURVE",
"244 86 CURVE SMOOTH",
"230 96 OFFCURVE",
"208 109 OFFCURVE",
"177 124 CURVE",
"177 425 LINE",
"219 448 LINE",
"317 392 OFFCURVE",
"347 357 OFFCURVE",
"347 271 CURVE SMOOTH",
"347 220 OFFCURVE",
"338 174 OFFCURVE",
"320 133 CURVE SMOOTH",
"302 92 OFFCURVE",
"285 72 OFFCURVE",
"269 72 CURVE SMOOTH"
);
}
);
width = 477;
}
);
note = u1D589;
unicode = 1D589;
script = "Black Letter";
category = Letter;
subCategory = Lowercase;
},
{
glyphname = u1D58A;
production = u1D58A;
lastChange = "2019-05-10 14:47:10 +0000";
layers = (
{
layerId = "9166331D-2337-4AD9-B82D-8EEBFFA66093";
paths = (
{
closed = 1;
nodes = (
"381 124 LINE",
"361 146 LINE",
"325 114 OFFCURVE",
"307 105 OFFCURVE",
"270 105 CURVE SMOOTH",
"229 105 OFFCURVE",
"176 139 OFFCURVE",
"176 186 CURVE",
"372 334 LINE SMOOTH",
"380 340 OFFCURVE",
"384 345 OFFCURVE",
"384 349 CURVE SMOOTH",
"384 353 OFFCURVE",
"382 359 OFFCURVE",
"377 366 CURVE SMOOTH",
"281 509 LINE",
"259 509 LINE",
"90 395 LINE SMOOTH",
"65 378 OFFCURVE",
"58 366 OFFCURVE",
"58 323 CURVE SMOOTH",
"58 182 LINE SMOOTH",
"58 98 OFFCURVE",
"94 42 OFFCURVE",
"208 3 CURVE",
"204 -10 LINE",
"231 -23 LINE"
);
},
{
closed = 1;
nodes = (
"175 352 LINE SMOOTH",
"175 406 OFFCURVE",
"177 410 OFFCURVE",
"208 431 CURVE",
"282 314 LINE",
"282 312 OFFCURVE",
"280 309 OFFCURVE",
"275 305 CURVE SMOOTH",
"175 231 LINE"
);
}
);
width = 415;
}
);
note = u1D58A;
unicode = 1D58A;
script = "Black Letter";
category = Letter;
subCategory = Lowercase;
},
{
glyphname = u1D58B;
production = u1D58B;
lastChange = "2019-05-10 14:47:10 +0000";
layers = (
{
layerId = "9166331D-2337-4AD9-B82D-8EEBFFA66093";
paths = (
{
closed = 1;
nodes = (
"142 -194 LINE",
"158 -77 LINE SMOOTH",
"181 94 OFFCURVE",
"194 207 OFFCURVE",
"194 263 CURVE SMOOTH",
"194 396 LINE",
"295 396 LINE",
"295 466 LINE",
"194 466 LINE",
"182 502 OFFCURVE",
"171 531 OFFCURVE",
"161 552 CURVE SMOOTH",
"151 573 OFFCURVE",
"146 592 OFFCURVE",
"146 609 CURVE SMOOTH",
"146 631 OFFCURVE",
"159 642 OFFCURVE",
"186 642 CURVE SMOOTH",
"211 642 OFFCURVE",
"264 626 OFFCURVE",
"303 601 CURVE",
"363 714 LINE",
"336 728 LINE",
"330 718 OFFCURVE",
"323 713 OFFCURVE",
"318 713 CURVE SMOOTH",
"303 713 OFFCURVE",
"287 715 OFFCURVE",
"271 721 CURVE SMOOTH",
"254 727 OFFCURVE",
"238 729 OFFCURVE",
"221 729 CURVE SMOOTH",
"157 729 OFFCURVE",
"111 673 OFFCURVE",
"98 599 CURVE SMOOTH",
"85 524 OFFCURVE",
"67 439 OFFCURVE",
"20 426 CURVE",
"20 396 LINE",
"67 396 LINE",
"67 313 LINE SMOOTH",
"67 264 OFFCURVE",
"79 143 OFFCURVE",
"99 -49 CURVE SMOOTH",
"114 -194 LINE"
);
}
);
width = 307;
}
);
note = u1D58B;
unicode = 1D58B;
script = "Black Letter";
category = Letter;
subCategory = Lowercase;
},
{
glyphname = u1D58C;
production = u1D58C;
lastChange = "2019-05-10 14:47:10 +0000";
layers = (
{
layerId = "9166331D-2337-4AD9-B82D-8EEBFFA66093";
paths = (
{
closed = 1;
nodes = (
"349 -199 OFFCURVE",
"439 -100 OFFCURVE",
"439 33 CURVE SMOOTH",
"439 41 OFFCURVE",
"439 48 OFFCURVE",
"438 56 CURVE",
"407 100 OFFCURVE",
"391 163 OFFCURVE",
"391 244 CURVE SMOOTH",
"391 322 OFFCURVE",
"398 364 OFFCURVE",
"425 403 CURVE",
"425 433 LINE",
"370 447 OFFCURVE",
"330 462 OFFCURVE",
"303 477 CURVE SMOOTH",
"276 492 OFFCURVE",
"262 501 OFFCURVE",
"262 507 CURVE",
"263 509 LINE",
"233 509 LINE",
"146 440 OFFCURVE",
"90 386 OFFCURVE",
"63 347 CURVE SMOOTH",
"36 308 OFFCURVE",
"24 266 OFFCURVE",
"24 221 CURVE SMOOTH",
"24 197 OFFCURVE",
"28 175 OFFCURVE",
"33 156 CURVE SMOOTH",
"44 117 OFFCURVE",
"86 58 OFFCURVE",
"98 44 CURVE SMOOTH",
"103 38 OFFCURVE",
"106 30 OFFCURVE",
"106 22 CURVE SMOOTH",
"106 13 OFFCURVE",
"103 5 OFFCURVE",
"97 -1 CURVE",
"124 -12 LINE",
"284 121 LINE",
"289 89 OFFCURVE",
"300 55 OFFCURVE",
"316 21 CURVE SMOOTH",
"333 -14 OFFCURVE",
"341 -35 OFFCURVE",
"341 -42 CURVE SMOOTH",
"341 -106 OFFCURVE",
"288 -163 OFFCURVE",
"223 -163 CURVE SMOOTH",
"153 -163 OFFCURVE",
"118 -130 OFFCURVE",
"116 -64 CURVE",
"22 -64 LINE",
"32 -148 OFFCURVE",
"106 -199 OFFCURVE",
"218 -199 CURVE SMOOTH"
);
},
{
closed = 1;
nodes = (
"182 117 OFFCURVE",
"132 181 OFFCURVE",
"132 262 CURVE SMOOTH",
"132 340 OFFCURVE",
"148 383 OFFCURVE",
"184 418 CURVE",
"218 391 OFFCURVE",
"255 371 OFFCURVE",
"297 358 CURVE",
"282 312 OFFCURVE",
"274 264 OFFCURVE",
"274 214 CURVE SMOOTH",
"274 195 OFFCURVE",
"275 177 OFFCURVE",
"277 158 CURVE",
"237 129 LINE SMOOTH",
"227 121 OFFCURVE",
"217 117 OFFCURVE",
"210 117 CURVE SMOOTH"
);
}
);
width = 475;
}
);
note = u1D58C;
unicode = 1D58C;
script = "Black Letter";
category = Letter;
subCategory = Lowercase;
},
{
glyphname = u1D58D;
production = u1D58D;
lastChange = "2019-05-10 14:47:10 +0000";
layers = (
{
layerId = "9166331D-2337-4AD9-B82D-8EEBFFA66093";
paths = (
{
closed = 1;
nodes = (
"378 -32 OFFCURVE",
"438 98 OFFCURVE",
"438 237 CURVE SMOOTH",
"438 323 OFFCURVE",
"395 397 OFFCURVE",
"365 434 CURVE SMOOTH",
"350 452 OFFCURVE",
"343 463 OFFCURVE",
"343 467 CURVE SMOOTH",
"343 476 OFFCURVE",
"347 482 OFFCURVE",
"354 487 CURVE",
"333 509 LINE",
"187 400 LINE",
"187 582 LINE SMOOTH",
"187 660 OFFCURVE",
"208 695 OFFCURVE",
"276 699 CURVE",
"276 729 LINE",
"198 729 OFFCURVE",
"144 682 OFFCURVE",
"120 604 CURVE",
"111 648 OFFCURVE",
"96 678 OFFCURVE",
"75 694 CURVE",
"49 674 LINE",
"63 653 OFFCURVE",
"70 628 OFFCURVE",
"70 599 CURVE SMOOTH",
"70 120 LINE SMOOTH",
"70 99 OFFCURVE",
"61 69 OFFCURVE",
"37 69 CURVE",
"37 39 LINE",
"66 33 OFFCURVE",
"106 9 OFFCURVE",
"117 -23 CURVE",
"147 -23 LINE",
"272 106 LINE",
"252 128 LINE",
"218 98 LINE",
"202 98 OFFCURVE",
"187 108 OFFCURVE",
"187 122 CURVE SMOOTH",
"187 357 LINE",
"242 399 LINE",
"307 320 OFFCURVE",
"330 254 OFFCURVE",
"330 177 CURVE SMOOTH",
"330 45 OFFCURVE",
"296 -48 OFFCURVE",
"198 -183 CURVE",
"222 -200 LINE"
);
}
);
width = 461;
}
);
note = u1D58D;
unicode = 1D58D;
script = "Black Letter";
category = Letter;
subCategory = Lowercase;
},
{
glyphname = u1D58E;
production = u1D58E;
lastChange = "2019-05-10 14:47:10 +0000";
layers = (
{
layerId = "9166331D-2337-4AD9-B82D-8EEBFFA66093";
paths = (
{
closed = 1;
nodes = (
"309 107 LINE",
"287 127 LINE",
"266 106 OFFCURVE",
"251 95 OFFCURVE",
"245 95 CURVE SMOOTH",
"226 95 OFFCURVE",
"224 108 OFFCURVE",
"224 139 CURVE SMOOTH",
"224 343 LINE SMOOTH",
"224 370 OFFCURVE",
"233 384 OFFCURVE",
"251 386 CURVE",
"251 416 LINE",
"227 416 OFFCURVE",
"168 452 OFFCURVE",
"168 471 CURVE SMOOTH",
"168 475 OFFCURVE",
"172 482 OFFCURVE",
"180 493 CURVE",
"154 509 LINE",
"102 448 OFFCURVE",
"58 405 OFFCURVE",
"21 378 CURVE",
"41 356 LINE",
"59 372 OFFCURVE",
"74 380 OFFCURVE",
"86 380 CURVE SMOOTH",
"104 380 OFFCURVE",
"107 371 OFFCURVE",
"107 342 CURVE SMOOTH",
"107 171 LINE SMOOTH",
"107 158 OFFCURVE",
"107 146 OFFCURVE",
"106 134 CURVE SMOOTH",
"105 119 OFFCURVE",
"104 103 OFFCURVE",
"104 88 CURVE SMOOTH",
"104 42 OFFCURVE",
"126 25 OFFCURVE",
"173 3 CURVE",
"167 -7 LINE",
"193 -23 LINE"
);
},
{
closed = 1;
nodes = (
"137 553 LINE",
"177 594 OFFCURVE",
"241 660 OFFCURVE",
"241 698 CURVE SMOOTH",
"241 725 OFFCURVE",
"228 739 OFFCURVE",
"200 739 CURVE SMOOTH",
"163 739 OFFCURVE",
"138 707 OFFCURVE",
"125 644 CURVE SMOOTH",
"106 553 LINE"
);
}
);
width = 320;
}
);
note = u1D58E;
unicode = 1D58E;
script = "Black Letter";
category = Letter;
subCategory = Lowercase;
},
{
glyphname = u1D58F;
production = u1D58F;
lastChange = "2019-05-10 14:47:10 +0000";
layers = (
{
layerId = "9166331D-2337-4AD9-B82D-8EEBFFA66093";
paths = (
{
closed = 1;
nodes = (
"74 -200 LINE",
"134 -108 OFFCURVE",
"170 -20 OFFCURVE",
"182 64 CURVE",
"182 60 OFFCURVE",
"186 47 OFFCURVE",
"192 28 CURVE SMOOTH",
"201 -1 OFFCURVE",
"206 -15 OFFCURVE",
"209 -23 CURVE",
"239 -23 LINE",
"228 15 OFFCURVE",
"222 50 OFFCURVE",
"222 84 CURVE SMOOTH",
"222 346 LINE SMOOTH",
"222 369 OFFCURVE",
"232 384 OFFCURVE",
"249 386 CURVE",
"249 416 LINE",
"225 416 OFFCURVE",
"166 452 OFFCURVE",
"166 471 CURVE SMOOTH",
"166 475 OFFCURVE",
"170 482 OFFCURVE",
"178 493 CURVE",
"152 509 LINE",
"100 448 OFFCURVE",
"56 405 OFFCURVE",
"19 378 CURVE",
"39 356 LINE",
"57 372 OFFCURVE",
"72 380 OFFCURVE",
"84 380 CURVE SMOOTH",
"100 380 OFFCURVE",
"105 370 OFFCURVE",
"105 345 CURVE SMOOTH",
"105 115 LINE SMOOTH",
"105 -76 OFFCURVE",
"82 -130 OFFCURVE",
"43 -200 CURVE"
);
},
{
closed = 1;
nodes = (
"135 553 LINE",
"175 594 OFFCURVE",
"239 660 OFFCURVE",
"239 698 CURVE SMOOTH",
"239 725 OFFCURVE",
"226 739 OFFCURVE",
"198 739 CURVE SMOOTH",
"161 739 OFFCURVE",
"136 707 OFFCURVE",
"123 644 CURVE SMOOTH",
"104 553 LINE"
);
}
);
width = 271;
}
);
note = u1D58F;
unicode = 1D58F;
script = "Black Letter";
category = Letter;
subCategory = Lowercase;
},
{
glyphname = u1D590;
production = u1D590;
lastChange = "2019-05-10 14:47:10 +0000";
layers = (
{
layerId = "9166331D-2337-4AD9-B82D-8EEBFFA66093";
paths = (
{
closed = 1;
nodes = (
"147 -23 LINE",
"260 94 LINE",
"239 116 LINE",
"215 95 LINE",
"201 95 OFFCURVE",
"186 109 OFFCURVE",
"186 127 CURVE SMOOTH",
"186 192 LINE",
"240 225 LINE",
"277 184 OFFCURVE",
"293 155 OFFCURVE",
"302 84 CURVE SMOOTH",
"306 49 OFFCURVE",
"318 24 OFFCURVE",
"340 9 CURVE",
"327 -6 LINE",
"352 -23 LINE",
"466 97 LINE",
"444 116 LINE",
"427 99 LINE",
"418 106 OFFCURVE",
"407 116 OFFCURVE",
"404 137 CURVE SMOOTH",
"394 212 OFFCURVE",
"372 262 OFFCURVE",
"337 291 CURVE",
"363 310 OFFCURVE",
"383 325 OFFCURVE",
"396 336 CURVE SMOOTH",
"410 347 OFFCURVE",
"416 359 OFFCURVE",
"416 371 CURVE SMOOTH",
"416 384 OFFCURVE",
"409 404 OFFCURVE",
"396 431 CURVE SMOOTH",
"383 458 OFFCURVE",
"376 473 OFFCURVE",
"376 477 CURVE SMOOTH",
"376 480 OFFCURVE",
"378 485 OFFCURVE",
"383 491 CURVE",
"364 511 LINE",
"186 403 LINE",
"186 578 LINE SMOOTH",
"186 656 OFFCURVE",
"208 695 OFFCURVE",
"276 699 CURVE",
"276 729 LINE",
"198 729 OFFCURVE",
"144 682 OFFCURVE",
"120 604 CURVE",
"109 649 OFFCURVE",
"94 679 OFFCURVE",
"75 694 CURVE",
"49 674 LINE",
"63 652 OFFCURVE",
"70 636 OFFCURVE",
"70 599 CURVE SMOOTH",
"70 120 LINE SMOOTH",
"70 99 OFFCURVE",
"61 69 OFFCURVE",
"37 69 CURVE",
"37 39 LINE",
"66 33 OFFCURVE",
"106 9 OFFCURVE",
"117 -23 CURVE"
);
},
{
closed = 1;
nodes = (
"186 360 LINE",
"276 415 LINE",
"283 399 OFFCURVE",
"290 385 OFFCURVE",
"297 373 CURVE SMOOTH",
"305 359 OFFCURVE",
"307 347 OFFCURVE",
"307 334 CURVE SMOOTH",
"307 321 OFFCURVE",
"299 308 OFFCURVE",
"280 296 CURVE SMOOTH",
"186 234 LINE"
);
}
);
width = 466;
}
);
note = u1D590;
unicode = 1D590;
script = "Black Letter";
category = Letter;
subCategory = Lowercase;
},
{
glyphname = u1D591;
production = u1D591;
lastChange = "2019-05-10 14:47:10 +0000";
layers = (
{
layerId = "9166331D-2337-4AD9-B82D-8EEBFFA66093";
paths = (
{
closed = 1;
nodes = (
"314 101 LINE",
"292 121 LINE",
"277 106 OFFCURVE",
"265 99 OFFCURVE",
"255 99 CURVE SMOOTH",
"248 99 OFFCURVE",
"226 108 OFFCURVE",
"190 127 CURVE SMOOTH",
"182 131 OFFCURVE",
"178 143 OFFCURVE",
"178 160 CURVE SMOOTH",
"178 582 LINE SMOOTH",
"178 660 OFFCURVE",
"199 695 OFFCURVE",
"267 699 CURVE",
"267 729 LINE",
"189 729 OFFCURVE",
"135 682 OFFCURVE",
"111 604 CURVE",
"101 649 OFFCURVE",
"85 679 OFFCURVE",
"66 694 CURVE",
"40 674 LINE",
"58 644 OFFCURVE",
"61 628 OFFCURVE",
"61 598 CURVE SMOOTH",
"61 163 LINE SMOOTH",
"61 128 OFFCURVE",
"59 100 OFFCURVE",
"37 93 CURVE",
"37 63 LINE",
"123 34 OFFCURVE",
"165 15 OFFCURVE",
"165 5 CURVE SMOOTH",
"165 1 OFFCURVE",
"162 -3 OFFCURVE",
"155 -10 CURVE",
"182 -23 LINE"
);
}
);
width = 282;
}
);
note = u1D591;
unicode = 1D591;
script = "Black Letter";
category = Letter;
subCategory = Lowercase;
},
{
glyphname = u1D592;
production = u1D592;
lastChange = "2019-05-10 14:47:10 +0000";
layers = (
{
layerId = "9166331D-2337-4AD9-B82D-8EEBFFA66093";
paths = (
{
closed = 1;
nodes = (
"156 -23 LINE",
"167 9 OFFCURVE",
"203 33 OFFCURVE",
"232 39 CURVE",
"232 69 LINE",
"210 73 OFFCURVE",
"199 90 OFFCURVE",
"199 120 CURVE SMOOTH",
"199 330 LINE",
"283 404 LINE",
"304 391 OFFCURVE",
"315 372 OFFCURVE",
"315 345 CURVE SMOOTH",
"315 120 LINE SMOOTH",
"315 90 OFFCURVE",
"304 73 OFFCURVE",
"282 69 CURVE",
"282 39 LINE",
"312 33 OFFCURVE",
"349 9 OFFCURVE",
"359 -23 CURVE",
"389 -23 LINE",
"399 9 OFFCURVE",
"436 33 OFFCURVE",
"465 39 CURVE",
"465 69 LINE",
"443 73 OFFCURVE",
"432 90 OFFCURVE",
"432 120 CURVE SMOOTH",
"432 330 LINE",
"514 404 LINE",
"537 391 OFFCURVE",
"548 372 OFFCURVE",
"548 345 CURVE SMOOTH",
"548 164 LINE SMOOTH",
"548 148 OFFCURVE",
"547 134 OFFCURVE",
"546 120 CURVE SMOOTH",
"545 107 OFFCURVE",
"545 94 OFFCURVE",
"545 84 CURVE SMOOTH",
"545 43 OFFCURVE",
"571 22 OFFCURVE",
"614 3 CURVE",
"608 -7 LINE",
"634 -23 LINE",
"750 107 LINE",
"728 127 LINE",
"707 106 OFFCURVE",
"692 95 OFFCURVE",
"686 95 CURVE SMOOTH",
"668 95 OFFCURVE",
"665 104 OFFCURVE",
"665 134 CURVE SMOOTH",
"665 374 LINE SMOOTH",
"665 395 OFFCURVE",
"674 410 OFFCURVE",
"692 417 CURVE",
"692 447 LINE",
"663 449 OFFCURVE",
"622 473 OFFCURVE",
"600 509 CURVE",
"570 509 LINE",
"432 379 LINE",
"432 412 LINE SMOOTH",
"432 435 OFFCURVE",
"423 452 OFFCURVE",
"404 467 CURVE SMOOTH",
"380 486 LINE SMOOTH",
"371 493 OFFCURVE",
"366 500 OFFCURVE",
"366 506 CURVE SMOOTH",
"366 509 LINE",
"336 509 LINE",
"336 502 OFFCURVE",
"325 489 OFFCURVE",
"302 468 CURVE SMOOTH",
"199 377 LINE",
"199 384 LINE SMOOTH",
"199 413 OFFCURVE",
"192 440 OFFCURVE",
"175 455 CURVE SMOOTH",
"168 461 OFFCURVE",
"162 466 OFFCURVE",
"156 469 CURVE SMOOTH",
"147 473 OFFCURVE",
"141 476 OFFCURVE",
"141 480 CURVE SMOOTH",
"141 482 OFFCURVE",
"143 486 OFFCURVE",
"147 490 CURVE",
"123 509 LINE",
"21 396 LINE",
"43 376 LINE",
"62 396 LINE",
"75 389 OFFCURVE",
"82 365 OFFCURVE",
"82 324 CURVE SMOOTH",
"82 120 LINE SMOOTH",
"82 90 OFFCURVE",
"71 73 OFFCURVE",
"49 69 CURVE",
"49 39 LINE",
"78 33 OFFCURVE",
"116 9 OFFCURVE",
"126 -23 CURVE"
);
}
);
width = 769;
}
);
note = u1D592;
unicode = 1D592;
script = "Black Letter";
category = Letter;
subCategory = Lowercase;
},
{
glyphname = u1D593;
production = u1D593;
lastChange = "2019-05-10 14:47:10 +0000";
layers = (
{
layerId = "9166331D-2337-4AD9-B82D-8EEBFFA66093";
paths = (
{
closed = 1;
nodes = (
"156 -23 LINE",
"167 9 OFFCURVE",
"203 33 OFFCURVE",
"232 39 CURVE",
"232 69 LINE",
"210 73 OFFCURVE",
"199 90 OFFCURVE",
"199 120 CURVE SMOOTH",
"199 328 LINE",
"279 405 LINE",
"302 393 OFFCURVE",
"313 373 OFFCURVE",
"313 346 CURVE SMOOTH",
"313 166 LINE SMOOTH",
"313 153 OFFCURVE",
"313 140 OFFCURVE",
"312 127 CURVE SMOOTH",
"311 114 OFFCURVE",
"310 101 OFFCURVE",
"310 88 CURVE SMOOTH",
"310 42 OFFCURVE",
"332 25 OFFCURVE",
"379 3 CURVE",
"373 -7 LINE",
"399 -23 LINE",
"515 107 LINE",
"493 127 LINE",
"472 106 OFFCURVE",
"458 95 OFFCURVE",
"451 95 CURVE SMOOTH",
"434 95 OFFCURVE",
"430 106 OFFCURVE",
"430 134 CURVE SMOOTH",
"430 374 LINE SMOOTH",
"430 395 OFFCURVE",
"439 410 OFFCURVE",
"457 417 CURVE",
"457 447 LINE",
"428 449 OFFCURVE",
"384 473 OFFCURVE",
"363 509 CURVE",
"333 509 LINE",
"199 377 LINE",
"199 387 LINE SMOOTH",
"199 428 OFFCURVE",
"183 457 OFFCURVE",
"150 473 CURVE SMOOTH",
"144 476 OFFCURVE",
"141 479 OFFCURVE",
"141 481 CURVE SMOOTH",
"141 483 OFFCURVE",
"143 486 OFFCURVE",
"147 490 CURVE",
"123 509 LINE",
"21 396 LINE",
"43 376 LINE",
"62 396 LINE",
"75 389 OFFCURVE",
"82 365 OFFCURVE",
"82 324 CURVE SMOOTH",
"82 120 LINE SMOOTH",
"82 90 OFFCURVE",
"71 73 OFFCURVE",
"49 69 CURVE",
"49 39 LINE",
"78 33 OFFCURVE",
"116 9 OFFCURVE",
"126 -23 CURVE"
);
}
);
width = 534;
}
);
note = u1D593;
unicode = 1D593;
script = "Black Letter";
category = Letter;
subCategory = Lowercase;
},
{
glyphname = u1D594;
production = u1D594;
lastChange = "2019-05-10 14:47:10 +0000";
layers = (
{
layerId = "9166331D-2337-4AD9-B82D-8EEBFFA66093";
paths = (
{
closed = 1;
nodes = (
"243 -23 LINE",
"328 69 LINE SMOOTH",
"407 154 OFFCURVE",
"436 203 OFFCURVE",
"436 254 CURVE SMOOTH",
"436 283 OFFCURVE",
"429 309 OFFCURVE",
"414 333 CURVE SMOOTH",
"383 382 OFFCURVE",
"342 452 OFFCURVE",
"332 474 CURVE",
"346 481 LINE",
"331 509 LINE",
"62 400 LINE",
"65 378 OFFCURVE",
"67 351 OFFCURVE",
"67 318 CURVE SMOOTH",
"67 147 LINE SMOOTH",
"67 122 OFFCURVE",
"65 105 OFFCURVE",
"63 97 CURVE SMOOTH",
"60 87 OFFCURVE",
"53 82 OFFCURVE",
"44 78 CURVE",
"44 48 LINE",
"99 33 OFFCURVE",
"141 19 OFFCURVE",
"169 6 CURVE SMOOTH",
"197 -7 OFFCURVE",
"211 -17 OFFCURVE",
"213 -23 CURVE"
);
},
{
closed = 1;
nodes = (
"268 72 OFFCURVE",
"237 85 OFFCURVE",
"184 112 CURVE",
"184 410 LINE",
"229 428 LINE",
"241 399 OFFCURVE",
"260 363 OFFCURVE",
"286 320 CURVE SMOOTH",
"312 277 OFFCURVE",
"325 237 OFFCURVE",
"325 199 CURVE SMOOTH",
"325 167 OFFCURVE",
"319 139 OFFCURVE",
"307 112 CURVE SMOOTH",
"295 85 OFFCURVE",
"285 72 OFFCURVE",
"276 72 CURVE SMOOTH"
);
}
);
width = 459;
}
);
note = u1D594;
unicode = 1D594;
script = "Black Letter";
category = Letter;
subCategory = Lowercase;
},
{
glyphname = u1D595;
production = u1D595;
lastChange = "2019-05-10 14:47:10 +0000";
layers = (
{
layerId = "9166331D-2337-4AD9-B82D-8EEBFFA66093";
paths = (
{
closed = 1;
nodes = (
"166 -200 LINE",
"184 -105 OFFCURVE",
"195 -32 OFFCURVE",
"200 17 CURVE",
"243 1 OFFCURVE",
"266 -12 OFFCURVE",
"268 -23 CURVE",
"298 -23 LINE",
"316 5 OFFCURVE",
"348 51 OFFCURVE",
"396 114 CURVE SMOOTH",
"444 177 OFFCURVE",
"466 230 OFFCURVE",
"466 275 CURVE SMOOTH",
"466 317 OFFCURVE",
"452 357 OFFCURVE",
"425 394 CURVE SMOOTH",
"398 431 OFFCURVE",
"381 458 OFFCURVE",
"375 474 CURVE",
"389 485 LINE",
"371 509 LINE",
"206 398 LINE",
"206 406 LINE SMOOTH",
"206 424 OFFCURVE",
"197 441 OFFCURVE",
"178 458 CURVE SMOOTH",
"160 475 OFFCURVE",
"150 487 OFFCURVE",
"150 497 CURVE SMOOTH",
"150 501 OFFCURVE",
"153 510 OFFCURVE",
"159 521 CURVE",
"135 539 LINE",
"104 502 LINE SMOOTH",
"68 460 OFFCURVE",
"51 437 OFFCURVE",
"51 429 CURVE SMOOTH",
"51 422 OFFCURVE",
"54 415 OFFCURVE",
"62 407 CURVE SMOOTH",
"69 400 OFFCURVE",
"76 390 OFFCURVE",
"82 379 CURVE SMOOTH",
"88 369 OFFCURVE",
"92 342 OFFCURVE",
"92 299 CURVE SMOOTH",
"92 119 LINE",
"22 42 LINE",
"45 24 LINE",
"58 39 OFFCURVE",
"71 47 OFFCURVE",
"83 47 CURVE SMOOTH",
"88 47 OFFCURVE",
"92 46 OFFCURVE",
"97 44 CURVE",
"102 -18 OFFCURVE",
"115 -99 OFFCURVE",
"136 -200 CURVE"
);
},
{
closed = 1;
nodes = (
"297 79 OFFCURVE",
"286 83 OFFCURVE",
"267 92 CURVE SMOOTH",
"248 101 OFFCURVE",
"229 111 OFFCURVE",
"206 126 CURVE",
"206 355 LINE",
"280 406 LINE",
"291 385 OFFCURVE",
"310 356 OFFCURVE",
"336 321 CURVE SMOOTH",
"363 285 OFFCURVE",
"377 252 OFFCURVE",
"377 224 CURVE SMOOTH",
"377 152 OFFCURVE",
"342 79 OFFCURVE",
"302 79 CURVE SMOOTH"
);
}
);
width = 489;
}
);
note = u1D595;
unicode = 1D595;
script = "Black Letter";
category = Letter;
subCategory = Lowercase;
},
{
glyphname = u1D596;
production = u1D596;
lastChange = "2019-05-10 14:47:10 +0000";
layers = (
{
layerId = "9166331D-2337-4AD9-B82D-8EEBFFA66093";
paths = (
{
closed = 1;
nodes = (
"350 -200 LINE",
"362 -119 OFFCURVE",
"373 -25 OFFCURVE",
"381 79 CURVE SMOOTH",
"389 183 OFFCURVE",
"396 262 OFFCURVE",
"403 317 CURVE SMOOTH",
"410 373 OFFCURVE",
"418 401 OFFCURVE",
"428 402 CURVE",
"428 432 LINE",
"346 454 OFFCURVE",
"291 479 OFFCURVE",
"265 509 CURVE",
"235 509 LINE",
"165 454 OFFCURVE",
"118 414 OFFCURVE",
"94 386 CURVE SMOOTH",
"47 331 OFFCURVE",
"23 279 OFFCURVE",
"23 219 CURVE SMOOTH",
"23 197 OFFCURVE",
"26 177 OFFCURVE",
"32 158 CURVE SMOOTH",
"43 120 OFFCURVE",
"85 59 OFFCURVE",
"101 41 CURVE SMOOTH",
"109 32 OFFCURVE",
"112 21 OFFCURVE",
"112 16 CURVE SMOOTH",
"112 14 OFFCURVE",
"107 6 OFFCURVE",
"102 1 CURVE",
"124 -18 LINE",
"285 122 LINE",
"294 42 OFFCURVE",
"303 -36 OFFCURVE",
"312 -116 CURVE SMOOTH",
"315 -144 OFFCURVE",
"318 -172 OFFCURVE",
"322 -200 CURVE"
);
},
{
closed = 1;
nodes = (
"179 116 OFFCURVE",
"132 178 OFFCURVE",
"132 264 CURVE SMOOTH",
"132 332 OFFCURVE",
"150 384 OFFCURVE",
"187 421 CURVE",
"218 396 OFFCURVE",
"250 376 OFFCURVE",
"285 361 CURVE",
"285 167 LINE",
"237 128 LINE SMOOTH",
"227 120 OFFCURVE",
"217 116 OFFCURVE",
"210 116 CURVE SMOOTH"
);
}
);
width = 470;
}
);
note = u1D596;
unicode = 1D596;
script = "Black Letter";
category = Letter;
subCategory = Lowercase;
},
{
glyphname = u1D597;
production = u1D597;
lastChange = "2019-05-10 14:47:10 +0000";
layers = (
{
layerId = "9166331D-2337-4AD9-B82D-8EEBFFA66093";
paths = (
{
closed = 1;
nodes = (
"338 112 LINE",
"316 132 LINE",
"292 109 OFFCURVE",
"282 101 OFFCURVE",
"271 101 CURVE SMOOTH",
"265 101 OFFCURVE",
"253 105 OFFCURVE",
"236 114 CURVE SMOOTH",
"201 132 OFFCURVE",
"199 135 OFFCURVE",
"199 160 CURVE SMOOTH",
"199 320 LINE",
"245 391 LINE",
"265 375 OFFCURVE",
"276 351 OFFCURVE",
"279 319 CURVE",
"309 319 LINE",
"318 353 OFFCURVE",
"338 386 OFFCURVE",
"357 395 CURVE",
"357 433 LINE",
"330 448 OFFCURVE",
"311 474 OFFCURVE",
"300 509 CURVE",
"271 509 LINE",
"267 493 OFFCURVE",
"262 480 OFFCURVE",
"258 471 CURVE SMOOTH",
"254 462 OFFCURVE",
"234 430 OFFCURVE",
"199 377 CURVE",
"199 387 LINE SMOOTH",
"199 428 OFFCURVE",
"183 457 OFFCURVE",
"150 473 CURVE SMOOTH",
"144 476 OFFCURVE",
"141 479 OFFCURVE",
"141 481 CURVE SMOOTH",
"141 483 OFFCURVE",
"143 486 OFFCURVE",
"147 490 CURVE",
"123 509 LINE",
"21 396 LINE",
"43 376 LINE",
"62 396 LINE",
"75 389 OFFCURVE",
"82 365 OFFCURVE",
"82 324 CURVE SMOOTH",
"82 145 LINE SMOOTH",
"82 116 OFFCURVE",
"74 98 OFFCURVE",
"59 93 CURVE",
"59 63 LINE",
"140 37 OFFCURVE",
"180 19 OFFCURVE",
"180 9 CURVE SMOOTH",
"180 5 OFFCURVE",
"176 0 OFFCURVE",
"169 -7 CURVE",
"195 -23 LINE"
);
}
);
width = 372;
}
);
note = u1D597;
unicode = 1D597;
script = "Black Letter";
category = Letter;
subCategory = Lowercase;
},
{
glyphname = u1D598;
production = u1D598;
lastChange = "2019-05-10 14:47:10 +0000";
layers = (
{
layerId = "9166331D-2337-4AD9-B82D-8EEBFFA66093";
paths = (
{
closed = 1;
nodes = (
"205 -23 LINE",
"211 -16 OFFCURVE",
"219 -9 OFFCURVE",
"229 -2 CURVE SMOOTH",
"238 4 OFFCURVE",
"258 13 OFFCURVE",
"278 22 CURVE SMOOTH",
"310 37 LINE SMOOTH",
"380 70 OFFCURVE",
"420 121 OFFCURVE",
"420 183 CURVE SMOOTH",
"420 235 OFFCURVE",
"385 296 OFFCURVE",
"314 335 CURVE",
"379 414 LINE SMOOTH",
"415 457 OFFCURVE",
"426 488 OFFCURVE",
"426 528 CURVE SMOOTH",
"426 592 OFFCURVE",
"372 638 OFFCURVE",
"312 638 CURVE SMOOTH",
"264 638 OFFCURVE",
"225 608 OFFCURVE",
"207 568 CURVE",
"224 559 OFFCURVE",
"239 548 OFFCURVE",
"252 535 CURVE",
"257 570 OFFCURVE",
"290 603 OFFCURVE",
"322 603 CURVE SMOOTH",
"359 603 OFFCURVE",
"392 571 OFFCURVE",
"392 528 CURVE SMOOTH",
"392 487 OFFCURVE",
"362 455 OFFCURVE",
"322 455 CURVE SMOOTH",
"296 455 OFFCURVE",
"260 471 OFFCURVE",
"219 501 CURVE",
"203 509 LINE",
"174 509 OFFCURVE",
"29 357 OFFCURVE",
"29 326 CURVE SMOOTH",
"29 314 OFFCURVE",
"43 293 OFFCURVE",
"71 263 CURVE SMOOTH",
"99 233 OFFCURVE",
"113 208 OFFCURVE",
"113 188 CURVE SMOOTH",
"113 161 OFFCURVE",
"88 134 OFFCURVE",
"38 105 CURVE",
"38 75 LINE",
"86 47 OFFCURVE",
"121 26 OFFCURVE",
"142 12 CURVE SMOOTH",
"163 -2 OFFCURVE",
"173 -17 OFFCURVE",
"175 -23 CURVE"
);
},
{
closed = 1;
nodes = (
"254 57 OFFCURVE",
"240 63 OFFCURVE",
"223 74 CURVE SMOOTH",
"206 85 OFFCURVE",
"179 105 OFFCURVE",
"139 135 CURVE",
"221 229 LINE SMOOTH",
"229 238 OFFCURVE",
"236 243 OFFCURVE",
"243 243 CURVE SMOOTH",
"272 243 OFFCURVE",
"333 182 OFFCURVE",
"333 135 CURVE SMOOTH",
"333 92 OFFCURVE",
"304 57 OFFCURVE",
"265 57 CURVE SMOOTH"
);
},
{
closed = 1;
nodes = (
"191 275 OFFCURVE",
"178 296 OFFCURVE",
"155 324 CURVE SMOOTH",
"132 352 OFFCURVE",
"120 370 OFFCURVE",
"120 380 CURVE SMOOTH",
"120 395 OFFCURVE",
"135 416 OFFCURVE",
"151 416 CURVE SMOOTH",
"156 416 OFFCURVE",
"162 414 OFFCURVE",
"169 408 CURVE SMOOTH",
"209 376 OFFCURVE",
"248 361 OFFCURVE",
"284 361 CURVE",
"196 261 LINE"
);
}
);
width = 447;
}
);
note = u1D598;
unicode = 1D598;
script = "Black Letter";
category = Letter;
subCategory = Lowercase;
},
{
glyphname = u1D599;
production = u1D599;
lastChange = "2019-05-10 14:47:10 +0000";
layers = (
{
layerId = "9166331D-2337-4AD9-B82D-8EEBFFA66093";
paths = (
{
closed = 1;
nodes = (
"317 99 LINE",
"297 121 LINE",
"278 104 OFFCURVE",
"265 96 OFFCURVE",
"260 96 CURVE SMOOTH",
"256 96 OFFCURVE",
"234 105 OFFCURVE",
"195 123 CURVE",
"195 396 LINE",
"311 396 LINE",
"311 466 LINE",
"195 466 LINE",
"195 525 OFFCURVE",
"198 575 OFFCURVE",
"205 617 CURVE",
"170 617 LINE",
"147 537 OFFCURVE",
"113 483 OFFCURVE",
"31 426 CURVE",
"31 396 LINE",
"78 396 LINE",
"78 134 LINE SMOOTH",
"78 104 OFFCURVE",
"70 87 OFFCURVE",
"55 82 CURVE",
"55 52 LINE",
"83 48 OFFCURVE",
"120 34 OFFCURVE",
"168 9 CURVE",
"155 -7 LINE",
"181 -23 LINE"
);
}
);
width = 321;
}
);
note = u1D599;
unicode = 1D599;
script = "Black Letter";
category = Letter;
subCategory = Lowercase;
},
{
glyphname = u1D59A;
production = u1D59A;
lastChange = "2019-05-10 14:47:10 +0000";
layers = (
{
layerId = "9166331D-2337-4AD9-B82D-8EEBFFA66093";
paths = (
{
closed = 1;
nodes = (
"313 107 LINE",
"313 84 LINE SMOOTH",
"313 38 OFFCURVE",
"332 25 OFFCURVE",
"379 3 CURVE",
"373 -7 LINE",
"399 -23 LINE",
"515 107 LINE",
"493 127 LINE",
"472 106 OFFCURVE",
"458 95 OFFCURVE",
"451 95 CURVE SMOOTH",
"434 95 OFFCURVE",
"430 106 OFFCURVE",
"430 134 CURVE SMOOTH",
"430 366 LINE SMOOTH",
"430 396 OFFCURVE",
"441 413 OFFCURVE",
"463 417 CURVE",
"463 447 LINE",
"434 454 OFFCURVE",
"396 477 OFFCURVE",
"386 509 CURVE",
"356 509 LINE",
"346 477 OFFCURVE",
"309 454 OFFCURVE",
"280 447 CURVE",
"280 417 LINE",
"302 413 OFFCURVE",
"313 398 OFFCURVE",
"313 372 CURVE SMOOTH",
"313 148 LINE",
"273 108 OFFCURVE",
"246 88 OFFCURVE",
"235 88 CURVE SMOOTH",
"207 88 OFFCURVE",
"204 112 OFFCURVE",
"204 140 CURVE SMOOTH",
"204 385 LINE SMOOTH",
"204 427 OFFCURVE",
"188 457 OFFCURVE",
"155 473 CURVE SMOOTH",
"149 476 OFFCURVE",
"146 479 OFFCURVE",
"146 481 CURVE SMOOTH",
"146 483 OFFCURVE",
"148 486 OFFCURVE",
"150 488 CURVE SMOOTH",
"152 490 LINE",
"128 509 LINE",
"22 392 LINE",
"44 372 LINE",
"67 396 LINE",
"80 389 OFFCURVE",
"87 368 OFFCURVE",
"87 334 CURVE SMOOTH",
"87 119 LINE SMOOTH",
"87 87 OFFCURVE",
"75 71 OFFCURVE",
"52 70 CURVE",
"52 40 LINE",
"110 17 LINE SMOOTH",
"130 9 OFFCURVE",
"140 3 OFFCURVE",
"140 0 CURVE",
"135 -10 LINE",
"162 -23 LINE"
);
}
);
width = 537;
}
);
note = u1D59A;
unicode = 1D59A;
script = "Black Letter";
category = Letter;
subCategory = Lowercase;
},
{
glyphname = u1D59B;
production = u1D59B;
lastChange = "2019-05-10 14:47:10 +0000";
layers = (
{
layerId = "9166331D-2337-4AD9-B82D-8EEBFFA66093";
paths = (
{
closed = 1;
nodes = (
"247 -23 LINE",
"334 70 LINE SMOOTH",
"407 148 OFFCURVE",
"441 206 OFFCURVE",
"441 266 CURVE SMOOTH",
"441 294 OFFCURVE",
"438 318 OFFCURVE",
"431 338 CURVE SMOOTH",
"418 378 OFFCURVE",
"394 423 OFFCURVE",
"374 453 CURVE SMOOTH",
"364 468 OFFCURVE",
"359 480 OFFCURVE",
"359 491 CURVE SMOOTH",
"359 509 LINE",
"329 509 LINE",
"189 390 LINE",
"187 402 OFFCURVE",
"177 418 OFFCURVE",
"160 439 CURVE SMOOTH",
"143 460 OFFCURVE",
"134 476 OFFCURVE",
"134 487 CURVE SMOOTH",
"134 495 OFFCURVE",
"139 507 OFFCURVE",
"149 523 CURVE",
"124 539 LINE",
"60 475 OFFCURVE",
"28 435 OFFCURVE",
"28 420 CURVE SMOOTH",
"28 413 OFFCURVE",
"35 400 OFFCURVE",
"50 382 CURVE SMOOTH",
"65 364 OFFCURVE",
"72 345 OFFCURVE",
"72 324 CURVE SMOOTH",
"72 128 LINE SMOOTH",
"72 95 OFFCURVE",
"64 75 OFFCURVE",
"49 70 CURVE",
"49 40 LINE",
"116 22 OFFCURVE",
"160 10 OFFCURVE",
"183 0 CURVE SMOOTH",
"206 -10 OFFCURVE",
"216 -17 OFFCURVE",
"217 -23 CURVE"
);
},
{
closed = 1;
nodes = (
"271 72 OFFCURVE",
"264 73 OFFCURVE",
"257 76 CURVE SMOOTH",
"189 104 LINE",
"189 343 LINE",
"259 402 LINE",
"315 323 OFFCURVE",
"330 270 OFFCURVE",
"330 199 CURVE SMOOTH",
"330 135 OFFCURVE",
"291 72 OFFCURVE",
"275 72 CURVE SMOOTH"
);
}
);
width = 464;
}
);
note = u1D59B;
unicode = 1D59B;
script = "Black Letter";
category = Letter;
subCategory = Lowercase;
},
{
glyphname = u1D59C;
production = u1D59C;
lastChange = "2019-05-10 14:47:10 +0000";
layers = (
{
layerId = "9166331D-2337-4AD9-B82D-8EEBFFA66093";
paths = (
{
closed = 1;
nodes = (
"154 -23 LINE",
"165 9 OFFCURVE",
"201 33 OFFCURVE",
"230 39 CURVE",
"230 69 LINE",
"208 72 OFFCURVE",
"197 87 OFFCURVE",
"197 114 CURVE SMOOTH",
"197 345 LINE",
"248 388 LINE SMOOTH",
"260 398 OFFCURVE",
"271 403 OFFCURVE",
"280 403 CURVE SMOOTH",
"291 403 OFFCURVE",
"302 396 OFFCURVE",
"306 387 CURVE SMOOTH",
"311 375 OFFCURVE",
"314 354 OFFCURVE",
"314 321 CURVE SMOOTH",
"314 125 LINE SMOOTH",
"314 93 OFFCURVE",
"306 74 OFFCURVE",
"291 69 CURVE",
"291 39 LINE",
"396 10 OFFCURVE",
"449 -10 OFFCURVE",
"451 -23 CURVE",
"481 -23 LINE",
"565 68 LINE SMOOTH",
"637 145 OFFCURVE",
"675 199 OFFCURVE",
"675 266 CURVE SMOOTH",
"675 293 OFFCURVE",
"672 316 OFFCURVE",
"666 336 CURVE SMOOTH",
"654 375 OFFCURVE",
"629 423 OFFCURVE",
"610 453 CURVE SMOOTH",
"601 468 OFFCURVE",
"596 480 OFFCURVE",
"596 491 CURVE SMOOTH",
"596 509 LINE",
"566 509 LINE",
"431 390 LINE",
"430 449 OFFCURVE",
"398 470 OFFCURVE",
"377 479 CURVE SMOOTH",
"368 483 OFFCURVE",
"362 489 OFFCURVE",
"362 499 CURVE SMOOTH",
"362 509 LINE",
"332 509 LINE",
"197 389 LINE",
"197 392 LINE SMOOTH",
"197 407 OFFCURVE",
"187 420 OFFCURVE",
"169 440 CURVE SMOOTH",
"151 459 OFFCURVE",
"142 475 OFFCURVE",
"142 487 CURVE SMOOTH",
"142 495 OFFCURVE",
"147 507 OFFCURVE",
"157 523 CURVE",
"132 539 LINE",
"68 475 OFFCURVE",
"36 435 OFFCURVE",
"36 420 CURVE SMOOTH",
"36 413 OFFCURVE",
"43 400 OFFCURVE",
"57 383 CURVE SMOOTH",
"71 365 OFFCURVE",
"80 347 OFFCURVE",
"80 328 CURVE SMOOTH",
"80 114 LINE SMOOTH",
"80 87 OFFCURVE",
"69 72 OFFCURVE",
"47 69 CURVE",
"47 39 LINE",
"76 33 OFFCURVE",
"114 9 OFFCURVE",
"124 -23 CURVE"
);
},
{
closed = 1;
nodes = (
"501 71 OFFCURVE",
"494 73 OFFCURVE",
"487 76 CURVE SMOOTH",
"431 103 LINE",
"431 345 LINE",
"497 401 LINE",
"549 328 OFFCURVE",
"564 277 OFFCURVE",
"564 199 CURVE SMOOTH",
"564 167 OFFCURVE",
"557 137 OFFCURVE",
"543 111 CURVE SMOOTH",
"529 84 OFFCURVE",
"517 71 OFFCURVE",
"509 71 CURVE SMOOTH"
);
}
);
width = 699;
}
);
note = u1D59C;
unicode = 1D59C;
script = "Black Letter";
category = Letter;
subCategory = Lowercase;
},
{
glyphname = u1D59D;
production = u1D59D;
lastChange = "2019-05-10 14:47:10 +0000";
layers = (
{
layerId = "9166331D-2337-4AD9-B82D-8EEBFFA66093";
paths = (
{
closed = 1;
nodes = (
"460 109 LINE",
"437 127 LINE",
"426 113 OFFCURVE",
"417 106 OFFCURVE",
"410 106 CURVE SMOOTH",
"402 106 OFFCURVE",
"392 114 OFFCURVE",
"384 129 CURVE SMOOTH",
"291 304 LINE",
"338 392 LINE",
"348 383 OFFCURVE",
"357 367 OFFCURVE",
"366 342 CURVE",
"396 342 LINE",
"407 374 OFFCURVE",
"427 396 OFFCURVE",
"454 408 CURVE",
"454 438 LINE",
"431 444 OFFCURVE",
"402 474 OFFCURVE",
"393 509 CURVE",
"363 509 LINE",
"269 341 LINE",
"218 436 LINE SMOOTH",
"201 467 OFFCURVE",
"186 483 OFFCURVE",
"175 483 CURVE",
"180 500 LINE",
"154 515 LINE",
"45 387 LINE",
"69 368 LINE",
"98 394 LINE",
"107 389 OFFCURVE",
"118 375 OFFCURVE",
"132 351 CURVE SMOOTH",
"213 212 LINE",
"157 105 LINE",
"146 113 OFFCURVE",
"135 129 OFFCURVE",
"125 154 CURVE",
"95 154 LINE",
"76 122 OFFCURVE",
"56 100 OFFCURVE",
"34 89 CURVE",
"34 59 LINE",
"56 47 OFFCURVE",
"94 13 OFFCURVE",
"104 -12 CURVE",
"134 -12 LINE",
"234 175 LINE",
"292 69 LINE SMOOTH",
"311 35 OFFCURVE",
"328 18 OFFCURVE",
"341 16 CURVE",
"325 -8 LINE",
"352 -23 LINE"
);
}
);
width = 491;
}
);
note = u1D59D;
unicode = 1D59D;
script = "Black Letter";
category = Letter;
subCategory = Lowercase;
},
{
glyphname = u1D59E;
production = u1D59E;
lastChange = "2019-05-10 14:47:10 +0000";
layers = (
{
layerId = "9166331D-2337-4AD9-B82D-8EEBFFA66093";
paths = (
{
closed = 1;
nodes = (
"388 -32 OFFCURVE",
"448 98 OFFCURVE",
"448 237 CURVE SMOOTH",
"448 266 OFFCURVE",
"445 292 OFFCURVE",
"438 314 CURVE SMOOTH",
"424 359 OFFCURVE",
"397 408 OFFCURVE",
"372 438 CURVE SMOOTH",
"359 453 OFFCURVE",
"353 462 OFFCURVE",
"353 467 CURVE SMOOTH",
"353 476 OFFCURVE",
"356 482 OFFCURVE",
"364 487 CURVE",
"343 509 LINE",
"196 400 LINE",
"193 409 OFFCURVE",
"184 424 OFFCURVE",
"167 443 CURVE SMOOTH",
"150 461 OFFCURVE",
"142 476 OFFCURVE",
"142 487 CURVE SMOOTH",
"142 495 OFFCURVE",
"147 507 OFFCURVE",
"157 523 CURVE",
"132 539 LINE",
"68 475 OFFCURVE",
"36 435 OFFCURVE",
"36 420 CURVE SMOOTH",
"36 414 OFFCURVE",
"38 408 OFFCURVE",
"42 403 CURVE SMOOTH",
"57 384 LINE SMOOTH",
"66 372 OFFCURVE",
"80 353 OFFCURVE",
"80 329 CURVE SMOOTH",
"80 119 LINE SMOOTH",
"80 98 OFFCURVE",
"71 68 OFFCURVE",
"47 68 CURVE",
"47 38 LINE",
"91 21 OFFCURVE",
"118 1 OFFCURVE",
"127 -23 CURVE",
"157 -23 LINE",
"274 98 LINE",
"253 120 LINE",
"226 97 LINE",
"207 97 OFFCURVE",
"197 110 OFFCURVE",
"197 135 CURVE SMOOTH",
"197 357 LINE",
"252 399 LINE",
"317 320 OFFCURVE",
"340 254 OFFCURVE",
"340 177 CURVE SMOOTH",
"340 45 OFFCURVE",
"307 -48 OFFCURVE",
"208 -183 CURVE",
"232 -200 LINE"
);
}
);
width = 471;
}
);
note = u1D59E;
unicode = 1D59E;
script = "Black Letter";
category = Letter;
subCategory = Lowercase;
},
{
glyphname = u1D59F;
production = u1D59F;
lastChange = "2019-05-10 14:47:10 +0000";
layers = (
{
layerId = "9166331D-2337-4AD9-B82D-8EEBFFA66093";
paths = (
{
closed = 1;
nodes = (
"229 -200 OFFCURVE",
"285 -115 OFFCURVE",
"285 0 CURVE SMOOTH",
"285 64 OFFCURVE",
"267 118 OFFCURVE",
"231 162 CURVE",
"246 170 OFFCURVE",
"261 176 OFFCURVE",
"277 181 CURVE",
"268 210 LINE",
"250 205 OFFCURVE",
"231 197 OFFCURVE",
"211 187 CURVE",
"200 200 OFFCURVE",
"183 214 OFFCURVE",
"161 230 CURVE",
"226 279 OFFCURVE",
"267 335 OFFCURVE",
"267 372 CURVE SMOOTH",
"267 411 OFFCURVE",
"244 438 OFFCURVE",
"203 459 CURVE SMOOTH",
"183 469 OFFCURVE",
"172 479 OFFCURVE",
"172 487 CURVE SMOOTH",
"172 489 OFFCURVE",
"173 493 OFFCURVE",
"176 498 CURVE",
"150 513 LINE",
"31 374 LINE",
"53 354 LINE",
"72 373 OFFCURVE",
"90 382 OFFCURVE",
"108 382 CURVE SMOOTH",
"141 382 OFFCURVE",
"162 355 OFFCURVE",
"162 322 CURVE SMOOTH",
"162 270 OFFCURVE",
"119 234 OFFCURVE",
"49 199 CURVE",
"49 169 LINE",
"81 152 OFFCURVE",
"101 137 OFFCURVE",
"111 125 CURVE",
"48 76 OFFCURVE",
"16 19 OFFCURVE",
"16 -46 CURVE SMOOTH",
"16 -142 OFFCURVE",
"62 -200 OFFCURVE",
"142 -200 CURVE SMOOTH"
);
},
{
closed = 1;
nodes = (
"85 -162 OFFCURVE",
"53 -113 OFFCURVE",
"53 -47 CURVE SMOOTH",
"53 14 OFFCURVE",
"80 63 OFFCURVE",
"132 101 CURVE",
"170 55 OFFCURVE",
"190 4 OFFCURVE",
"190 -53 CURVE SMOOTH",
"190 -120 OFFCURVE",
"165 -162 OFFCURVE",
"128 -162 CURVE SMOOTH"
);
}
);
width = 319;
}
);
note = u1D59F;
unicode = 1D59F;
script = "Black Letter";
category = Letter;
subCategory = Lowercase;
},
{
glyphname = u1D5A0;
lastChange = "2019-05-10 14:47:23 +0000";
layers = (
{
anchors = (
{
name = bottom;
position = "{324, 0}";
},
{
name = top;
position = "{318, 714}";
},
{
name = topright;
position = "{519, 714}";
}
);
layerId = "9166331D-2337-4AD9-B82D-8EEBFFA66093";
paths = (
{
closed = 1;
nodes = (
"91 0 LINE",
"176 221 LINE",
"459 221 LINE",
"545 0 LINE",
"638 0 LINE",
"360 717 LINE",
"279 717 LINE",
"0 0 LINE"
);
},
{
closed = 1;
nodes = (
"287 517 LINE SMOOTH",
"295 540 OFFCURVE",
"308 583 OFFCURVE",
"318 624 CURVE",
"325 599 OFFCURVE",
"346 533 OFFCURVE",
"352 517 CURVE SMOOTH",
"432 301 LINE",
"206 301 LINE"
);
}
);
width = 639;
}
);
unicode = 1D5A0;
script = "";
category = Other;
subCategory = Other;
},
{
glyphname = u1D5A1;
lastChange = "2019-05-10 14:47:23 +0000";
layers = (
{
anchors = (
{
name = bottom;
position = "{315, 0}";
},
{
name = top;
position = "{322, 714}";
},
{
name = topright;
position = "{630, 714}";
}
);
layerId = "9166331D-2337-4AD9-B82D-8EEBFFA66093";
paths = (
{
closed = 1;
nodes = (
"348 0 LINE SMOOTH",
"501 0 OFFCURVE",
"596 73 OFFCURVE",
"596 203 CURVE SMOOTH",
"596 314 OFFCURVE",
"526 359 OFFCURVE",
"436 374 CURVE",
"436 379 LINE",
"524 395 OFFCURVE",
"572 453 OFFCURVE",
"572 537 CURVE SMOOTH",
"572 667 OFFCURVE",
"479 714 OFFCURVE",
"301 714 CURVE SMOOTH",
"97 714 LINE",
"97 0 LINE"
);
},
{
closed = 1;
nodes = (
"187 335 LINE",
"324 335 LINE",
"456 335 OFFCURVE",
"500 285 OFFCURVE",
"500 210 CURVE SMOOTH",
"500 130 OFFCURVE",
"457 76 OFFCURVE",
"331 76 CURVE SMOOTH",
"187 76 LINE"
);
},
{
closed = 1;
nodes = (
"187 637 LINE",
"305 637 LINE SMOOTH",
"426 637 OFFCURVE",
"479 605 OFFCURVE",
"479 527 CURVE SMOOTH",
"479 450 OFFCURVE",
"441 410 OFFCURVE",
"319 410 CURVE SMOOTH",
"187 410 LINE"
);
}
);
width = 650;
}
);
unicode = 1D5A1;
script = "";
category = Other;
subCategory = Other;
},
{
glyphname = u1D5A2;
lastChange = "2019-05-10 14:47:23 +0000";
layers = (
{
anchors = (
{
name = bottom;
position = "{372, 0}";
},
{
name = top;
position = "{380, 714}";
},
{
name = topright;
position = "{612, 714}";
}
);
layerId = "9166331D-2337-4AD9-B82D-8EEBFFA66093";
paths = (
{
closed = 1;
nodes = (
"468 -10 OFFCURVE",
"520 -1 OFFCURVE",
"573 19 CURVE",
"573 97 LINE",
"519 81 OFFCURVE",
"464 69 OFFCURVE",
"402 69 CURVE SMOOTH",
"238 69 OFFCURVE",
"156 180 OFFCURVE",
"156 357 CURVE SMOOTH",
"156 536 OFFCURVE",
"250 645 OFFCURVE",
"403 645 CURVE SMOOTH",
"467 645 OFFCURVE",
"521 626 OFFCURVE",
"565 606 CURVE",
"601 682 LINE",
"547 709 OFFCURVE",
"477 724 OFFCURVE",
"404 724 CURVE SMOOTH",
"183 724 OFFCURVE",
"61 574 OFFCURVE",
"61 358 CURVE SMOOTH",
"61 133 OFFCURVE",
"170 -10 OFFCURVE",
"389 -10 CURVE SMOOTH"
);
}
);
width = 632;
}
);
unicode = 1D5A2;
script = "";
category = Other;
subCategory = Other;
},
{
glyphname = u1D5A3;
lastChange = "2019-05-10 14:47:23 +0000";
layers = (
{
anchors = (
{
name = bottom;
position = "{342, 0}";
},
{
name = center;
position = "{365, 357}";
},
{
name = top;
position = "{361, 714}";
},
{
name = topright;
position = "{710, 714}";
}
);
layerId = "9166331D-2337-4AD9-B82D-8EEBFFA66093";
paths = (
{
closed = 1;
nodes = (
"296 0 LINE SMOOTH",
"531 0 OFFCURVE",
"669 123 OFFCURVE",
"669 364 CURVE SMOOTH",
"669 593 OFFCURVE",
"532 714 OFFCURVE",
"317 714 CURVE SMOOTH",
"97 714 LINE",
"97 0 LINE"
);
},
{
closed = 1;
nodes = (
"187 637 LINE",
"304 637 LINE SMOOTH",
"476 637 OFFCURVE",
"574 551 OFFCURVE",
"574 361 CURVE SMOOTH",
"574 173 OFFCURVE",
"477 77 OFFCURVE",
"284 77 CURVE SMOOTH",
"187 77 LINE"
);
}
);
width = 730;
}
);
unicode = 1D5A3;
script = "";
category = Other;
subCategory = Other;
},
{
glyphname = u1D5A4;
lastChange = "2019-05-10 14:47:23 +0000";
layers = (
{
anchors = (
{
name = bottom;
position = "{300, 0}";
},
{
name = top;
position = "{305, 714}";
},
{
name = topright;
position = "{536, 714}";
}
);
layerId = "9166331D-2337-4AD9-B82D-8EEBFFA66093";
paths = (
{
closed = 1;
nodes = (
"496 0 LINE",
"496 79 LINE",
"187 79 LINE",
"187 334 LINE",
"478 334 LINE",
"478 412 LINE",
"187 412 LINE",
"187 635 LINE",
"496 635 LINE",
"496 714 LINE",
"97 714 LINE",
"97 0 LINE"
);
}
);
width = 556;
}
);
unicode = 1D5A4;
script = "";
category = Other;
subCategory = Other;
},
{
glyphname = u1D5A5;
lastChange = "2019-05-10 14:47:23 +0000";
layers = (
{
anchors = (
{
name = bottom;
position = "{260, 0}";
},
{
name = top;
position = "{298, 714}";
},
{
name = topright;
position = "{499, 714}";
}
);
layerId = "9166331D-2337-4AD9-B82D-8EEBFFA66093";
paths = (
{
closed = 1;
nodes = (
"187 0 LINE",
"187 303 LINE",
"477 303 LINE",
"477 382 LINE",
"187 382 LINE",
"187 635 LINE",
"496 635 LINE",
"496 714 LINE",
"97 714 LINE",
"97 0 LINE"
);
}
);
width = 519;
}
);
unicode = 1D5A5;
script = "";
category = Other;
subCategory = Other;
},
{
glyphname = u1D5A6;
lastChange = "2019-05-10 14:47:23 +0000";
layers = (
{
anchors = (
{
name = bottom;
position = "{402, 0}";
},
{
name = top;
position = "{405, 714}";
},
{
name = topright;
position = "{708, 714}";
}
);
layerId = "9166331D-2337-4AD9-B82D-8EEBFFA66093";
paths = (
{
closed = 1;
nodes = (
"503 -10 OFFCURVE",
"577 2 OFFCURVE",
"654 27 CURVE",
"654 377 LINE",
"407 377 LINE",
"407 297 LINE",
"564 297 LINE",
"564 85 LINE",
"528 76 OFFCURVE",
"487 68 OFFCURVE",
"424 68 CURVE SMOOTH",
"232 68 OFFCURVE",
"155 186 OFFCURVE",
"155 357 CURVE SMOOTH",
"155 535 OFFCURVE",
"255 645 OFFCURVE",
"426 645 CURVE SMOOTH",
"494 645 OFFCURVE",
"559 626 OFFCURVE",
"610 604 CURVE",
"644 682 LINE",
"583 708 OFFCURVE",
"511 724 OFFCURVE",
"431 724 CURVE SMOOTH",
"197 724 OFFCURVE",
"61 580 OFFCURVE",
"61 357 CURVE SMOOTH",
"61 131 OFFCURVE",
"181 -10 OFFCURVE",
"403 -10 CURVE SMOOTH"
);
}
);
width = 728;
}
);
unicode = 1D5A6;
script = "";
category = Other;
subCategory = Other;
},
{
glyphname = u1D5A7;
lastChange = "2019-05-10 14:47:23 +0000";
layers = (
{
anchors = (
{
name = bottom;
position = "{368, 0}";
},
{
name = center;
position = "{371, 357}";
},
{
name = top;
position = "{371, 714}";
},
{
name = topright;
position = "{721, 714}";
}
);
layerId = "9166331D-2337-4AD9-B82D-8EEBFFA66093";
paths = (
{
closed = 1;
nodes = (
"187 0 LINE",
"187 333 LINE",
"553 333 LINE",
"553 0 LINE",
"643 0 LINE",
"643 714 LINE",
"553 714 LINE",
"553 412 LINE",
"187 412 LINE",
"187 714 LINE",
"97 714 LINE",
"97 0 LINE"
);
}
);
width = 741;
}
);
unicode = 1D5A7;
script = "";
category = Other;
subCategory = Other;
},
{
glyphname = u1D5A8;
lastChange = "2019-05-10 14:47:23 +0000";
layers = (
{
anchors = (
{
name = bottom;
position = "{170, 0}";
},
{
name = top;
position = "{170, 714}";
},
{
name = topright;
position = "{319, 714}";
}
);
layerId = "9166331D-2337-4AD9-B82D-8EEBFFA66093";
paths = (
{
closed = 1;
nodes = (
"298 0 LINE",
"298 52 LINE",
"214 71 LINE",
"214 642 LINE",
"298 662 LINE",
"298 714 LINE",
"40 714 LINE",
"40 662 LINE",
"124 642 LINE",
"124 71 LINE",
"40 52 LINE",
"40 0 LINE"
);
}
);
width = 339;
}
);
unicode = 1D5A8;
script = "";
category = Other;
subCategory = Other;
},
{
glyphname = u1D5A9;
lastChange = "2019-05-10 14:47:23 +0000";
layers = (
{
anchors = (
{
name = bottom;
position = "{-4, -170}";
},
{
name = top;
position = "{137, 714}";
},
{
name = topright;
position = "{253, 714}";
}
);
layerId = "9166331D-2337-4AD9-B82D-8EEBFFA66093";
paths = (
{
closed = 1;
nodes = (
"108 -190 OFFCURVE",
"182 -127 OFFCURVE",
"182 11 CURVE SMOOTH",
"182 714 LINE",
"92 714 LINE",
"92 4 LINE SMOOTH",
"92 -87 OFFCURVE",
"44 -111 OFFCURVE",
"-6 -111 CURVE SMOOTH",
"-33 -111 OFFCURVE",
"-57 -107 OFFCURVE",
"-78 -101 CURVE",
"-78 -177 LINE",
"-60 -185 OFFCURVE",
"-36 -190 OFFCURVE",
"-4 -190 CURVE SMOOTH"
);
}
);
width = 273;
}
);
unicode = 1D5A9;
script = "";
category = Other;
subCategory = Other;
},
{
glyphname = u1D5AA;
lastChange = "2019-05-10 14:47:23 +0000";
layers = (
{
anchors = (
{
name = bottom;
position = "{330, 0}";
},
{
name = top;
position = "{340, 714}";
},
{
name = topright;
position = "{599, 714}";
}
);
layerId = "9166331D-2337-4AD9-B82D-8EEBFFA66093";
paths = (
{
closed = 1;
nodes = (
"187 0 LINE",
"187 277 LINE",
"260 341 LINE",
"513 0 LINE",
"619 0 LINE",
"325 403 LINE",
"608 714 LINE",
"503 714 LINE",
"310 498 LINE SMOOTH",
"269 452 OFFCURVE",
"227 407 OFFCURVE",
"187 362 CURVE",
"187 714 LINE",
"97 714 LINE",
"97 0 LINE"
);
}
);
width = 619;
}
);
unicode = 1D5AA;
script = "";
category = Other;
subCategory = Other;
},
{
glyphname = u1D5AB;
lastChange = "2019-05-10 14:47:23 +0000";
layers = (
{
anchors = (
{
name = bottom;
position = "{300, 0}";
},
{
name = center;
position = "{262, 357}";
},
{
name = top;
position = "{140, 714}";
},
{
name = topright;
position = "{364, 714}";
}
);
layerId = "9166331D-2337-4AD9-B82D-8EEBFFA66093";
paths = (
{
closed = 1;
nodes = (
"499 0 LINE",
"499 80 LINE",
"187 80 LINE",
"187 714 LINE",
"97 714 LINE",
"97 0 LINE"
);
}
);
width = 524;
}
);
unicode = 1D5AB;
script = "";
category = Other;
subCategory = Other;
},
{
glyphname = u1D5AC;
lastChange = "2019-05-10 14:47:23 +0000";
layers = (
{
anchors = (
{
name = bottom;
position = "{448, 0}";
},
{
name = top;
position = "{454, 714}";
},
{
name = topright;
position = "{887, 714}";
}
);
layerId = "9166331D-2337-4AD9-B82D-8EEBFFA66093";
paths = (
{
closed = 1;
nodes = (
"180 0 LINE",
"180 433 LINE SMOOTH",
"180 509 OFFCURVE",
"177 585 OFFCURVE",
"173 626 CURVE",
"177 626 LINE",
"412 0 LINE",
"486 0 LINE",
"724 625 LINE",
"728 625 LINE",
"725 582 OFFCURVE",
"721 508 OFFCURVE",
"721 439 CURVE SMOOTH",
"721 0 LINE",
"810 0 LINE",
"810 714 LINE",
"678 714 LINE",
"454 129 LINE",
"450 129 LINE",
"230 714 LINE",
"97 714 LINE",
"97 0 LINE"
);
}
);
width = 907;
}
);
unicode = 1D5AC;
script = "";
category = Other;
subCategory = Other;
},
{
glyphname = u1D5AD;
lastChange = "2019-05-10 14:47:23 +0000";
layers = (
{
anchors = (
{
name = bottom;
position = "{380, 0}";
},
{
name = top;
position = "{380, 714}";
},
{
name = topright;
position = "{740, 714}";
}
);
layerId = "9166331D-2337-4AD9-B82D-8EEBFFA66093";
paths = (
{
closed = 1;
nodes = (
"180 0 LINE",
"180 399 LINE SMOOTH",
"180 472 OFFCURVE",
"175 546 OFFCURVE",
"172 593 CURVE",
"176 593 LINE",
"558 0 LINE",
"663 0 LINE",
"663 714 LINE",
"579 714 LINE",
"579 311 LINE SMOOTH",
"579 246 OFFCURVE",
"584 155 OFFCURVE",
"586 123 CURVE",
"582 123 LINE",
"201 714 LINE",
"97 714 LINE",
"97 0 LINE"
);
}
);
width = 760;
}
);
unicode = 1D5AD;
script = "";
category = Other;
subCategory = Other;
},
{
glyphname = u1D5AE;
lastChange = "2019-05-10 14:47:23 +0000";
layers = (
{
anchors = (
{
name = bottom;
position = "{392, 0}";
},
{
name = center;
position = "{391, 357}";
},
{
name = top;
position = "{391, 714}";
},
{
name = topright;
position = "{761, 714}";
}
);
layerId = "9166331D-2337-4AD9-B82D-8EEBFFA66093";
paths = (
{
closed = 1;
nodes = (
"606 -10 OFFCURVE",
"720 137 OFFCURVE",
"720 358 CURVE SMOOTH",
"720 580 OFFCURVE",
"606 725 OFFCURVE",
"392 725 CURVE SMOOTH",
"168 725 OFFCURVE",
"61 578 OFFCURVE",
"61 359 CURVE SMOOTH",
"61 138 OFFCURVE",
"168 -10 OFFCURVE",
"391 -10 CURVE SMOOTH"
);
},
{
closed = 1;
nodes = (
"230 68 OFFCURVE",
"156 178 OFFCURVE",
"156 358 CURVE SMOOTH",
"156 538 OFFCURVE",
"230 646 OFFCURVE",
"392 646 CURVE SMOOTH",
"553 646 OFFCURVE",
"625 538 OFFCURVE",
"625 358 CURVE SMOOTH",
"625 178 OFFCURVE",
"553 68 OFFCURVE",
"391 68 CURVE SMOOTH"
);
}
);
width = 781;
}
);
unicode = 1D5AE;
script = "";
category = Other;
subCategory = Other;
},
{
glyphname = u1D5AF;
lastChange = "2019-05-10 14:47:23 +0000";
layers = (
{
anchors = (
{
name = bottom;
position = "{303, 0}";
},
{
name = top;
position = "{317, 714}";
},
{
name = topright;
position = "{585, 714}";
}
);
layerId = "9166331D-2337-4AD9-B82D-8EEBFFA66093";
paths = (
{
closed = 1;
nodes = (
"187 0 LINE",
"187 278 LINE",
"269 278 LINE SMOOTH",
"483 278 OFFCURVE",
"554 386 OFFCURVE",
"554 504 CURVE SMOOTH",
"554 637 OFFCURVE",
"473 714 OFFCURVE",
"286 714 CURVE SMOOTH",
"97 714 LINE",
"97 0 LINE"
);
},
{
closed = 1;
nodes = (
"187 637 LINE",
"278 637 LINE SMOOTH",
"404 637 OFFCURVE",
"461 592 OFFCURVE",
"461 500 CURVE SMOOTH",
"461 395 OFFCURVE",
"395 355 OFFCURVE",
"259 355 CURVE SMOOTH",
"187 355 LINE"
);
}
);
width = 605;
}
);
unicode = 1D5AF;
script = "";
category = Other;
subCategory = Other;
},
{
glyphname = u1D5B0;
lastChange = "2019-05-10 14:47:23 +0000";
layers = (
{
anchors = (
{
name = bottom;
position = "{391, -170}";
},
{
name = top;
position = "{391, 714}";
},
{
name = topright;
position = "{761, 714}";
}
);
layerId = "9166331D-2337-4AD9-B82D-8EEBFFA66093";
paths = (
{
closed = 1;
nodes = (
"683 -170 LINE",
"512 8 LINE",
"649 54 OFFCURVE",
"720 183 OFFCURVE",
"720 358 CURVE SMOOTH",
"720 580 OFFCURVE",
"606 725 OFFCURVE",
"392 725 CURVE SMOOTH",
"168 725 OFFCURVE",
"61 578 OFFCURVE",
"61 359 CURVE SMOOTH",
"61 138 OFFCURVE",
"168 -10 OFFCURVE",
"391 -10 CURVE SMOOTH",
"399 -10 OFFCURVE",
"400 -10 OFFCURVE",
"416 -9 CURVE",
"554 -170 LINE"
);
},
{
closed = 1;
nodes = (
"230 68 OFFCURVE",
"156 178 OFFCURVE",
"156 358 CURVE SMOOTH",
"156 538 OFFCURVE",
"230 646 OFFCURVE",
"392 646 CURVE SMOOTH",
"553 646 OFFCURVE",
"625 538 OFFCURVE",
"625 358 CURVE SMOOTH",
"625 178 OFFCURVE",
"553 68 OFFCURVE",
"391 68 CURVE SMOOTH"
);
}
);
width = 781;
}
);
unicode = 1D5B0;
script = "";
category = Other;
subCategory = Other;
},
{
glyphname = u1D5B1;
lastChange = "2019-05-10 14:47:23 +0000";
layers = (
{
anchors = (
{
name = bottom;
position = "{328, 0}";
},
{
name = top;
position = "{311, 714}";
},
{
name = topright;
position = "{602, 714}";
}
);
layerId = "9166331D-2337-4AD9-B82D-8EEBFFA66093";
paths = (
{
closed = 1;
nodes = (
"187 0 LINE",
"187 295 LINE",
"329 295 LINE",
"502 0 LINE",
"607 0 LINE",
"411 320 LINE",
"483 345 OFFCURVE",
"554 397 OFFCURVE",
"554 511 CURVE SMOOTH",
"554 647 OFFCURVE",
"471 714 OFFCURVE",
"294 714 CURVE SMOOTH",
"97 714 LINE",
"97 0 LINE"
);
},
{
closed = 1;
nodes = (
"187 636 LINE",
"289 636 LINE SMOOTH",
"406 636 OFFCURVE",
"461 600 OFFCURVE",
"461 507 CURVE SMOOTH",
"461 417 OFFCURVE",
"410 371 OFFCURVE",
"294 371 CURVE SMOOTH",
"187 371 LINE"
);
}
);
width = 622;
}
);
unicode = 1D5B1;
script = "";
category = Other;
subCategory = Other;
},
{
glyphname = u1D5B2;
lastChange = "2019-05-10 14:47:23 +0000";
layers = (
{
anchors = (
{
name = bottom;
position = "{257, 0}";
},
{
name = top;
position = "{285, 714}";
},
{
name = topright;
position = "{529, 714}";
}
);
layerId = "9166331D-2337-4AD9-B82D-8EEBFFA66093";
paths = (
{
closed = 1;
nodes = (
"403 -10 OFFCURVE",
"502 64 OFFCURVE",
"502 191 CURVE SMOOTH",
"502 303 OFFCURVE",
"433 350 OFFCURVE",
"307 397 CURVE SMOOTH",
"191 440 OFFCURVE",
"151 469 OFFCURVE",
"151 541 CURVE SMOOTH",
"151 603 OFFCURVE",
"197 645 OFFCURVE",
"286 645 CURVE SMOOTH",
"348 645 OFFCURVE",
"407 628 OFFCURVE",
"457 607 CURVE",
"485 684 LINE",
"431 708 OFFCURVE",
"366 724 OFFCURVE",
"288 724 CURVE SMOOTH",
"153 724 OFFCURVE",
"60 655 OFFCURVE",
"60 542 CURVE SMOOTH",
"60 431 OFFCURVE",
"122 374 OFFCURVE",
"244 330 CURVE SMOOTH",
"373 283 OFFCURVE",
"412 253 OFFCURVE",
"412 183 CURVE SMOOTH",
"412 112 OFFCURVE",
"357 68 OFFCURVE",
"251 68 CURVE SMOOTH",
"175 68 OFFCURVE",
"99 89 OFFCURVE",
"51 110 CURVE",
"51 24 LINE",
"96 2 OFFCURVE",
"167 -10 OFFCURVE",
"247 -10 CURVE SMOOTH"
);
}
);
width = 549;
}
);
unicode = 1D5B2;
script = "";
category = Other;
subCategory = Other;
},
{
glyphname = u1D5B3;
lastChange = "2019-05-10 14:47:23 +0000";
layers = (
{
anchors = (
{
name = bottom;
position = "{278, 0}";
},
{
name = center;
position = "{278, 357}";
},
{
name = top;
position = "{278, 714}";
},
{
name = topright;
position = "{536, 714}";
}
);
layerId = "9166331D-2337-4AD9-B82D-8EEBFFA66093";
paths = (
{
closed = 1;
nodes = (
"323 0 LINE",
"323 635 LINE",
"545 635 LINE",
"545 714 LINE",
"10 714 LINE",
"10 635 LINE",
"233 635 LINE",
"233 0 LINE"
);
}
);
width = 556;
}
);
unicode = 1D5B3;
script = "";
category = Other;
subCategory = Other;
},
{
glyphname = u1D5B4;
lastChange = "2019-05-10 14:47:23 +0000";
layers = (
{
anchors = (
{
name = bottom;
position = "{364, 0}";
},
{
name = top;
position = "{366, 714}";
},
{
name = topright;
position = "{711, 714}";
}
);
layerId = "9166331D-2337-4AD9-B82D-8EEBFFA66093";
paths = (
{
closed = 1;
nodes = (
"551 -10 OFFCURVE",
"640 104 OFFCURVE",
"640 252 CURVE SMOOTH",
"640 714 LINE",
"551 714 LINE",
"551 252 LINE SMOOTH",
"551 144 OFFCURVE",
"496 68 OFFCURVE",
"367 68 CURVE SMOOTH",
"242 68 OFFCURVE",
"180 135 OFFCURVE",
"180 251 CURVE SMOOTH",
"180 714 LINE",
"90 714 LINE",
"90 254 LINE SMOOTH",
"90 95 OFFCURVE",
"184 -10 OFFCURVE",
"362 -10 CURVE SMOOTH"
);
}
);
width = 731;
}
);
unicode = 1D5B4;
script = "";
category = Other;
subCategory = Other;
},
{
glyphname = u1D5B5;
lastChange = "2019-05-10 14:47:23 +0000";
layers = (
{
anchors = (
{
name = bottom;
position = "{299, 0}";
},
{
name = top;
position = "{303, 714}";
},
{
name = topright;
position = "{580, 714}";
}
);
layerId = "9166331D-2337-4AD9-B82D-8EEBFFA66093";
paths = (
{
closed = 1;
nodes = (
"345 0 LINE",
"600 714 LINE",
"505 714 LINE",
"345 258 LINE SMOOTH",
"324 198 OFFCURVE",
"309 147 OFFCURVE",
"300 100 CURVE",
"290 147 OFFCURVE",
"276 197 OFFCURVE",
"255 256 CURVE SMOOTH",
"94 714 LINE",
"0 714 LINE",
"255 0 LINE"
);
}
);
width = 600;
}
);
unicode = 1D5B5;
script = "";
category = Other;
subCategory = Other;
},
{
glyphname = u1D5B6;
lastChange = "2019-05-10 14:47:23 +0000";
layers = (
{
anchors = (
{
name = bottom;
position = "{458, 0}";
},
{
name = top;
position = "{465, 714}";
},
{
name = topright;
position = "{910, 714}";
}
);
layerId = "9166331D-2337-4AD9-B82D-8EEBFFA66093";
paths = (
{
closed = 1;
nodes = (
"292 0 LINE",
"427 465 LINE SMOOTH",
"445 526 OFFCURVE",
"459 591 OFFCURVE",
"461 609 CURVE",
"464 591 OFFCURVE",
"480 525 OFFCURVE",
"497 468 CURVE SMOOTH",
"636 0 LINE",
"727 0 LINE",
"917 714 LINE",
"823 714 LINE",
"713 279 LINE SMOOTH",
"697 216 OFFCURVE",
"684 157 OFFCURVE",
"678 108 CURVE",
"671 154 OFFCURVE",
"658 218 OFFCURVE",
"639 280 CURVE SMOOTH",
"508 714 LINE",
"415 714 LINE",
"289 283 LINE SMOOTH",
"272 224 OFFCURVE",
"258 160 OFFCURVE",
"251 108 CURVE",
"244 158 OFFCURVE",
"233 216 OFFCURVE",
"217 278 CURVE SMOOTH",
"106 714 LINE",
"12 714 LINE",
"201 0 LINE"
);
}
);
width = 930;
}
);
unicode = 1D5B6;
script = "";
category = Other;
subCategory = Other;
},
{
glyphname = u1D5B7;
lastChange = "2019-05-10 14:47:23 +0000";
layers = (
{
anchors = (
{
name = bottom;
position = "{293, 0}";
},
{
name = top;
position = "{292, 714}";
},
{
name = topright;
position = "{566, 714}";
}
);
layerId = "9166331D-2337-4AD9-B82D-8EEBFFA66093";
paths = (
{
closed = 1;
nodes = (
"99 0 LINE",
"291 310 LINE",
"480 0 LINE",
"582 0 LINE",
"344 374 LINE",
"565 714 LINE",
"470 714 LINE",
"294 434 LINE",
"119 714 LINE",
"19 714 LINE",
"241 372 LINE",
"4 0 LINE"
);
}
);
width = 586;
}
);
unicode = 1D5B7;
script = "";
category = Other;
subCategory = Other;
},
{
glyphname = u1D5B8;
lastChange = "2019-05-10 14:47:23 +0000";
layers = (
{
anchors = (
{
name = bottom;
position = "{283, 0}";
},
{
name = top;
position = "{283, 714}";
},
{
name = topright;
position = "{546, 714}";
}
);
layerId = "9166331D-2337-4AD9-B82D-8EEBFFA66093";
paths = (
{
closed = 1;
nodes = (
"328 0 LINE",
"328 277 LINE",
"566 714 LINE",
"469 714 LINE",
"283 363 LINE",
"98 714 LINE",
"0 714 LINE",
"238 273 LINE",
"238 0 LINE"
);
}
);
width = 566;
}
);
unicode = 1D5B8;
script = "";
category = Other;
subCategory = Other;
},
{
glyphname = u1D5B9;
lastChange = "2019-05-10 14:47:23 +0000";
layers = (
{
anchors = (
{
name = bottom;
position = "{297, 0}";
},
{
name = top;
position = "{290, 714}";
},
{
name = topright;
position = "{552, 714}";
}
);
layerId = "9166331D-2337-4AD9-B82D-8EEBFFA66093";
paths = (
{
closed = 1;
nodes = (
"533 0 LINE",
"533 80 LINE",
"147 80 LINE",
"523 646 LINE",
"523 714 LINE",
"50 714 LINE",
"50 634 LINE",
"414 634 LINE",
"38 68 LINE",
"38 0 LINE"
);
}
);
width = 572;
}
);
unicode = 1D5B9;
script = "";
category = Other;
subCategory = Other;
},
{
glyphname = u1D5BA;
lastChange = "2019-05-10 14:47:23 +0000";
layers = (
{
anchors = (
{
name = bottom;
position = "{281, 0}";
},
{
name = top;
position = "{281, 536}";
},
{
name = topright;
position = "{511, 536}";
}
);
layerId = "9166331D-2337-4AD9-B82D-8EEBFFA66093";
paths = (
{
closed = 1;
nodes = (
"305 -10 OFFCURVE",
"348 17 OFFCURVE",
"395 76 CURVE",
"399 76 LINE",
"416 0 LINE",
"480 0 LINE",
"480 365 LINE SMOOTH",
"480 490 OFFCURVE",
"418 545 OFFCURVE",
"288 545 CURVE SMOOTH",
"218 545 OFFCURVE",
"152 524 OFFCURVE",
"105 499 CURVE",
"132 433 LINE",
"176 454 OFFCURVE",
"227 474 OFFCURVE",
"283 474 CURVE SMOOTH",
"353 474 OFFCURVE",
"394 444 OFFCURVE",
"394 355 CURVE SMOOTH",
"394 323 LINE",
"303 320 LINE SMOOTH",
"128 315 OFFCURVE",
"46 256 OFFCURVE",
"46 149 CURVE SMOOTH",
"46 40 OFFCURVE",
"118 -10 OFFCURVE",
"215 -10 CURVE SMOOTH"
);
},
{
closed = 1;
nodes = (
"177 61 OFFCURVE",
"137 88 OFFCURVE",
"137 148 CURVE SMOOTH",
"137 216 OFFCURVE",
"180 254 OFFCURVE",
"314 259 CURVE SMOOTH",
"393 262 LINE",
"393 214 LINE SMOOTH",
"393 110 OFFCURVE",
"325 61 OFFCURVE",
"235 61 CURVE SMOOTH"
);
}
);
width = 561;
}
);
unicode = 1D5BA;
script = "";
category = Other;
subCategory = Other;
},
{
glyphname = u1D5BB;
lastChange = "2019-05-10 14:47:23 +0000";
layers = (
{
anchors = (
{
name = bottom;
position = "{322, 0}";
},
{
name = top;
position = "{338, 760}";
},
{
name = topright;
position = "{515, 760}";
}
);
layerId = "9166331D-2337-4AD9-B82D-8EEBFFA66093";
paths = (
{
closed = 1;
nodes = (
"471 -10 OFFCURVE",
"560 84 OFFCURVE",
"560 268 CURVE SMOOTH",
"560 452 OFFCURVE",
"472 545 OFFCURVE",
"339 545 CURVE SMOOTH",
"255 545 OFFCURVE",
"203 510 OFFCURVE",
"173 465 CURVE",
"168 465 LINE",
"170 487 OFFCURVE",
"173 530 OFFCURVE",
"173 575 CURVE SMOOTH",
"173 760 LINE",
"85 760 LINE",
"85 0 LINE",
"148 0 LINE",
"166 68 LINE",
"173 68 LINE",
"203 25 OFFCURVE",
"255 -10 OFFCURVE",
"339 -10 CURVE SMOOTH"
);
},
{
closed = 1;
nodes = (
"208 63 OFFCURVE",
"173 135 OFFCURVE",
"173 267 CURVE SMOOTH",
"173 271 LINE SMOOTH",
"173 408 OFFCURVE",
"210 472 OFFCURVE",
"324 472 CURVE SMOOTH",
"422 472 OFFCURVE",
"469 404 OFFCURVE",
"469 269 CURVE SMOOTH",
"469 136 OFFCURVE",
"422 63 OFFCURVE",
"326 63 CURVE SMOOTH"
);
}
);
width = 615;
}
);
unicode = 1D5BB;
script = "";
category = Other;
subCategory = Other;
},
{
glyphname = u1D5BC;
lastChange = "2019-05-10 14:47:23 +0000";
layers = (
{
anchors = (
{
name = bottom;
position = "{281, 0}";
},
{
name = top;
position = "{284, 536}";
},
{
name = topright;
position = "{460, 536}";
}
);
layerId = "9166331D-2337-4AD9-B82D-8EEBFFA66093";
paths = (
{
closed = 1;
nodes = (
"361 -10 OFFCURVE",
"402 0 OFFCURVE",
"438 19 CURVE",
"438 97 LINE",
"401 80 OFFCURVE",
"357 66 OFFCURVE",
"299 66 CURVE SMOOTH",
"198 66 OFFCURVE",
"146 137 OFFCURVE",
"146 266 CURVE SMOOTH",
"146 400 OFFCURVE",
"197 469 OFFCURVE",
"304 469 CURVE SMOOTH",
"341 469 OFFCURVE",
"388 456 OFFCURVE",
"420 444 CURVE",
"447 517 LINE",
"415 533 OFFCURVE",
"360 546 OFFCURVE",
"306 546 CURVE SMOOTH",
"162 546 OFFCURVE",
"55 463 OFFCURVE",
"55 265 CURVE SMOOTH",
"55 75 OFFCURVE",
"157 -10 OFFCURVE",
"300 -10 CURVE SMOOTH"
);
}
);
width = 480;
}
);
unicode = 1D5BC;
script = "";
category = Other;
subCategory = Other;
},
{
glyphname = u1D5BD;
lastChange = "2019-05-10 14:47:23 +0000";
layers = (
{
anchors = (
{
name = bottom;
position = "{292, 0}";
},
{
name = center;
position = "{308, 268}";
},
{
name = top;
position = "{275, 760}";
},
{
name = topright;
position = "{553, 760}";
}
);
layerId = "9166331D-2337-4AD9-B82D-8EEBFFA66093";
paths = (
{
closed = 1;
nodes = (
"359 -10 OFFCURVE",
"410 26 OFFCURVE",
"442 72 CURVE",
"446 72 LINE",
"459 0 LINE",
"530 0 LINE",
"530 760 LINE",
"442 760 LINE",
"442 546 LINE SMOOTH",
"442 526 OFFCURVE",
"446 484 OFFCURVE",
"448 467 CURVE",
"442 467 LINE",
"409 511 OFFCURVE",
"359 546 OFFCURVE",
"276 546 CURVE SMOOTH",
"143 546 OFFCURVE",
"55 451 OFFCURVE",
"55 267 CURVE SMOOTH",
"55 83 OFFCURVE",
"142 -10 OFFCURVE",
"275 -10 CURVE SMOOTH"
);
},
{
closed = 1;
nodes = (
"193 63 OFFCURVE",
"146 137 OFFCURVE",
"146 265 CURVE SMOOTH",
"146 392 OFFCURVE",
"193 473 OFFCURVE",
"288 473 CURVE SMOOTH",
"407 473 OFFCURVE",
"443 399 OFFCURVE",
"443 266 CURVE SMOOTH",
"443 250 LINE SMOOTH",
"443 125 OFFCURVE",
"402 63 OFFCURVE",
"289 63 CURVE SMOOTH"
);
}
);
width = 615;
}
);
unicode = 1D5BD;
script = "";
category = Other;
subCategory = Other;
},
{
glyphname = u1D5BE;
lastChange = "2019-05-10 14:47:23 +0000";
layers = (
{
anchors = (
{
name = bottom;
position = "{301, 0}";
},
{
name = top;
position = "{285, 536}";
},
{
name = topright;
position = "{544, 536}";
}
);
layerId = "9166331D-2337-4AD9-B82D-8EEBFFA66093";
paths = (
{
closed = 1;
nodes = (
"386 -10 OFFCURVE",
"434 1 OFFCURVE",
"489 25 CURVE",
"489 102 LINE",
"433 78 OFFCURVE",
"385 65 OFFCURVE",
"317 65 CURVE SMOOTH",
"210 65 OFFCURVE",
"149 130 OFFCURVE",
"146 251 CURVE",
"513 251 LINE",
"513 304 LINE SMOOTH",
"513 450 OFFCURVE",
"429 546 OFFCURVE",
"292 546 CURVE SMOOTH",
"150 546 OFFCURVE",
"55 440 OFFCURVE",
"55 264 CURVE SMOOTH",
"55 85 OFFCURVE",
"160 -10 OFFCURVE",
"313 -10 CURVE SMOOTH"
);
},
{
closed = 1;
nodes = (
"157 417 OFFCURVE",
"207 474 OFFCURVE",
"291 474 CURVE SMOOTH",
"380 474 OFFCURVE",
"420 412 OFFCURVE",
"421 321 CURVE",
"148 321 LINE"
);
}
);
width = 564;
}
);
unicode = 1D5BE;
script = "";
category = Other;
subCategory = Other;
},
{
glyphname = u1D5BF;
lastChange = "2019-05-10 14:47:23 +0000";
layers = (
{
anchors = (
{
name = bottom;
position = "{153, 0}";
},
{
name = top;
position = "{252, 765}";
},
{
name = topright;
position = "{380, 765}";
}
);
layerId = "9166331D-2337-4AD9-B82D-8EEBFFA66093";
paths = (
{
closed = 1;
nodes = (
"197 0 LINE",
"197 468 LINE",
"332 468 LINE",
"332 536 LINE",
"197 536 LINE",
"197 571 LINE SMOOTH",
"197 655 OFFCURVE",
"225 693 OFFCURVE",
"284 693 CURVE SMOOTH",
"313 693 OFFCURVE",
"342 685 OFFCURVE",
"364 678 CURVE",
"387 747 LINE",
"361 756 OFFCURVE",
"325 765 OFFCURVE",
"283 765 CURVE SMOOTH",
"173 765 OFFCURVE",
"109 708 OFFCURVE",
"109 570 CURVE SMOOTH",
"109 539 LINE",
"15 509 LINE",
"15 468 LINE",
"109 468 LINE",
"109 0 LINE"
);
}
);
width = 344;
}
);
unicode = 1D5BF;
script = "";
category = Other;
subCategory = Other;
},
{
glyphname = u1D5C0;
lastChange = "2019-05-10 14:47:23 +0000";
layers = (
{
anchors = (
{
name = bottom;
position = "{298, -240}";
},
{
name = top;
position = "{297, 536}";
},
{
name = topright;
position = "{555, 536}";
}
);
layerId = "9166331D-2337-4AD9-B82D-8EEBFFA66093";
paths = (
{
closed = 1;
nodes = (
"454 -240 OFFCURVE",
"530 -162 OFFCURVE",
"530 -9 CURVE SMOOTH",
"530 536 LINE",
"460 536 LINE",
"448 465 LINE",
"443 465 LINE",
"403 520 OFFCURVE",
"345 546 OFFCURVE",
"275 546 CURVE SMOOTH",
"137 546 OFFCURVE",
"55 438 OFFCURVE",
"55 267 CURVE SMOOTH",
"55 92 OFFCURVE",
"137 -10 OFFCURVE",
"276 -10 CURVE SMOOTH",
"349 -10 OFFCURVE",
"405 16 OFFCURVE",
"442 71 CURVE",
"446 71 LINE",
"445 59 OFFCURVE",
"443 21 OFFCURVE",
"443 5 CURVE SMOOTH",
"443 -16 LINE",
"443 -110 OFFCURVE",
"387 -167 OFFCURVE",
"295 -167 CURVE SMOOTH",
"218 -167 OFFCURVE",
"148 -152 OFFCURVE",
"97 -125 CURVE",
"97 -206 LINE",
"148 -229 OFFCURVE",
"212 -240 OFFCURVE",
"290 -240 CURVE SMOOTH"
);
},
{
closed = 1;
nodes = (
"195 62 OFFCURVE",
"146 134 OFFCURVE",
"146 266 CURVE SMOOTH",
"146 398 OFFCURVE",
"197 472 OFFCURVE",
"287 472 CURVE SMOOTH",
"395 472 OFFCURVE",
"444 413 OFFCURVE",
"444 267 CURVE SMOOTH",
"444 246 LINE SMOOTH",
"444 117 OFFCURVE",
"397 62 OFFCURVE",
"289 62 CURVE SMOOTH"
);
}
);
width = 615;
}
);
unicode = 1D5C0;
script = "";
category = Other;
subCategory = Other;
},
{
glyphname = u1D5C1;
lastChange = "2019-05-10 14:47:23 +0000";
layers = (
{
anchors = (
{
name = bottom;
position = "{310, 0}";
},
{
name = center;
position = "{309, 268}";
},
{
name = top;
position = "{130, 760}";
},
{
name = topright;
position = "{535, 760}";
}
);
layerId = "9166331D-2337-4AD9-B82D-8EEBFFA66093";
paths = (
{
closed = 1;
nodes = (
"173 0 LINE",
"173 277 LINE SMOOTH",
"173 402 OFFCURVE",
"210 472 OFFCURVE",
"330 472 CURVE SMOOTH",
"412 472 OFFCURVE",
"450 429 OFFCURVE",
"450 343 CURVE SMOOTH",
"450 0 LINE",
"537 0 LINE",
"537 349 LINE SMOOTH",
"537 486 OFFCURVE",
"471 545 OFFCURVE",
"341 545 CURVE SMOOTH",
"272 545 OFFCURVE",
"208 517 OFFCURVE",
"174 462 CURVE",
"168 462 LINE",
"171 483 OFFCURVE",
"173 511 OFFCURVE",
"173 537 CURVE SMOOTH",
"173 760 LINE",
"85 760 LINE",
"85 0 LINE"
);
}
);
width = 618;
}
);
unicode = 1D5C1;
script = "";
category = Other;
subCategory = Other;
},
{
glyphname = u1D5C2;
lastChange = "2019-05-10 14:47:23 +0000";
layers = (
{
anchors = (
{
name = bottom;
position = "{131, 0}";
},
{
name = top;
position = "{129, 737}";
},
{
name = topright;
position = "{238, 737}";
}
);
layerId = "9166331D-2337-4AD9-B82D-8EEBFFA66093";
paths = (
{
closed = 1;
nodes = (
"173 0 LINE",
"173 536 LINE",
"85 536 LINE",
"85 0 LINE"
);
},
{
closed = 1;
nodes = (
"157 625 OFFCURVE",
"181 643 OFFCURVE",
"181 681 CURVE SMOOTH",
"181 720 OFFCURVE",
"157 737 OFFCURVE",
"130 737 CURVE SMOOTH",
"101 737 OFFCURVE",
"78 720 OFFCURVE",
"78 681 CURVE SMOOTH",
"78 643 OFFCURVE",
"101 625 OFFCURVE",
"130 625 CURVE SMOOTH"
);
}
);
width = 258;
}
);
unicode = 1D5C2;
script = "";
category = Other;
subCategory = Other;
},
{
glyphname = u1D5C3;
lastChange = "2019-05-10 14:47:23 +0000";
layers = (
{
anchors = (
{
name = bottom;
position = "{22, -240}";
},
{
name = top;
position = "{129, 737}";
},
{
name = topright;
position = "{238, 737}";
}
);
layerId = "9166331D-2337-4AD9-B82D-8EEBFFA66093";
paths = (
{
closed = 1;
nodes = (
"127 -240 OFFCURVE",
"173 -180 OFFCURVE",
"173 -80 CURVE SMOOTH",
"173 536 LINE",
"85 536 LINE",
"85 -83 LINE SMOOTH",
"85 -148 OFFCURVE",
"54 -167 OFFCURVE",
"11 -167 CURVE SMOOTH",
"-15 -167 OFFCURVE",
"-35 -163 OFFCURVE",
"-55 -157 CURVE",
"-55 -228 LINE",
"-37 -235 OFFCURVE",
"-12 -240 OFFCURVE",
"22 -240 CURVE SMOOTH"
);
},
{
closed = 1;
nodes = (
"157 625 OFFCURVE",
"181 643 OFFCURVE",
"181 681 CURVE SMOOTH",
"181 720 OFFCURVE",
"157 737 OFFCURVE",
"130 737 CURVE SMOOTH",
"101 737 OFFCURVE",
"78 720 OFFCURVE",
"78 681 CURVE SMOOTH",
"78 643 OFFCURVE",
"101 625 OFFCURVE",
"130 625 CURVE SMOOTH"
);
}
);
width = 258;
}
);
unicode = 1D5C3;
script = "";
category = Other;
subCategory = Other;
},
{
glyphname = u1D5C4;
lastChange = "2019-05-10 14:47:23 +0000";
layers = (
{
anchors = (
{
name = bottom;
position = "{267, 0}";
},
{
name = top;
position = "{129, 760}";
},
{
name = topright;
position = "{529, 760}";
}
);
layerId = "9166331D-2337-4AD9-B82D-8EEBFFA66093";
paths = (
{
closed = 1;
nodes = (
"172 0 LINE",
"172 197 LINE",
"233 250 LINE",
"419 0 LINE",
"525 0 LINE",
"293 307 LINE",
"510 536 LINE",
"407 536 LINE",
"236 355 LINE SMOOTH",
"218 335 OFFCURVE",
"184 292 OFFCURVE",
"172 276 CURVE",
"168 276 LINE",
"170 309 OFFCURVE",
"172 342 OFFCURVE",
"172 363 CURVE SMOOTH",
"172 760 LINE",
"85 760 LINE",
"85 0 LINE"
);
}
);
width = 534;
}
);
unicode = 1D5C4;
script = "";
category = Other;
subCategory = Other;
},
{
glyphname = u1D5C5;
lastChange = "2019-05-10 14:47:23 +0000";
layers = (
{
anchors = (
{
name = bottom;
position = "{129, 0}";
},
{
name = center;
position = "{129, 268}";
},
{
name = top;
position = "{129, 760}";
},
{
name = topright;
position = "{202, 760}";
}
);
layerId = "9166331D-2337-4AD9-B82D-8EEBFFA66093";
paths = (
{
closed = 1;
nodes = (
"173 0 LINE",
"173 760 LINE",
"85 760 LINE",
"85 0 LINE"
);
}
);
width = 258;
}
);
unicode = 1D5C5;
script = "";
category = Other;
subCategory = Other;
},
{
glyphname = u1D5C6;
lastChange = "2019-05-10 14:47:23 +0000";
layers = (
{
anchors = (
{
name = bottom;
position = "{471, 0}";
},
{
name = top;
position = "{479, 536}";
},
{
name = topright;
position = "{885, 536}";
}
);
layerId = "9166331D-2337-4AD9-B82D-8EEBFFA66093";
paths = (
{
closed = 1;
nodes = (
"173 0 LINE",
"173 278 LINE SMOOTH",
"173 403 OFFCURVE",
"208 472 OFFCURVE",
"316 472 CURVE SMOOTH",
"391 472 OFFCURVE",
"426 429 OFFCURVE",
"426 345 CURVE SMOOTH",
"426 0 LINE",
"513 0 LINE",
"513 296 LINE SMOOTH",
"513 410 OFFCURVE",
"554 472 OFFCURVE",
"658 472 CURVE SMOOTH",
"732 472 OFFCURVE",
"767 429 OFFCURVE",
"767 345 CURVE SMOOTH",
"767 0 LINE",
"854 0 LINE",
"854 349 LINE SMOOTH",
"854 487 OFFCURVE",
"794 546 OFFCURVE",
"673 546 CURVE SMOOTH",
"603 546 OFFCURVE",
"537 517 OFFCURVE",
"501 456 CURVE",
"496 456 LINE",
"470 517 OFFCURVE",
"414 546 OFFCURVE",
"332 546 CURVE SMOOTH",
"268 546 OFFCURVE",
"207 519 OFFCURVE",
"174 463 CURVE",
"169 463 LINE",
"156 536 LINE",
"85 536 LINE",
"85 0 LINE"
);
}
);
width = 935;
}
);
unicode = 1D5C6;
script = "";
category = Other;
subCategory = Other;
},
{
glyphname = u1D5C7;
lastChange = "2019-05-10 14:47:23 +0000";
layers = (
{
anchors = (
{
name = bottom;
position = "{309, 0}";
},
{
name = top;
position = "{309, 536}";
},
{
name = topright;
position = "{562, 536}";
}
);
layerId = "9166331D-2337-4AD9-B82D-8EEBFFA66093";
paths = (
{
closed = 1;
nodes = (
"173 0 LINE",
"173 278 LINE SMOOTH",
"173 403 OFFCURVE",
"211 472 OFFCURVE",
"330 472 CURVE SMOOTH",
"412 472 OFFCURVE",
"450 429 OFFCURVE",
"450 343 CURVE SMOOTH",
"450 0 LINE",
"537 0 LINE",
"537 349 LINE SMOOTH",
"537 487 OFFCURVE",
"471 546 OFFCURVE",
"343 546 CURVE SMOOTH",
"275 546 OFFCURVE",
"209 519 OFFCURVE",
"174 463 CURVE",
"169 463 LINE",
"156 536 LINE",
"85 536 LINE",
"85 0 LINE"
);
}
);
width = 618;
}
);
unicode = 1D5C7;
script = "";
category = Other;
subCategory = Other;
},
{
glyphname = u1D5C8;
lastChange = "2019-05-10 14:47:23 +0000";
layers = (
{
anchors = (
{
name = bottom;
position = "{301, 0}";
},
{
name = center;
position = "{303, 268}";
},
{
name = top;
position = "{303, 536}";
},
{
name = topright;
position = "{575, 536}";
}
);
layerId = "9166331D-2337-4AD9-B82D-8EEBFFA66093";
paths = (
{
closed = 1;
nodes = (
"454 -10 OFFCURVE",
"551 91 OFFCURVE",
"551 269 CURVE SMOOTH",
"551 446 OFFCURVE",
"449 546 OFFCURVE",
"304 546 CURVE SMOOTH",
"150 546 OFFCURVE",
"55 446 OFFCURVE",
"55 269 CURVE SMOOTH",
"55 91 OFFCURVE",
"159 -10 OFFCURVE",
"301 -10 CURVE SMOOTH"
);
},
{
closed = 1;
nodes = (
"194 63 OFFCURVE",
"146 142 OFFCURVE",
"146 269 CURVE SMOOTH",
"146 396 OFFCURVE",
"193 472 OFFCURVE",
"302 472 CURVE SMOOTH",
"411 472 OFFCURVE",
"460 396 OFFCURVE",
"460 269 CURVE SMOOTH",
"460 142 OFFCURVE",
"411 63 OFFCURVE",
"303 63 CURVE SMOOTH"
);
}
);
width = 605;
}
);
unicode = 1D5C8;
script = "";
category = Other;
subCategory = Other;
},
{
glyphname = u1D5C9;
lastChange = "2019-05-10 14:47:23 +0000";
layers = (
{
anchors = (
{
name = bottom;
position = "{129, -240}";
},
{
name = top;
position = "{332, 536}";
},
{
name = topright;
position = "{585, 536}";
}
);
layerId = "9166331D-2337-4AD9-B82D-8EEBFFA66093";
paths = (
{
closed = 1;
nodes = (
"173 -240 LINE",
"173 -20 LINE SMOOTH",
"173 5 OFFCURVE",
"169 45 OFFCURVE",
"167 68 CURVE",
"173 68 LINE",
"204 26 OFFCURVE",
"256 -10 OFFCURVE",
"339 -10 CURVE SMOOTH",
"472 -10 OFFCURVE",
"560 86 OFFCURVE",
"560 269 CURVE SMOOTH",
"560 454 OFFCURVE",
"472 546 OFFCURVE",
"340 546 CURVE SMOOTH",
"253 546 OFFCURVE",
"205 509 OFFCURVE",
"173 463 CURVE",
"169 463 LINE",
"157 536 LINE",
"85 536 LINE",
"85 -240 LINE"
);
},
{
closed = 1;
nodes = (
"209 63 OFFCURVE",
"173 137 OFFCURVE",
"173 269 CURVE SMOOTH",
"173 286 LINE SMOOTH",
"175 411 OFFCURVE",
"215 472 OFFCURVE",
"324 472 CURVE SMOOTH",
"423 472 OFFCURVE",
"469 392 OFFCURVE",
"469 270 CURVE SMOOTH",
"469 150 OFFCURVE",
"423 63 OFFCURVE",
"326 63 CURVE SMOOTH"
);
}
);
width = 615;
}
);
unicode = 1D5C9;
script = "";
category = Other;
subCategory = Other;
},
{
glyphname = u1D5CA;
lastChange = "2019-05-10 14:47:23 +0000";
layers = (
{
anchors = (
{
name = bottom;
position = "{486, -240}";
},
{
name = top;
position = "{308, 536}";
},
{
name = topright;
position = "{555, 536}";
}
);
layerId = "9166331D-2337-4AD9-B82D-8EEBFFA66093";
paths = (
{
closed = 1;
nodes = (
"530 -240 LINE",
"530 536 LINE",
"460 536 LINE",
"447 463 LINE",
"443 463 LINE",
"411 509 OFFCURVE",
"360 546 OFFCURVE",
"276 546 CURVE SMOOTH",
"145 546 OFFCURVE",
"55 451 OFFCURVE",
"55 267 CURVE SMOOTH",
"55 83 OFFCURVE",
"143 -10 OFFCURVE",
"273 -10 CURVE SMOOTH",
"358 -10 OFFCURVE",
"410 26 OFFCURVE",
"441 72 CURVE",
"447 72 LINE",
"443 49 OFFCURVE",
"442 13 OFFCURVE",
"442 -11 CURVE SMOOTH",
"442 -240 LINE"
);
},
{
closed = 1;
nodes = (
"192 63 OFFCURVE",
"146 138 OFFCURVE",
"146 265 CURVE SMOOTH",
"146 392 OFFCURVE",
"192 473 OFFCURVE",
"288 473 CURVE SMOOTH",
"404 473 OFFCURVE",
"443 402 OFFCURVE",
"443 266 CURVE SMOOTH",
"443 248 LINE SMOOTH",
"441 123 OFFCURVE",
"400 63 OFFCURVE",
"290 63 CURVE SMOOTH"
);
}
);
width = 615;
}
);
unicode = 1D5CA;
script = "";
category = Other;
subCategory = Other;
},
{
glyphname = u1D5CB;
lastChange = "2019-05-10 14:47:23 +0000";
layers = (
{
anchors = (
{
name = bottom;
position = "{126, 0}";
},
{
name = top;
position = "{240, 536}";
},
{
name = topright;
position = "{393, 536}";
}
);
layerId = "9166331D-2337-4AD9-B82D-8EEBFFA66093";
paths = (
{
closed = 1;
nodes = (
"173 0 LINE",
"173 286 LINE SMOOTH",
"173 394 OFFCURVE",
"246 466 OFFCURVE",
"329 466 CURVE SMOOTH",
"347 466 OFFCURVE",
"370 463 OFFCURVE",
"387 459 CURVE",
"398 540 LINE",
"380 544 OFFCURVE",
"355 546 OFFCURVE",
"335 546 CURVE SMOOTH",
"260 546 OFFCURVE",
"205 497 OFFCURVE",
"171 438 CURVE",
"167 438 LINE",
"157 536 LINE",
"85 536 LINE",
"85 0 LINE"
);
}
);
width = 413;
}
);
unicode = 1D5CB;
script = "";
category = Other;
subCategory = Other;
},
{
glyphname = u1D5CC;
lastChange = "2019-05-10 14:47:23 +0000";
layers = (
{
anchors = (
{
name = bottom;
position = "{240, 0}";
},
{
name = top;
position = "{240, 536}";
},
{
name = topright;
position = "{439, 536}";
}
);
layerId = "9166331D-2337-4AD9-B82D-8EEBFFA66093";
paths = (
{
closed = 1;
nodes = (
"351 -10 OFFCURVE",
"434 44 OFFCURVE",
"434 148 CURVE SMOOTH",
"434 234 OFFCURVE",
"375 269 OFFCURVE",
"273 307 CURVE SMOOTH",
"170 346 OFFCURVE",
"135 364 OFFCURVE",
"135 409 CURVE SMOOTH",
"135 449 OFFCURVE",
"174 474 OFFCURVE",
"246 474 CURVE SMOOTH",
"298 474 OFFCURVE",
"348 459 OFFCURVE",
"393 440 CURVE",
"423 510 LINE",
"373 532 OFFCURVE",
"317 546 OFFCURVE",
"252 546 CURVE SMOOTH",
"132 546 OFFCURVE",
"51 495 OFFCURVE",
"51 404 CURVE SMOOTH",
"51 316 OFFCURVE",
"113 284 OFFCURVE",
"217 244 CURVE SMOOTH",
"322 204 OFFCURVE",
"349 180 OFFCURVE",
"349 140 CURVE SMOOTH",
"349 92 OFFCURVE",
"311 61 OFFCURVE",
"222 61 CURVE SMOOTH",
"159 61 OFFCURVE",
"94 83 OFFCURVE",
"52 104 CURVE",
"52 24 LINE",
"93 2 OFFCURVE",
"145 -10 OFFCURVE",
"220 -10 CURVE SMOOTH"
);
}
);
width = 479;
}
);
unicode = 1D5CC;
script = "";
category = Other;
subCategory = Other;
},
{
glyphname = u1D5CD;
lastChange = "2019-05-10 14:47:23 +0000";
layers = (
{
anchors = (
{
name = bottom;
position = "{214, 0}";
},
{
name = center;
position = "{181, 268}";
},
{
name = top;
position = "{154, 659}";
},
{
name = topright;
position = "{335, 659}";
}
);
layerId = "9166331D-2337-4AD9-B82D-8EEBFFA66093";
paths = (
{
closed = 1;
nodes = (
"281 -10 OFFCURVE",
"320 -3 OFFCURVE",
"339 6 CURVE",
"339 73 LINE",
"322 67 OFFCURVE",
"290 62 OFFCURVE",
"264 62 CURVE SMOOTH",
"215 62 OFFCURVE",
"180 93 OFFCURVE",
"180 158 CURVE SMOOTH",
"180 468 LINE",
"335 468 LINE",
"335 536 LINE",
"180 536 LINE",
"180 659 LINE",
"128 659 LINE",
"93 545 LINE",
"16 510 LINE",
"16 468 LINE",
"92 468 LINE",
"92 156 LINE SMOOTH",
"92 26 OFFCURVE",
"165 -10 OFFCURVE",
"249 -10 CURVE SMOOTH"
);
}
);
width = 361;
}
);
unicode = 1D5CD;
script = "";
category = Other;
subCategory = Other;
},
{
glyphname = u1D5CE;
lastChange = "2019-05-10 14:47:23 +0000";
layers = (
{
anchors = (
{
name = bottom;
position = "{294, 0}";
},
{
name = top;
position = "{309, 536}";
},
{
name = topright;
position = "{562, 536}";
}
);
layerId = "9166331D-2337-4AD9-B82D-8EEBFFA66093";
paths = (
{
closed = 1;
nodes = (
"343 -10 OFFCURVE",
"409 15 OFFCURVE",
"444 71 CURVE",
"448 71 LINE",
"461 0 LINE",
"533 0 LINE",
"533 536 LINE",
"445 536 LINE",
"445 257 LINE SMOOTH",
"445 132 OFFCURVE",
"406 63 OFFCURVE",
"287 63 CURVE SMOOTH",
"206 63 OFFCURVE",
"168 105 OFFCURVE",
"168 191 CURVE SMOOTH",
"168 536 LINE",
"79 536 LINE",
"79 185 LINE SMOOTH",
"79 49 OFFCURVE",
"145 -10 OFFCURVE",
"274 -10 CURVE SMOOTH"
);
}
);
width = 618;
}
);
unicode = 1D5CE;
script = "";
category = Other;
subCategory = Other;
},
{
glyphname = u1D5CF;
lastChange = "2019-05-10 14:47:23 +0000";
layers = (
{
anchors = (
{
name = bottom;
position = "{252, 0}";
},
{
name = top;
position = "{252, 536}";
},
{
name = topright;
position = "{488, 536}";
}
);
layerId = "9166331D-2337-4AD9-B82D-8EEBFFA66093";
paths = (
{
closed = 1;
nodes = (
"304 0 LINE",
"508 536 LINE",
"414 536 LINE",
"300 220 LINE SMOOTH",
"285 177 OFFCURVE",
"262 111 OFFCURVE",
"255 78 CURVE",
"251 78 LINE",
"245 111 OFFCURVE",
"224 176 OFFCURVE",
"208 220 CURVE SMOOTH",
"94 536 LINE",
"0 536 LINE",
"203 0 LINE"
);
}
);
width = 508;
}
);
unicode = 1D5CF;
script = "";
category = Other;
subCategory = Other;
},
{
glyphname = u1D5D0;
lastChange = "2019-05-10 14:47:23 +0000";
layers = (
{
anchors = (
{
name = bottom;
position = "{391, 0}";
},
{
name = top;
position = "{393, 536}";
},
{
name = topright;
position = "{766, 536}";
}
);
layerId = "9166331D-2337-4AD9-B82D-8EEBFFA66093";
paths = (
{
closed = 1;
nodes = (
"258 1 LINE",
"354 302 LINE SMOOTH",
"372 358 OFFCURVE",
"385 415 OFFCURVE",
"390 445 CURVE",
"394 445 LINE",
"400 415 OFFCURVE",
"414 358 OFFCURVE",
"431 303 CURVE SMOOTH",
"523 1 LINE",
"626 1 LINE",
"775 537 LINE",
"685 537 LINE",
"610 251 LINE SMOOTH",
"594 190 OFFCURVE",
"578 125 OFFCURVE",
"574 92 CURVE",
"570 92 LINE",
"565 130 OFFCURVE",
"548 189 OFFCURVE",
"534 235 CURVE SMOOTH",
"442 537 LINE",
"346 537 LINE",
"251 235 LINE SMOOTH",
"237 191 OFFCURVE",
"222 124 OFFCURVE",
"215 91 CURVE",
"211 91 LINE",
"206 129 OFFCURVE",
"191 193 OFFCURVE",
"176 251 CURVE SMOOTH",
"102 537 LINE",
"11 537 LINE",
"158 1 LINE"
);
}
);
width = 786;
}
);
unicode = 1D5D0;
script = "";
category = Other;
subCategory = Other;
},
{
glyphname = u1D5D1;
lastChange = "2019-05-10 14:47:23 +0000";
layers = (
{
anchors = (
{
name = bottom;
position = "{265, 0}";
},
{
name = top;
position = "{263, 536}";
},
{
name = topright;
position = "{509, 536}";
}
);
layerId = "9166331D-2337-4AD9-B82D-8EEBFFA66093";
paths = (
{
closed = 1;
nodes = (
"117 0 LINE",
"265 214 LINE",
"411 0 LINE",
"511 0 LINE",
"316 274 LINE",
"501 536 LINE",
"402 536 LINE",
"265 334 LINE",
"127 536 LINE",
"27 536 LINE",
"212 274 LINE",
"18 0 LINE"
);
}
);
width = 529;
}
);
unicode = 1D5D1;
script = "";
category = Other;
subCategory = Other;
},
{
glyphname = u1D5D2;
lastChange = "2019-05-10 14:47:23 +0000";
layers = (
{
anchors = (
{
name = bottom;
position = "{94, -240}";
},
{
name = top;
position = "{255, 536}";
},
{
name = topright;
position = "{490, 536}";
}
);
layerId = "9166331D-2337-4AD9-B82D-8EEBFFA66093";
paths = (
{
closed = 1;
nodes = (
"188 -240 OFFCURVE",
"241 -175 OFFCURVE",
"279 -74 CURVE SMOOTH",
"510 536 LINE",
"415 536 LINE",
"306 232 LINE SMOOTH",
"287 177 OFFCURVE",
"268 118 OFFCURVE",
"260 85 CURVE",
"256 85 LINE",
"248 129 OFFCURVE",
"231 177 OFFCURVE",
"211 231 CURVE SMOOTH",
"95 536 LINE",
"1 536 LINE",
"217 -2 LINE",
"189 -73 LINE SMOOTH",
"167 -131 OFFCURVE",
"131 -168 OFFCURVE",
"70 -168 CURVE SMOOTH",
"47 -168 OFFCURVE",
"25 -165 OFFCURVE",
"11 -162 CURVE",
"11 -232 LINE",
"28 -236 OFFCURVE",
"52 -240 OFFCURVE",
"84 -240 CURVE SMOOTH"
);
}
);
width = 510;
}
);
unicode = 1D5D2;
script = "";
category = Other;
subCategory = Other;
},
{
glyphname = u1D5D3;
lastChange = "2019-05-10 14:47:23 +0000";
layers = (
{
anchors = (
{
name = bottom;
position = "{242, 0}";
},
{
name = top;
position = "{235, 536}";
},
{
name = topright;
position = "{430, 536}";
}
);
layerId = "9166331D-2337-4AD9-B82D-8EEBFFA66093";
paths = (
{
closed = 1;
nodes = (
"431 0 LINE",
"431 68 LINE",
"140 68 LINE",
"424 470 LINE",
"424 536 LINE",
"56 536 LINE",
"56 468 LINE",
"327 468 LINE",
"39 58 LINE",
"39 0 LINE"
);
}
);
width = 470;
}
);
unicode = 1D5D3;
script = "";
category = Other;
subCategory = Other;
},
{
glyphname = u1D5D4;
lastChange = "2019-05-10 14:47:23 +0000";
layers = (
{
anchors = (
{
name = bottom;
position = "{345, 0}";
},
{
name = top;
position = "{345, 714}";
},
{
name = topright;
position = "{590, 714}";
}
);
layerId = "9166331D-2337-4AD9-B82D-8EEBFFA66093";
paths = (
{
closed = 1;
nodes = (
"163 0 LINE",
"215 170 LINE",
"475 170 LINE",
"527 0 LINE",
"690 0 LINE",
"437 717 LINE",
"252 717 LINE",
"0 0 LINE"
);
},
{
closed = 1;
nodes = (
"304 463 LINE SMOOTH",
"311 485 OFFCURVE",
"335 566 OFFCURVE",
"345 606 CURVE",
"355 566 OFFCURVE",
"376 496 OFFCURVE",
"386 463 CURVE SMOOTH",
"439 297 LINE",
"253 297 LINE"
);
}
);
width = 690;
}
);
unicode = 1D5D4;
script = "";
category = Other;
subCategory = Other;
},
{
glyphname = u1D5D5;
lastChange = "2019-05-10 14:47:23 +0000";
layers = (
{
anchors = (
{
name = bottom;
position = "{339, 0}";
},
{
name = top;
position = "{341, 714}";
},
{
name = topright;
position = "{652, 714}";
}
);
layerId = "9166331D-2337-4AD9-B82D-8EEBFFA66093";
paths = (
{
closed = 1;
nodes = (
"357 0 LINE SMOOTH",
"519 0 OFFCURVE",
"619 77 OFFCURVE",
"619 207 CURVE SMOOTH",
"619 319 OFFCURVE",
"562 359 OFFCURVE",
"491 374 CURVE",
"491 379 LINE",
"561 391 OFFCURVE",
"601 452 OFFCURVE",
"601 533 CURVE SMOOTH",
"601 667 OFFCURVE",
"502 714 OFFCURVE",
"312 714 CURVE SMOOTH",
"90 714 LINE",
"90 0 LINE"
);
},
{
closed = 1;
nodes = (
"241 311 LINE",
"335 311 LINE SMOOTH",
"431 311 OFFCURVE",
"462 275 OFFCURVE",
"462 222 CURVE SMOOTH",
"462 163 OFFCURVE",
"431 125 OFFCURVE",
"340 125 CURVE SMOOTH",
"241 125 LINE"
);
},
{
closed = 1;
nodes = (
"241 590 LINE",
"321 590 LINE SMOOTH",
"407 590 OFFCURVE",
"446 568 OFFCURVE",
"446 513 CURVE SMOOTH",
"446 459 OFFCURVE",
"417 431 OFFCURVE",
"329 431 CURVE SMOOTH",
"241 431 LINE"
);
}
);
width = 672;
}
);
unicode = 1D5D5;
script = "";
category = Other;
subCategory = Other;
},
{
glyphname = u1D5D6;
lastChange = "2019-05-10 14:47:23 +0000";
layers = (
{
anchors = (
{
name = bottom;
position = "{370, 0}";
},
{
name = top;
position = "{377, 714}";
},
{
name = topright;
position = "{617, 714}";
}
);
layerId = "9166331D-2337-4AD9-B82D-8EEBFFA66093";
paths = (
{
closed = 1;
nodes = (
"455 -10 OFFCURVE",
"512 1 OFFCURVE",
"575 27 CURVE",
"575 154 LINE",
"507 130 OFFCURVE",
"451 116 OFFCURVE",
"393 116 CURVE SMOOTH",
"268 116 OFFCURVE",
"214 203 OFFCURVE",
"214 355 CURVE SMOOTH",
"214 505 OFFCURVE",
"277 598 OFFCURVE",
"393 598 CURVE SMOOTH",
"445 598 OFFCURVE",
"500 576 OFFCURVE",
"553 551 CURVE",
"602 674 LINE",
"537 705 OFFCURVE",
"464 724 OFFCURVE",
"393 724 CURVE SMOOTH",
"177 724 OFFCURVE",
"58 572 OFFCURVE",
"58 356 CURVE SMOOTH",
"58 136 OFFCURVE",
"158 -10 OFFCURVE",
"379 -10 CURVE SMOOTH"
);
}
);
width = 637;
}
);
unicode = 1D5D6;
script = "";
category = Other;
subCategory = Other;
},
{
glyphname = u1D5D7;
lastChange = "2019-05-10 14:47:23 +0000";
layers = (
{
anchors = (
{
name = bottom;
position = "{344, 0}";
},
{
name = center;
position = "{370, 357}";
},
{
name = top;
position = "{370, 714}";
},
{
name = topright;
position = "{720, 714}";
}
);
layerId = "9166331D-2337-4AD9-B82D-8EEBFFA66093";
paths = (
{
closed = 1;
nodes = (
"292 0 LINE SMOOTH",
"538 0 OFFCURVE",
"682 123 OFFCURVE",
"682 364 CURVE SMOOTH",
"682 593 OFFCURVE",
"538 714 OFFCURVE",
"314 714 CURVE SMOOTH",
"90 714 LINE",
"90 0 LINE"
);
},
{
closed = 1;
nodes = (
"241 590 LINE",
"322 590 LINE SMOOTH",
"454 590 OFFCURVE",
"525 518 OFFCURVE",
"525 360 CURVE SMOOTH",
"525 204 OFFCURVE",
"454 125 OFFCURVE",
"306 125 CURVE SMOOTH",
"241 125 LINE"
);
}
);
width = 740;
}
);
unicode = 1D5D7;
script = "";
category = Other;
subCategory = Other;
},
{
glyphname = u1D5D8;
lastChange = "2019-05-10 14:47:23 +0000";
layers = (
{
anchors = (
{
name = bottom;
position = "{303, 0}";
},
{
name = top;
position = "{301, 714}";
},
{
name = topright;
position = "{540, 714}";
}
);
layerId = "9166331D-2337-4AD9-B82D-8EEBFFA66093";
paths = (
{
closed = 1;
nodes = (
"501 0 LINE",
"501 125 LINE",
"241 125 LINE",
"241 309 LINE",
"483 309 LINE",
"483 433 LINE",
"241 433 LINE",
"241 590 LINE",
"501 590 LINE",
"501 714 LINE",
"90 714 LINE",
"90 0 LINE"
);
}
);
width = 560;
}
);
unicode = 1D5D8;
script = "";
category = Other;
subCategory = Other;
},
{
glyphname = u1D5D9;
lastChange = "2019-05-10 14:47:23 +0000";
layers = (
{
anchors = (
{
name = bottom;
position = "{275, 0}";
},
{
name = top;
position = "{298, 714}";
},
{
name = topright;
position = "{529, 714}";
}
);
layerId = "9166331D-2337-4AD9-B82D-8EEBFFA66093";
paths = (
{
closed = 1;
nodes = (
"239 0 LINE",
"239 282 LINE",
"481 282 LINE",
"481 406 LINE",
"239 406 LINE",
"239 590 LINE",
"499 590 LINE",
"499 714 LINE",
"90 714 LINE",
"90 0 LINE"
);
}
);
width = 549;
}
);
unicode = 1D5D9;
script = "";
category = Other;
subCategory = Other;
},
{
glyphname = u1D5DA;
lastChange = "2019-05-10 14:47:23 +0000";
layers = (
{
anchors = (
{
name = bottom;
position = "{390, 0}";
},
{
name = top;
position = "{400, 714}";
},
{
name = topright;
position = "{704, 714}";
}
);
layerId = "9166331D-2337-4AD9-B82D-8EEBFFA66093";
paths = (
{
closed = 1;
nodes = (
"492 -10 OFFCURVE",
"569 6 OFFCURVE",
"644 31 CURVE",
"644 401 LINE",
"361 401 LINE",
"361 275 LINE",
"496 275 LINE",
"496 126 LINE",
"470 121 OFFCURVE",
"443 116 OFFCURVE",
"400 116 CURVE SMOOTH",
"268 116 OFFCURVE",
"214 215 OFFCURVE",
"214 355 CURVE SMOOTH",
"214 502 OFFCURVE",
"298 598 OFFCURVE",
"430 598 CURVE SMOOTH",
"491 598 OFFCURVE",
"549 581 OFFCURVE",
"593 559 CURVE",
"643 680 LINE",
"583 706 OFFCURVE",
"507 724 OFFCURVE",
"431 724 CURVE SMOOTH",
"191 724 OFFCURVE",
"58 582 OFFCURVE",
"58 358 CURVE SMOOTH",
"58 118 OFFCURVE",
"177 -10 OFFCURVE",
"390 -10 CURVE SMOOTH"
);
}
);
width = 724;
}
);
unicode = 1D5DA;
script = "";
category = Other;
subCategory = Other;
},
{
glyphname = u1D5DB;
lastChange = "2019-05-10 14:47:23 +0000";
layers = (
{
anchors = (
{
name = bottom;
position = "{379, 0}";
},
{
name = center;
position = "{383, 357}";
},
{
name = top;
position = "{383, 714}";
},
{
name = topright;
position = "{745, 714}";
}
);
layerId = "9166331D-2337-4AD9-B82D-8EEBFFA66093";
paths = (
{
closed = 1;
nodes = (
"241 0 LINE",
"241 308 LINE",
"524 308 LINE",
"524 0 LINE",
"675 0 LINE",
"675 714 LINE",
"524 714 LINE",
"524 434 LINE",
"241 434 LINE",
"241 714 LINE",
"90 714 LINE",
"90 0 LINE"
);
}
);
width = 765;
}
);
unicode = 1D5DB;
script = "";
category = Other;
subCategory = Other;
},
{
glyphname = u1D5DC;
lastChange = "2019-05-10 14:47:23 +0000";
layers = (
{
anchors = (
{
name = bottom;
position = "{195, 0}";
},
{
name = top;
position = "{195, 714}";
},
{
name = topright;
position = "{369, 714}";
}
);
layerId = "9166331D-2337-4AD9-B82D-8EEBFFA66093";
paths = (
{
closed = 1;
nodes = (
"357 0 LINE",
"357 86 LINE",
"270 126 LINE",
"270 588 LINE",
"357 628 LINE",
"357 714 LINE",
"32 714 LINE",
"32 628 LINE",
"119 588 LINE",
"119 126 LINE",
"32 86 LINE",
"32 0 LINE"
);
}
);
width = 389;
}
);
unicode = 1D5DC;
script = "";
category = Other;
subCategory = Other;
},
{
glyphname = u1D5DD;
lastChange = "2019-05-10 14:47:23 +0000";
layers = (
{
anchors = (
{
name = bottom;
position = "{15, -190}";
},
{
name = top;
position = "{166, 714}";
},
{
name = topright;
position = "{311, 714}";
}
);
layerId = "9166331D-2337-4AD9-B82D-8EEBFFA66093";
paths = (
{
closed = 1;
nodes = (
"149 -210 OFFCURVE",
"241 -138 OFFCURVE",
"241 46 CURVE SMOOTH",
"241 714 LINE",
"90 714 LINE",
"90 45 LINE SMOOTH",
"90 -60 OFFCURVE",
"50 -83 OFFCURVE",
"-3 -83 CURVE SMOOTH",
"-30 -83 OFFCURVE",
"-53 -78 OFFCURVE",
"-74 -73 CURVE",
"-74 -199 LINE",
"-53 -205 OFFCURVE",
"-24 -210 OFFCURVE",
"15 -210 CURVE SMOOTH"
);
}
);
width = 331;
}
);
unicode = 1D5DD;
script = "";
category = Other;
subCategory = Other;
},
{
glyphname = u1D5DE;
lastChange = "2019-05-10 14:47:23 +0000";
layers = (
{
anchors = (
{
name = bottom;
position = "{348, 0}";
},
{
name = top;
position = "{350, 714}";
},
{
name = topright;
position = "{644, 714}";
}
);
layerId = "9166331D-2337-4AD9-B82D-8EEBFFA66093";
paths = (
{
closed = 1;
nodes = (
"241 0 LINE",
"241 255 LINE",
"305 301 LINE",
"492 0 LINE",
"664 0 LINE",
"413 398 LINE",
"662 714 LINE",
"494 714 LINE",
"301 471 LINE SMOOTH",
"280 444 OFFCURVE",
"260 415 OFFCURVE",
"241 387 CURVE",
"241 714 LINE",
"90 714 LINE",
"90 0 LINE"
);
}
);
width = 664;
}
);
unicode = 1D5DE;
script = "";
category = Other;
subCategory = Other;
},
{
glyphname = u1D5DF;
lastChange = "2019-05-10 14:47:23 +0000";
layers = (
{
anchors = (
{
name = bottom;
position = "{308, 0}";
},
{
name = center;
position = "{283, 357}";
},
{
name = top;
position = "{164, 714}";
},
{
name = topright;
position = "{385, 714}";
}
);
layerId = "9166331D-2337-4AD9-B82D-8EEBFFA66093";
paths = (
{
closed = 1;
nodes = (
"531 0 LINE",
"531 125 LINE",
"241 125 LINE",
"241 714 LINE",
"90 714 LINE",
"90 0 LINE"
);
}
);
width = 565;
}
);
unicode = 1D5DF;
script = "";
category = Other;
subCategory = Other;
},
{
glyphname = u1D5E0;
lastChange = "2019-05-10 14:47:23 +0000";
layers = (
{
anchors = (
{
name = bottom;
position = "{465, 0}";
},
{
name = top;
position = "{471, 714}";
},
{
name = topright;
position = "{923, 714}";
}
);
layerId = "9166331D-2337-4AD9-B82D-8EEBFFA66093";
paths = (
{
closed = 1;
nodes = (
"225 0 LINE",
"225 332 LINE SMOOTH",
"225 405 OFFCURVE",
"219 520 OFFCURVE",
"216 560 CURVE",
"220 560 LINE",
"392 0 LINE",
"531 0 LINE",
"715 559 LINE",
"719 559 LINE",
"717 519 OFFCURVE",
"712 405 OFFCURVE",
"712 338 CURVE SMOOTH",
"712 0 LINE",
"853 0 LINE",
"853 714 LINE",
"647 714 LINE",
"468 168 LINE",
"465 168 LINE",
"296 714 LINE",
"90 714 LINE",
"90 0 LINE"
);
}
);
width = 943;
}
);
unicode = 1D5E0;
script = "";
category = Other;
subCategory = Other;
},
{
glyphname = u1D5E1;
lastChange = "2019-05-10 14:47:23 +0000";
layers = (
{
anchors = (
{
name = bottom;
position = "{407, 0}";
},
{
name = top;
position = "{407, 714}";
},
{
name = topright;
position = "{793, 714}";
}
);
layerId = "9166331D-2337-4AD9-B82D-8EEBFFA66093";
paths = (
{
closed = 1;
nodes = (
"225 0 LINE",
"225 336 LINE SMOOTH",
"225 404 OFFCURVE",
"221 472 OFFCURVE",
"216 540 CURVE",
"220 540 LINE",
"531 0 LINE",
"723 0 LINE",
"723 714 LINE",
"587 714 LINE",
"587 376 LINE SMOOTH",
"587 310 OFFCURVE",
"590 245 OFFCURVE",
"594 179 CURVE",
"591 179 LINE",
"281 714 LINE",
"90 714 LINE",
"90 0 LINE"
);
}
);
width = 813;
}
);
unicode = 1D5E1;
script = "";
category = Other;
subCategory = Other;
},
{
glyphname = u1D5E2;
lastChange = "2019-05-10 14:47:23 +0000";
layers = (
{
anchors = (
{
name = bottom;
position = "{399, 0}";
},
{
name = center;
position = "{398, 357}";
},
{
name = top;
position = "{398, 714}";
},
{
name = topright;
position = "{776, 714}";
}
);
layerId = "9166331D-2337-4AD9-B82D-8EEBFFA66093";
paths = (
{
closed = 1;
nodes = (
"631 -10 OFFCURVE",
"738 137 OFFCURVE",
"738 358 CURVE SMOOTH",
"738 580 OFFCURVE",
"631 725 OFFCURVE",
"399 725 CURVE SMOOTH",
"165 725 OFFCURVE",
"58 580 OFFCURVE",
"58 359 CURVE SMOOTH",
"58 137 OFFCURVE",
"165 -10 OFFCURVE",
"398 -10 CURVE SMOOTH"
);
},
{
closed = 1;
nodes = (
"271 117 OFFCURVE",
"217 208 OFFCURVE",
"217 358 CURVE SMOOTH",
"217 508 OFFCURVE",
"271 599 OFFCURVE",
"399 599 CURVE SMOOTH",
"527 599 OFFCURVE",
"579 508 OFFCURVE",
"579 358 CURVE SMOOTH",
"579 208 OFFCURVE",
"527 117 OFFCURVE",
"398 117 CURVE SMOOTH"
);
}
);
width = 796;
}
);
unicode = 1D5E2;
script = "";
category = Other;
subCategory = Other;
},
{
glyphname = u1D5E3;
lastChange = "2019-05-10 14:47:23 +0000";
layers = (
{
anchors = (
{
name = bottom;
position = "{314, 0}";
},
{
name = top;
position = "{325, 714}";
},
{
name = topright;
position = "{608, 714}";
}
);
layerId = "9166331D-2337-4AD9-B82D-8EEBFFA66093";
paths = (
{
closed = 1;
nodes = (
"241 0 LINE",
"241 254 LINE",
"306 254 LINE SMOOTH",
"514 254 OFFCURVE",
"583 366 OFFCURVE",
"583 491 CURVE SMOOTH",
"583 630 OFFCURVE",
"502 714 OFFCURVE",
"318 714 CURVE SMOOTH",
"90 714 LINE",
"90 0 LINE"
);
},
{
closed = 1;
nodes = (
"241 590 LINE",
"310 590 LINE SMOOTH",
"392 590 OFFCURVE",
"430 556 OFFCURVE",
"430 486 CURVE SMOOTH",
"430 410 OFFCURVE",
"376 378 OFFCURVE",
"291 378 CURVE SMOOTH",
"241 378 LINE"
);
}
);
width = 628;
}
);
unicode = 1D5E3;
script = "";
category = Other;
subCategory = Other;
},
{
glyphname = u1D5E4;
lastChange = "2019-05-10 14:47:23 +0000";
layers = (
{
anchors = (
{
name = bottom;
position = "{398, -170}";
},
{
name = top;
position = "{398, 714}";
},
{
name = topright;
position = "{776, 714}";
}
);
layerId = "9166331D-2337-4AD9-B82D-8EEBFFA66093";
paths = (
{
closed = 1;
nodes = (
"734 -170 LINE",
"562 22 LINE",
"682 76 OFFCURVE",
"738 198 OFFCURVE",
"738 358 CURVE SMOOTH",
"738 580 OFFCURVE",
"631 725 OFFCURVE",
"399 725 CURVE SMOOTH",
"165 725 OFFCURVE",
"58 580 OFFCURVE",
"58 359 CURVE SMOOTH",
"58 137 OFFCURVE",
"165 -10 OFFCURVE",
"398 -10 CURVE SMOOTH",
"402 -10 OFFCURVE",
"405 -10 OFFCURVE",
"409 -10 CURVE",
"540 -170 LINE"
);
},
{
closed = 1;
nodes = (
"271 117 OFFCURVE",
"217 208 OFFCURVE",
"217 358 CURVE SMOOTH",
"217 508 OFFCURVE",
"271 599 OFFCURVE",
"399 599 CURVE SMOOTH",
"527 599 OFFCURVE",
"579 508 OFFCURVE",
"579 358 CURVE SMOOTH",
"579 208 OFFCURVE",
"527 117 OFFCURVE",
"398 117 CURVE SMOOTH"
);
}
);
width = 796;
}
);
unicode = 1D5E4;
script = "";
category = Other;
subCategory = Other;
},
{
glyphname = u1D5E5;
lastChange = "2019-05-10 14:47:23 +0000";
layers = (
{
anchors = (
{
name = bottom;
position = "{358, 0}";
},
{
name = top;
position = "{338, 714}";
},
{
name = topright;
position = "{640, 714}";
}
);
layerId = "9166331D-2337-4AD9-B82D-8EEBFFA66093";
paths = (
{
closed = 1;
nodes = (
"241 0 LINE",
"241 274 LINE",
"322 274 LINE",
"492 0 LINE",
"660 0 LINE",
"450 311 LINE",
"520 343 OFFCURVE",
"583 402 OFFCURVE",
"583 500 CURVE SMOOTH",
"583 644 OFFCURVE",
"492 714 OFFCURVE",
"298 714 CURVE SMOOTH",
"90 714 LINE",
"90 0 LINE"
);
},
{
closed = 1;
nodes = (
"241 590 LINE",
"287 590 LINE SMOOTH",
"385 590 OFFCURVE",
"430 564 OFFCURVE",
"430 496 CURVE SMOOTH",
"430 431 OFFCURVE",
"390 397 OFFCURVE",
"290 397 CURVE SMOOTH",
"241 397 LINE"
);
}
);
width = 660;
}
);
unicode = 1D5E5;
script = "";
category = Other;
subCategory = Other;
},
{
glyphname = u1D5E6;
lastChange = "2019-05-10 14:47:23 +0000";
layers = (
{
anchors = (
{
name = bottom;
position = "{268, 0}";
},
{
name = top;
position = "{284, 714}";
},
{
name = topright;
position = "{531, 714}";
}
);
layerId = "9166331D-2337-4AD9-B82D-8EEBFFA66093";
paths = (
{
closed = 1;
nodes = (
"416 -10 OFFCURVE",
"511 71 OFFCURVE",
"511 198 CURVE SMOOTH",
"511 310 OFFCURVE",
"446 361 OFFCURVE",
"337 412 CURVE SMOOTH",
"247 454 OFFCURVE",
"202 475 OFFCURVE",
"202 526 CURVE SMOOTH",
"202 569 OFFCURVE",
"234 598 OFFCURVE",
"291 598 CURVE SMOOTH",
"345 598 OFFCURVE",
"393 583 OFFCURVE",
"459 556 CURVE",
"508 674 LINE",
"434 706 OFFCURVE",
"370 724 OFFCURVE",
"296 724 CURVE SMOOTH",
"147 724 OFFCURVE",
"54 649 OFFCURVE",
"54 521 CURVE SMOOTH",
"54 391 OFFCURVE",
"158 338 OFFCURVE",
"224 308 CURVE SMOOTH",
"303 272 OFFCURVE",
"363 244 OFFCURVE",
"363 191 CURVE SMOOTH",
"363 147 OFFCURVE",
"334 115 OFFCURVE",
"260 115 CURVE SMOOTH",
"188 115 OFFCURVE",
"114 144 OFFCURVE",
"46 174 CURVE",
"46 33 LINE",
"104 5 OFFCURVE",
"174 -10 OFFCURVE",
"248 -10 CURVE SMOOTH"
);
}
);
width = 551;
}
);
unicode = 1D5E6;
script = "";
category = Other;
subCategory = Other;
},
{
glyphname = u1D5E7;
lastChange = "2019-05-10 14:47:23 +0000";
layers = (
{
anchors = (
{
name = bottom;
position = "{290, 0}";
},
{
name = center;
position = "{290, 357}";
},
{
name = top;
position = "{290, 714}";
},
{
name = topright;
position = "{559, 714}";
}
);
layerId = "9166331D-2337-4AD9-B82D-8EEBFFA66093";
paths = (
{
closed = 1;
nodes = (
"365 0 LINE",
"365 588 LINE",
"559 588 LINE",
"559 714 LINE",
"20 714 LINE",
"20 588 LINE",
"214 588 LINE",
"214 0 LINE"
);
}
);
width = 579;
}
);
unicode = 1D5E7;
script = "";
category = Other;
subCategory = Other;
},
{
glyphname = u1D5E8;
lastChange = "2019-05-10 14:47:23 +0000";
layers = (
{
anchors = (
{
name = bottom;
position = "{376, 0}";
},
{
name = top;
position = "{378, 714}";
},
{
name = topright;
position = "{736, 714}";
}
);
layerId = "9166331D-2337-4AD9-B82D-8EEBFFA66093";
paths = (
{
closed = 1;
nodes = (
"574 -10 OFFCURVE",
"671 104 OFFCURVE",
"671 252 CURVE SMOOTH",
"671 714 LINE",
"520 714 LINE",
"520 278 LINE SMOOTH",
"520 167 OFFCURVE",
"478 117 OFFCURVE",
"379 117 CURVE SMOOTH",
"284 117 OFFCURVE",
"236 159 OFFCURVE",
"236 277 CURVE SMOOTH",
"236 714 LINE",
"85 714 LINE",
"85 254 LINE SMOOTH",
"85 95 OFFCURVE",
"186 -10 OFFCURVE",
"375 -10 CURVE SMOOTH"
);
}
);
width = 756;
}
);
unicode = 1D5E8;
script = "";
category = Other;
subCategory = Other;
},
{
glyphname = u1D5E9;
lastChange = "2019-05-10 14:47:23 +0000";
layers = (
{
anchors = (
{
name = bottom;
position = "{323, 0}";
},
{
name = top;
position = "{326, 714}";
},
{
name = topright;
position = "{630, 714}";
}
);
layerId = "9166331D-2337-4AD9-B82D-8EEBFFA66093";
paths = (
{
closed = 1;
nodes = (
"407 0 LINE",
"650 714 LINE",
"497 714 LINE",
"362 289 LINE SMOOTH",
"355 266 OFFCURVE",
"331 175 OFFCURVE",
"325 132 CURVE",
"319 175 OFFCURVE",
"294 267 OFFCURVE",
"287 289 CURVE SMOOTH",
"153 714 LINE",
"0 714 LINE",
"242 0 LINE"
);
}
);
width = 650;
}
);
unicode = 1D5E9;
script = "";
category = Other;
subCategory = Other;
},
{
glyphname = u1D5EA;
lastChange = "2019-05-10 14:47:23 +0000";
layers = (
{
anchors = (
{
name = bottom;
position = "{482, 0}";
},
{
name = top;
position = "{484, 714}";
},
{
name = topright;
position = "{947, 714}";
}
);
layerId = "9166331D-2337-4AD9-B82D-8EEBFFA66093";
paths = (
{
closed = 1;
nodes = (
"354 0 LINE",
"450 374 LINE SMOOTH",
"458 406 OFFCURVE",
"479 506 OFFCURVE",
"483 542 CURVE",
"487 506 OFFCURVE",
"509 404 OFFCURVE",
"516 375 CURVE SMOOTH",
"613 0 LINE",
"785 0 LINE",
"967 714 LINE",
"818 714 LINE",
"727 324 LINE SMOOTH",
"716 277 OFFCURVE",
"698 186 OFFCURVE",
"692 137 CURVE",
"686 185 OFFCURVE",
"668 279 OFFCURVE",
"659 314 CURVE SMOOTH",
"555 714 LINE",
"412 714 LINE",
"308 314 LINE SMOOTH",
"299 278 OFFCURVE",
"281 187 OFFCURVE",
"275 137 CURVE",
"269 185 OFFCURVE",
"251 278 OFFCURVE",
"240 324 CURVE SMOOTH",
"149 714 LINE",
"0 714 LINE",
"182 0 LINE"
);
}
);
width = 967;
}
);
unicode = 1D5EA;
script = "";
category = Other;
subCategory = Other;
},
{
glyphname = u1D5EB;
lastChange = "2019-05-10 14:47:23 +0000";
layers = (
{
anchors = (
{
name = bottom;
position = "{334, 0}";
},
{
name = top;
position = "{334, 714}";
},
{
name = topright;
position = "{647, 714}";
}
);
layerId = "9166331D-2337-4AD9-B82D-8EEBFFA66093";
paths = (
{
closed = 1;
nodes = (
"162 0 LINE",
"328 270 LINE",
"494 0 LINE",
"667 0 LINE",
"426 360 LINE",
"650 714 LINE",
"487 714 LINE",
"336 457 LINE",
"182 714 LINE",
"15 714 LINE",
"237 368 LINE",
"0 0 LINE"
);
}
);
width = 667;
}
);
unicode = 1D5EB;
script = "";
category = Other;
subCategory = Other;
},
{
glyphname = u1D5EC;
lastChange = "2019-05-10 14:47:23 +0000";
layers = (
{
anchors = (
{
name = bottom;
position = "{312, 0}";
},
{
name = top;
position = "{312, 714}";
},
{
name = topright;
position = "{604, 714}";
}
);
layerId = "9166331D-2337-4AD9-B82D-8EEBFFA66093";
paths = (
{
closed = 1;
nodes = (
"387 0 LINE",
"387 278 LINE",
"624 714 LINE",
"461 714 LINE",
"312 420 LINE",
"164 714 LINE",
"0 714 LINE",
"237 273 LINE",
"237 0 LINE"
);
}
);
width = 624;
}
);
unicode = 1D5EC;
script = "";
category = Other;
subCategory = Other;
},
